<svg width="63" height="60" viewBox="0 0 63 60" fill="none" xmlns="http://www.w3.org/2000/svg">
<path d="M54.4392 25.3415L41.2743 44.0869C41.1306 44.297 40.925 44.4562 40.6839 44.5402L35.4547 46.1432C35.342 46.1786 35.2248 46.1963 35.1054 46.1963C34.8644 46.1985 34.6278 46.1233 34.4288 45.984C34.1303 45.7762 33.9446 45.4401 33.9269 45.0775L33.6682 39.605C33.6505 39.3441 33.7257 39.0854 33.8804 38.8731L47.0097 20.1299C47.6841 19.0995 48.7454 18.3876 49.9526 18.1554C51.1599 17.9232 52.4114 18.1908 53.4174 18.8983C54.4256 19.6037 55.1023 20.6893 55.2946 21.9032C55.487 23.1171 55.1799 24.3597 54.4392 25.3415ZM19.723 53.1192C15.7983 52.7499 12.913 49.2741 13.273 45.3475L15.9373 16.6743L11.1857 17.2647C8.57223 17.6052 6.72599 19.9931 7.05763 22.6066L10.6838 51.3042C10.9889 53.6811 13.0032 55.4677 15.4 55.4831C15.5968 55.4831 15.7936 55.4721 15.9904 55.4478L28.2242 53.8978L19.723 53.1192ZM43.2068 45.4533L46.0613 41.3916L45.4135 48.3499C45.1791 50.8042 43.1206 52.6814 40.6553 52.688H40.213L19.9285 50.7733C17.3017 50.5234 15.3714 48.1951 15.6125 45.5662L18.2835 16.769C18.4029 15.5064 19.0176 14.3412 19.9926 13.5319C20.97 12.7227 22.228 12.3357 23.4906 12.4529L43.7553 14.3346C45.0201 14.4473 46.1853 15.0598 46.9924 16.0371C47.156 16.2383 47.3041 16.4506 47.4346 16.6739C46.4971 17.1824 45.69 17.9011 45.0775 18.7744L31.9172 37.5001C31.4661 38.1457 31.2428 38.9196 31.2804 39.7045L31.3931 42.004L21.4501 41.2677C20.8001 41.2191 20.2318 41.7077 20.1831 42.3578C20.1345 43.01 20.6232 43.5783 21.2732 43.627L31.5038 44.3986L31.5458 45.1659C31.6365 47.0519 33.1931 48.5334 35.0835 48.5312C35.4351 48.5312 35.7845 48.4781 36.1205 48.3786L41.3564 46.7689C42.1037 46.5434 42.7538 46.0768 43.207 45.4422L43.2068 45.4533ZM22.1881 20.8132C22.1284 21.461 22.606 22.0336 23.2538 22.0934L37.8933 23.4554H38.006C38.6583 23.4841 39.2089 22.98 39.2398 22.3299C39.2686 21.6777 38.7644 21.1271 38.1122 21.0961L23.4659 19.7474C22.8181 19.6877 22.2456 20.1653 22.1881 20.8132ZM22.5773 29.246L29.5644 29.9602H29.6882V29.9579C30.2941 29.9624 30.8027 29.5047 30.8667 28.9032C30.8999 28.5915 30.807 28.2797 30.6102 28.0365C30.4135 27.7934 30.1282 27.6385 29.8165 27.6054L22.8118 26.9222C22.1662 26.8558 21.589 27.3268 21.5205 27.9724C21.4675 28.6136 21.936 29.1796 22.5773 29.246ZM20.8548 35.1407C20.8261 35.4525 20.9211 35.7642 21.1223 36.0052C21.3213 36.2462 21.6088 36.3988 21.9228 36.4275L28.1248 37.0179H28.2376V37.0157C28.8877 37.0466 29.4404 36.5425 29.4692 35.8902C29.498 35.238 28.9938 34.6874 28.3437 34.6587L22.1417 34.0683H22.1395C21.8277 34.0395 21.5159 34.1346 21.275 34.338C21.0317 34.5392 20.8813 34.8289 20.8548 35.1407Z" fill="url(#paint0_linear_19_591)"/>
<defs>
<linearGradient id="paint0_linear_19_591" x1="31.1849" y1="12.4324" x2="31.1849" y2="55.4831" gradientUnits="userSpaceOnUse">
<stop stop-color="#FFA21F"/>
<stop offset="1" stop-color="#FF6115"/>
</linearGradient>
</defs>
</svg>
