<svg width="60" height="60" viewBox="0 0 60 60" fill="none" xmlns="http://www.w3.org/2000/svg">
<path d="M29.5385 17.5385C22.9218 17.5385 17.5385 22.9218 17.5385 29.5385C17.5385 36.1551 22.9218 41.5385 29.5385 41.5385C36.1551 41.5385 41.5385 36.1551 41.5385 29.5385C41.5385 22.9218 36.1551 17.5385 29.5385 17.5385ZM35.7203 26.3921L28.1598 33.9877C27.9794 34.1686 27.7426 34.2595 27.5058 34.2595C27.2751 34.2595 27.0448 34.1737 26.8657 34.0015L23.3714 30.6392C23.004 30.2857 22.9929 29.7014 23.346 29.334C23.6991 28.9666 24.2834 28.9551 24.6512 29.3086L27.4915 32.0414L34.4118 25.0892C34.7714 24.7278 35.3557 24.7265 35.7175 25.0865C36.0785 25.446 36.0798 26.0303 35.7203 26.3921Z" fill="url(#paint0_linear_19_574)"/>
<path d="M53.1065 23.9372H51.8829C51.8202 23.9372 51.7574 23.9386 51.6942 23.9409C51.0683 21.4126 50.0289 19.0292 48.5968 16.8346L49.3809 16.0505C51.3489 14.0825 51.3489 10.8803 49.3809 8.91233C47.4129 6.94479 44.2113 6.94525 42.2428 8.91233L41.4005 9.7551C39.1297 8.32986 36.6577 7.32002 34.0316 6.74448V5.97002C34.0316 3.1874 31.7677 0.923096 28.9846 0.923096C26.2016 0.923096 23.9372 3.1874 23.9372 5.97048V6.74494C21.2063 7.34402 18.6406 8.41525 16.2914 9.9374L16.0505 9.69694C14.0825 7.72848 10.8808 7.7294 8.91233 9.69694C6.94479 11.6649 6.94479 14.8671 8.91233 16.8351L9.18879 17.1116C7.64633 19.5503 6.58617 22.2129 6.03048 25.0459H5.97002C3.1874 25.0454 0.923096 27.3092 0.923096 30.0923C0.923096 32.8754 3.1874 35.1397 5.97048 35.1397H6.24925C6.9314 37.9523 8.1134 40.5734 9.77171 42.9508L9.69602 43.0265C7.72802 44.9945 7.72802 48.1966 9.69602 50.1646C11.664 52.1322 14.8662 52.1322 16.8342 50.1646L17.196 49.8028C19.6306 51.2271 22.2646 52.1843 25.0454 52.6542V53.1069C25.0454 55.89 27.3097 58.1543 30.0928 58.1543C32.8759 58.1543 35.1402 55.89 35.1402 53.1069V52.1659C37.7534 51.4569 40.1903 50.3142 42.4053 48.7592L43.0269 49.3809C44.9949 51.3499 48.1971 51.3489 50.1651 49.3809C52.1326 47.4129 52.1326 44.2108 50.1651 42.2428L49.2997 41.3779C49.2785 41.3562 49.2568 41.3349 49.2346 41.3137C50.5551 39.0416 51.4703 36.5986 51.9628 34.0316H53.1074C55.8905 34.0316 58.1548 31.7673 58.1548 28.9842C58.1539 26.2016 55.8896 23.9372 53.1065 23.9372ZM29.5385 43.3846C21.9037 43.3846 15.6923 37.1732 15.6923 29.5385C15.6923 21.9037 21.9037 15.6923 29.5385 15.6923C37.1732 15.6923 43.3846 21.9037 43.3846 29.5385C43.3846 37.1732 37.1732 43.3846 29.5385 43.3846Z" fill="url(#paint1_linear_19_574)"/>
<defs>
<linearGradient id="paint0_linear_19_574" x1="29.5385" y1="17.5385" x2="29.5385" y2="41.5385" gradientUnits="userSpaceOnUse">
<stop stop-color="#FFA21F"/>
<stop offset="1" stop-color="#FF6115"/>
</linearGradient>
<linearGradient id="paint1_linear_19_574" x1="29.5389" y1="0.923096" x2="29.5389" y2="58.1543" gradientUnits="userSpaceOnUse">
<stop stop-color="#FFA21F"/>
<stop offset="1" stop-color="#FF6115"/>
</linearGradient>
</defs>
</svg>
