<svg width="1440" height="469" viewBox="0 0 1440 469" fill="none" xmlns="http://www.w3.org/2000/svg">
<mask id="mask0_289_599" style="mask-type:alpha" maskUnits="userSpaceOnUse" x="0" y="0" width="1440" height="469">
<rect width="1440" height="469" fill="#131212"/>
</mask>
<g mask="url(#mask0_289_599)">
<g style="mix-blend-mode:screen" filter="url(#filter0_f_289_599)">
<ellipse cx="605.935" cy="36.3929" rx="605.935" ry="36.3929" transform="matrix(0.969606 0.244673 -0.246494 0.969144 -360.308 -44.9004)" fill="#303030"/>
</g>
<g style="mix-blend-mode:difference" filter="url(#filter1_f_289_599)">
<ellipse cx="604.718" cy="24.291" rx="604.718" ry="24.291" transform="matrix(0.969606 0.244673 -0.246494 0.969144 -790.036 -224.26)" fill="#474646"/>
</g>
<ellipse cx="1375.5" cy="-4.6293" rx="139.5" ry="138.951" fill="url(#paint0_linear_289_599)"/>
<ellipse cx="184.273" cy="183.644" rx="184.273" ry="183.644" transform="matrix(0.96618 -0.257868 0.259773 0.96567 -169 319.004)" fill="url(#paint1_linear_289_599)"/>
<ellipse cx="54.0132" cy="54.0339" rx="54.0132" ry="54.0339" transform="matrix(0.673355 -0.739319 0.741957 0.670447 593 409.416)" fill="url(#paint2_linear_289_599)"/>
<ellipse cx="54.2026" cy="54.0765" rx="54.2026" ry="54.0765" transform="matrix(0.892482 -0.451083 0.453922 0.891041 276.704 -64.2695)" fill="url(#paint3_linear_289_599)"/>
</g>
<defs>
<filter id="filter0_f_289_599" x="-719.349" y="-363.803" width="1875.18" height="1004.86" filterUnits="userSpaceOnUse" color-interpolation-filters="sRGB">
<feFlood flood-opacity="0" result="BackgroundImageFix"/>
<feBlend mode="normal" in="SourceGraphic" in2="BackgroundImageFix" result="shape"/>
<feGaussianBlur stdDeviation="175" result="effect1_foregroundBlur_289_599"/>
</filter>
<filter id="filter1_f_289_599" x="-926.054" y="-332.602" width="1432.74" height="559.683" filterUnits="userSpaceOnUse" color-interpolation-filters="sRGB">
<feFlood flood-opacity="0" result="BackgroundImageFix"/>
<feBlend mode="normal" in="SourceGraphic" in2="BackgroundImageFix" result="shape"/>
<feGaussianBlur stdDeviation="65" result="effect1_foregroundBlur_289_599"/>
</filter>
<linearGradient id="paint0_linear_289_599" x1="1489.25" y1="71.7936" x2="1255.83" y2="-74.3973" gradientUnits="userSpaceOnUse">
<stop stop-color="#0E0D0D"/>
<stop offset="1" stop-color="#1D1C1C"/>
</linearGradient>
<linearGradient id="paint1_linear_289_599" x1="334.526" y1="284.649" x2="26.1071" y2="91.5822" gradientUnits="userSpaceOnUse">
<stop stop-color="#0E0D0D"/>
<stop offset="1" stop-color="#1D1C1C"/>
</linearGradient>
<linearGradient id="paint2_linear_289_599" x1="98.0548" y1="83.7526" x2="7.45932" y2="27.2559" gradientUnits="userSpaceOnUse">
<stop stop-color="#0E0D0D"/>
<stop offset="1" stop-color="#1D1C1C"/>
</linearGradient>
<linearGradient id="paint3_linear_289_599" x1="98.3986" y1="83.8186" x2="7.62374" y2="27.0563" gradientUnits="userSpaceOnUse">
<stop stop-color="#0E0D0D"/>
<stop offset="1" stop-color="#1D1C1C"/>
</linearGradient>
</defs>
</svg>
