<svg width="62" height="60" viewBox="0 0 62 60" fill="none" xmlns="http://www.w3.org/2000/svg">
<path d="M28.3538 51.8141L29.6226 50.2223C29.2383 49.5059 28.9272 48.7529 28.6954 47.9753L26.6763 47.7488C26.2127 47.6937 25.865 47.3019 25.865 46.8365V41.9325C25.865 41.4672 26.2127 41.0692 26.6763 41.0202L28.6954 40.7937C28.9272 40.0161 29.2383 39.2631 29.6226 38.5467L28.3538 36.9549C28.061 36.5876 28.0915 36.061 28.4209 35.7304L31.8735 32.2651C32.0504 32.0876 32.2883 31.9957 32.5201 31.9957C32.7214 31.9957 32.9227 32.0631 33.0935 32.1978L34.6795 33.4712C35.3932 33.0855 36.1435 32.7733 36.9182 32.5406L37.1439 30.5141C37.1988 30.0488 37.5892 29.6998 38.0528 29.6998H40.261V3.06104H21.8207V7.40797H34.7832C35.0333 7.40797 35.2407 7.61614 35.2407 7.86716V14.4488C35.2407 14.6998 35.0333 14.908 34.7832 14.908H21.8207V16.8488C21.8207 17.357 21.412 17.7672 20.9057 17.7672H7.17456V52.1386H28.1952C28.2257 52.0223 28.2806 51.9121 28.3599 51.8141H28.3538ZM17.203 20.9325H34.5514C34.8015 20.9325 35.0089 21.1406 35.0089 21.3916C35.0089 21.6427 34.8015 21.8508 34.5514 21.8508H17.203C16.9529 21.8508 16.7455 21.6427 16.7455 21.3916C16.7455 21.1406 16.9529 20.9325 17.203 20.9325ZM12.8964 29.1427H29.0065C29.2566 29.1427 29.464 29.3508 29.464 29.6019C29.464 29.8529 29.2566 30.061 29.0065 30.061H12.8964C12.6463 30.061 12.4389 29.8529 12.4389 29.6019C12.4389 29.3508 12.6463 29.1427 12.8964 29.1427ZM22.9248 46.4814H12.8964C12.6463 46.4814 12.4389 46.2733 12.4389 46.0223C12.4389 45.7712 12.6463 45.5631 12.8964 45.5631H22.9248C23.1749 45.5631 23.3823 45.7712 23.3823 46.0223C23.3823 46.2733 23.1749 46.4814 22.9248 46.4814ZM24.6877 38.2712H12.8964C12.6463 38.2712 12.4389 38.0631 12.4389 37.8121C12.4389 37.561 12.6463 37.3529 12.8964 37.3529H24.6877C24.9378 37.3529 25.1452 37.561 25.1452 37.8121C25.1452 38.0631 24.9378 38.2712 24.6877 38.2712Z" fill="url(#paint0_linear_36_76)"/>
<path d="M34.3257 8.32642H21.8207V13.9897H34.3257V8.32642Z" fill="url(#paint1_linear_36_76)"/>
<path d="M20.9057 3.06104L7.17456 16.8488H20.9057V3.06104Z" fill="url(#paint2_linear_36_76)"/>
<path d="M54.2178 41.9325L51.5826 41.6386C51.302 40.5059 50.8567 39.4345 50.2711 38.461L51.9242 36.3794L48.4716 32.9141L46.3976 34.5733C45.4277 33.9855 44.3663 33.5386 43.2317 33.257L42.9389 30.6121H38.0528L37.76 33.257C36.6315 33.5386 35.564 33.9855 34.5941 34.5733L32.5201 32.9141L29.0675 36.3794L30.7206 38.461C30.135 39.4345 29.6897 40.4998 29.4091 41.6386L26.7739 41.9325V46.8365L29.4091 47.1304C29.6897 48.2631 30.135 49.3345 30.7206 50.308L29.0675 52.3896L32.5201 55.8549L34.5941 54.1957C35.564 54.7835 36.6254 55.2304 37.76 55.5121L38.0528 58.157H42.9389L43.2317 55.5121C44.3602 55.2304 45.4277 54.7835 46.3976 54.1957L48.4716 55.8549L51.9242 52.3896L50.2711 50.308C50.8567 49.3345 51.302 48.2692 51.5826 47.1304L54.2178 46.8365V41.9325ZM40.2915 50.2406C36.9975 50.2406 34.3196 47.5529 34.3196 44.2468C34.3196 40.9406 36.9975 38.2529 40.2915 38.2529C43.5855 38.2529 46.2634 40.9406 46.2634 44.2468C46.2634 47.5529 43.5855 50.2406 40.2915 50.2406Z" fill="url(#paint3_linear_36_76)"/>
<path d="M40.2915 39.1711C37.5038 39.1711 35.2346 41.4487 35.2346 44.2467C35.2346 47.0446 37.5038 49.3222 40.2915 49.3222C43.0792 49.3222 45.3484 47.0446 45.3484 44.2467C45.3484 41.4487 43.0792 39.1711 40.2915 39.1711Z" fill="url(#paint4_linear_36_76)"/>
<defs>
<linearGradient id="paint0_linear_36_76" x1="23.7178" y1="3.06104" x2="23.7178" y2="52.1386" gradientUnits="userSpaceOnUse">
<stop stop-color="#FFA21F"/>
<stop offset="1" stop-color="#FF6115"/>
</linearGradient>
<linearGradient id="paint1_linear_36_76" x1="28.0732" y1="8.32642" x2="28.0732" y2="13.9897" gradientUnits="userSpaceOnUse">
<stop stop-color="#FFA21F"/>
<stop offset="1" stop-color="#FF6115"/>
</linearGradient>
<linearGradient id="paint2_linear_36_76" x1="14.0401" y1="3.06104" x2="14.0401" y2="16.8488" gradientUnits="userSpaceOnUse">
<stop stop-color="#FFA21F"/>
<stop offset="1" stop-color="#FF6115"/>
</linearGradient>
<linearGradient id="paint3_linear_36_76" x1="40.4958" y1="30.6121" x2="40.4958" y2="58.157" gradientUnits="userSpaceOnUse">
<stop stop-color="#FFA21F"/>
<stop offset="1" stop-color="#FF6115"/>
</linearGradient>
<linearGradient id="paint4_linear_36_76" x1="40.2915" y1="39.1711" x2="40.2915" y2="49.3222" gradientUnits="userSpaceOnUse">
<stop stop-color="#FFA21F"/>
<stop offset="1" stop-color="#FF6115"/>
</linearGradient>
</defs>
</svg>
