<svg width="127" height="130" viewBox="0 0 127 130" fill="none" xmlns="http://www.w3.org/2000/svg">
<ellipse cx="59.0944" cy="57.7431" rx="59.0944" ry="57.7431" transform="matrix(0.101485 -0.994837 -0.994837 -0.101485 115.006 129.389)" fill="url(#paint0_linear_45_328)"/>
<path d="M31.6111 53.3272C33.3419 53.3824 34.7435 54.6418 35.0742 56.2719L45.3345 56.6022L45.5146 50.9597L37.6689 50.7094C37.2061 50.6946 36.8358 50.3039 36.8508 49.833L36.9807 45.7651C35.3801 45.3293 34.2218 43.8405 34.2772 42.1042C34.3421 40.0702 36.0364 38.4729 38.0603 38.5375C40.0843 38.6021 41.6733 40.3042 41.6084 42.3381C41.5529 44.0774 40.2992 45.4863 38.677 45.8192L38.5741 49.0435L45.5746 49.2669L45.7365 44.1936C45.807 41.9833 47.6527 40.2405 49.8549 40.3107L54.9034 40.4719L55.166 32.0614L35.8662 31.4455C35.4321 33.0541 33.9502 34.2186 32.2224 34.1634C30.1984 34.0988 28.6095 32.3967 28.6744 30.3628C28.7393 28.3288 30.4336 26.7314 32.4575 26.796C34.1883 26.8513 35.5899 28.1107 35.9206 29.7408L56.0653 30.3866C56.5281 30.4014 56.8984 30.792 56.8834 31.2629L56.588 40.5171L62.2028 40.6963L62.5347 30.3853C60.9342 29.9496 59.7759 28.4608 59.8313 26.7244C59.8962 24.6904 61.5905 23.0931 63.6144 23.1577C65.6384 23.2223 67.2274 24.9244 67.1625 26.9584C67.1069 28.6977 65.8533 30.1066 64.2311 30.4394L63.902 40.7505L69.5168 40.9297L69.7653 33.0512C69.7802 32.586 70.1691 32.2138 70.6376 32.2287L74.6856 32.3579C75.1197 30.7493 76.6016 29.5848 78.3294 29.64C80.3533 29.7046 81.9423 31.4067 81.8774 33.4407C81.8125 35.4746 80.1182 37.072 78.0943 37.0074C76.3635 36.9521 74.9619 35.6927 74.6312 34.0626L71.4227 33.9602L71.1982 40.9953L76.2466 41.1564C78.446 41.2266 80.1797 43.0808 80.1091 45.2939L79.9472 50.3673L88.3134 50.6285L88.9325 31.2282C87.3319 30.7925 86.1736 29.3036 86.229 27.5673C86.294 25.5333 87.9882 23.936 90.0122 24.0006C92.0362 24.0652 93.6251 25.7673 93.5602 27.8013C93.5047 29.5406 92.2511 30.9495 90.6288 31.2823L89.9827 51.5266C89.9679 51.9917 89.579 52.3639 89.1104 52.349L79.9017 52.0551L79.7217 57.6976L89.9798 58.0279C90.4139 56.4193 91.8958 55.2548 93.6236 55.3099C95.6475 55.3745 97.2365 57.0766 97.1716 59.1106C97.1067 61.1446 95.4124 62.7419 93.3885 62.6773C91.6577 62.6221 90.2561 61.3627 89.9254 59.7326L79.665 59.4051L79.4849 65.0476L87.3247 65.2949C87.7876 65.3097 88.1579 65.7004 88.1428 66.1713L88.013 70.2392C89.6136 70.6749 90.7719 72.1638 90.7165 73.9001C90.6516 75.9341 88.9573 77.5314 86.9333 77.4668C84.9094 77.4022 83.3204 75.7001 83.3853 73.6661C83.4408 71.9268 84.6945 70.5179 86.3167 70.1851L86.4196 66.9608L79.4191 66.7373L79.2572 71.8107C79.1867 74.0209 77.341 75.7638 75.1387 75.6935L70.0903 75.5324L69.8222 83.9338L89.1331 84.5501C89.5672 82.9415 91.049 81.777 92.7769 81.8321C94.8008 81.8967 96.3898 83.5988 96.3249 85.6328C96.26 87.6668 94.5657 89.2641 92.5417 89.1995C90.811 89.1443 89.4094 87.8849 89.0787 86.2548L68.9339 85.6119C68.471 85.5971 68.1008 85.2064 68.1158 84.7355L68.411 75.4843L62.7963 75.3051L62.4643 85.6161C64.0649 86.0518 65.2232 87.5407 65.1678 89.277C65.1029 91.311 63.4086 92.9083 61.3846 92.8437C59.3607 92.7791 57.7717 91.077 57.8366 89.043C57.8921 87.3037 59.1458 85.8948 60.768 85.562L61.1028 75.2511L55.488 75.0719L55.2364 82.9563C55.2216 83.4214 54.8327 83.7936 54.3641 83.7787L50.3162 83.6495C49.8821 85.2581 48.4002 86.4226 46.6724 86.3674C44.6484 86.3028 43.0594 84.6007 43.1243 82.5668C43.1893 80.5328 44.8835 78.9355 46.9075 79.0001C48.6383 79.0553 50.0399 80.3147 50.3706 81.9448L53.579 82.0472L53.8036 75.0121L48.7551 74.851C46.5558 74.7808 44.822 72.9266 44.8926 70.7135L45.0546 65.6401L36.6945 65.3733L36.0724 84.7735C37.673 85.2093 38.8313 86.6981 38.7759 88.4344C38.711 90.4684 37.0167 92.0657 34.9928 92.0011C32.9688 91.9366 31.3798 90.2344 31.4447 88.2005C31.5002 86.4612 32.7539 85.0523 34.3761 84.7194L35.0251 64.4753C35.0399 64.0101 35.4288 63.6379 35.8974 63.6529L45.1002 63.9466L45.2803 58.304L35.0199 57.9737C34.5858 59.5823 33.104 60.7468 31.3762 60.6917C29.3522 60.6271 27.7632 58.9249 27.8281 56.891C27.8929 54.8599 29.5871 53.2626 31.6111 53.3272ZM39.9214 42.2727C39.9564 41.1777 39.1021 40.2626 38.0124 40.2278C36.9228 40.1931 36.0119 41.0519 35.977 42.1469C35.942 43.2419 36.7963 44.157 37.8859 44.1918C38.9667 44.2349 39.8865 43.3678 39.9214 42.2727ZM32.4035 28.498C31.3139 28.4632 30.403 29.322 30.368 30.417C30.3331 31.512 31.1874 32.4272 32.277 32.4619C33.3666 32.4967 34.2775 31.6379 34.3125 30.5429C34.3474 29.4479 33.4845 28.5325 32.4035 28.498ZM65.4669 26.904C65.5018 25.809 64.6476 24.8939 63.5579 24.8591C62.4683 24.8243 61.5574 25.6831 61.5224 26.7782C61.4875 27.8732 62.3418 28.7883 63.4314 28.8231C64.521 28.8578 65.4322 27.9904 65.4669 26.904ZM78.158 35.3059C79.2476 35.3406 80.1585 34.4818 80.1935 33.3868C80.2284 32.2918 79.3741 31.3767 78.2845 31.3419C77.1949 31.3072 76.284 32.1659 76.249 33.261C76.2142 34.3531 77.0684 35.2711 78.158 35.3059ZM91.8676 27.7466C91.9025 26.6516 91.0482 25.7364 89.9586 25.7017C88.8689 25.6669 87.958 26.5257 87.9231 27.6207C87.8881 28.7157 88.7424 29.6308 89.8321 29.6656C90.9217 29.7004 91.8329 28.8329 91.8676 27.7466ZM93.4433 60.9724C94.5329 61.0072 95.4438 60.1484 95.4788 59.0534C95.5137 57.9584 94.6594 57.0432 93.5698 57.0085C92.4802 56.9737 91.5693 57.8325 91.5343 58.9275C91.4994 60.0225 92.3623 60.9379 93.4433 60.9724ZM85.0787 73.7287C85.0438 74.8237 85.898 75.7388 86.9877 75.7736C88.0773 75.8084 88.9882 74.9496 89.0232 73.8546C89.0581 72.7596 88.2038 71.8444 87.1142 71.8097C86.0334 71.7665 85.1136 72.6337 85.0787 73.7287ZM92.5966 87.5034C93.6862 87.5382 94.5971 86.6794 94.6321 85.5844C94.667 84.4894 93.8127 83.5743 92.7231 83.5395C91.6335 83.5047 90.7226 84.3635 90.6876 85.4585C90.6527 86.5535 91.5156 87.4689 92.5966 87.5034ZM59.5332 89.0974C59.4983 90.1924 60.3526 91.1075 61.4422 91.1423C62.5318 91.1771 63.4427 90.3183 63.4777 89.2233C63.5126 88.1283 62.6583 87.2132 61.5687 87.1784C60.4791 87.1436 59.5679 88.011 59.5332 89.0974ZM46.8421 80.6956C45.7525 80.6608 44.8416 81.5196 44.8066 82.6146C44.7717 83.7096 45.626 84.6247 46.7156 84.6595C47.8053 84.6943 48.7162 83.8355 48.7511 82.7405C48.786 81.6484 47.9318 80.7304 46.8421 80.6956ZM46.5774 70.7757C46.5368 72.047 47.5329 73.117 48.8008 73.1574L75.2074 73.9973C76.4725 74.0377 77.5375 73.0363 77.5782 71.7622L78.4222 45.2251C78.4628 43.9539 77.4667 42.8838 76.1988 42.8434L49.7923 42.0006C48.5272 41.9603 47.4622 42.9616 47.4215 44.2358L46.5774 70.7757ZM33.1325 88.2549C33.0976 89.3499 33.9519 90.265 35.0415 90.2998C36.1311 90.3345 37.042 89.4757 37.077 88.3807C37.1119 87.2857 36.2576 86.3706 35.168 86.3358C34.0784 86.3011 33.1672 87.1685 33.1325 88.2549ZM31.4302 58.9934C32.5199 59.0282 33.4308 58.1694 33.4657 57.0744C33.5007 55.9794 32.6464 55.0642 31.5567 55.0295C30.4671 54.9947 29.5562 55.8535 29.5213 56.9485C29.4863 58.0435 30.3406 58.9586 31.4302 58.9934ZM52.9046 50.4329C52.8981 50.3662 52.9002 50.2997 52.9026 50.2246C52.962 48.3611 54.5198 46.8925 56.3741 46.9517C56.4546 46.9542 56.5438 46.9571 56.624 46.9683C57.2403 45.6923 58.5628 44.8322 60.0635 44.8801C61.2192 44.9169 62.2166 45.4954 62.8687 46.3462C63.5738 45.5329 64.6059 45.025 65.7617 45.0619C67.2624 45.1098 68.5302 46.0526 69.061 47.3652C69.1418 47.3591 69.2309 47.362 69.3114 47.3645C71.1657 47.4237 72.6267 48.9887 72.5672 50.8522C72.5651 50.9186 72.563 50.9851 72.552 51.0599C74.3779 51.8297 75.5908 53.6818 75.5256 55.7244C75.4815 57.1083 74.8652 58.3843 73.8355 59.2682C74.0139 59.7193 74.0992 60.2021 74.0833 60.6991C74.0369 62.1552 73.1198 63.3869 71.8238 63.869C71.9067 64.5166 71.8105 65.1873 71.5118 65.7996C71.0377 66.7678 70.1268 67.4444 69.0963 67.6313C68.8855 69.6375 67.1498 71.1814 65.1086 71.1163C63.8724 71.0768 62.8017 70.4498 62.1177 69.517C61.3757 70.4043 60.2672 70.9618 59.031 70.9223C56.984 70.857 55.3586 69.2145 55.2736 67.1902C54.2515 66.9349 53.3883 66.2045 52.9799 65.2082C52.7208 64.5781 52.6621 63.8937 52.7916 63.2616C51.5348 62.6951 50.6926 61.4015 50.7388 59.954C50.7546 59.4571 50.8734 58.9808 51.0774 58.5419C50.1118 57.5943 49.5727 56.2728 49.6166 54.8975C49.7048 52.8556 51.0363 51.0819 52.9046 50.4329ZM65.1768 69.4206C66.3842 69.4591 67.402 68.4997 67.4408 67.2862C67.4594 66.7026 67.2498 66.1464 66.8576 65.7203C66.5376 65.3775 66.5606 64.8374 66.9047 64.5158C67.0708 64.3592 67.2948 64.2853 67.5075 64.2921C67.7289 64.2992 67.939 64.3869 68.1032 64.5628C68.4731 64.9679 68.7546 65.4338 68.9285 65.9368C69.3956 65.8187 69.7973 65.4989 70.0186 65.0548C70.4128 64.246 70.0714 63.3993 69.5324 62.9743C69.1588 62.6876 69.0953 62.1535 69.3776 61.7835C69.663 61.408 70.1945 61.344 70.5626 61.6276C70.8154 61.8208 71.0354 62.0505 71.2203 62.2993C71.9071 62.0609 72.3969 61.4114 72.4213 60.6487C72.4366 60.1691 72.2672 59.7039 71.9331 59.3519C71.8051 59.2148 71.6606 59.1436 71.468 59.1375C71.0051 59.1227 70.6349 58.732 70.6499 58.2611C70.665 57.7873 71.0536 57.4238 71.5222 57.4387C72.0167 57.4545 72.4664 57.6106 72.8487 57.8946C73.4628 57.3213 73.8279 56.5203 73.8553 55.6622C73.8969 54.3592 73.1404 53.1754 71.9914 52.6557C71.6744 53.1199 71.2419 53.5052 70.7185 53.7632C70.3003 53.9726 69.7878 53.8 69.5823 53.3857C69.3741 52.9655 69.5459 52.4504 69.9583 52.2437C70.5111 51.9664 70.8626 51.4136 70.8824 50.7925C70.9111 49.891 70.2218 49.1287 69.3317 49.0627C69.281 49.7494 69.0384 50.4068 68.6292 50.9665C68.3524 51.3423 67.8259 51.4296 67.4433 51.1513C67.0694 50.8733 66.9827 50.3442 67.2598 49.9597C67.4975 49.6346 67.6365 49.2458 67.6497 48.8326C67.6851 47.7232 66.8169 46.7931 65.7129 46.7578C64.6089 46.7226 63.6831 47.5954 63.6477 48.7049L63.2295 61.8103C63.4353 61.8544 63.677 61.8535 63.7689 61.7696C64.1183 61.4626 64.6555 61.4943 64.9606 61.851C65.266 62.2021 65.2344 62.7419 64.8793 63.0487C64.4173 63.4562 63.8675 63.5485 63.3989 63.5336C63.3184 63.531 63.244 63.52 63.1723 63.5119L63.0568 67.1291C63.0147 68.3598 63.9635 69.3819 65.1768 69.4206ZM52.1953 57.2358C52.5951 56.9738 53.0537 56.8496 53.5482 56.8654C54.0111 56.8802 54.3813 57.2709 54.3663 57.7418C54.3512 58.2156 53.9626 58.5791 53.494 58.5642C53.3014 58.558 53.1529 58.6111 53.0162 58.7485C52.666 59.0786 52.4617 59.529 52.4463 60.0115C52.422 60.7742 52.8723 61.4538 53.5396 61.7354C53.74 61.4988 53.974 61.2894 54.2388 61.107C54.6242 60.8445 55.1504 60.951 55.4114 61.3382C55.6723 61.7311 55.5664 62.2541 55.181 62.5166C54.6076 62.8974 54.2127 63.7293 54.5631 64.5618C54.7558 65.0192 55.1333 65.3638 55.5948 65.5116C55.8034 65.015 56.1114 64.565 56.506 64.193C56.8472 63.8713 57.3791 63.8882 57.6994 64.2224C58.0194 64.5652 58.0023 65.0997 57.6696 65.4274C57.2453 65.8274 57.0062 66.3751 56.9877 66.9529C56.949 68.1663 57.9035 69.1888 59.111 69.2273C60.3185 69.2659 61.3362 68.3064 61.375 67.0929L61.8305 52.8174C61.3754 53.0111 60.8416 53.1474 60.2579 53.1288C60.1774 53.1262 60.0969 53.1236 60.0167 53.1124C59.555 53.0601 59.2144 52.6414 59.2666 52.1774C59.3188 51.7134 59.7356 51.371 60.1973 51.4233C60.8511 51.4963 61.5548 51.0878 61.8967 50.8327L61.9664 48.6514C62.0018 47.5419 61.1335 46.6118 60.0295 46.5766C58.9255 46.5414 57.9998 47.4142 57.9643 48.5236C57.9513 48.931 58.0568 49.3248 58.2816 49.6733C58.5339 50.066 58.422 50.5946 58.0225 50.8508C57.6316 51.1044 57.1056 50.9922 56.8508 50.5907C56.478 50.0091 56.2808 49.3347 56.2711 48.646C55.3787 48.6552 54.6421 49.372 54.6133 50.2734C54.5937 50.8859 54.9147 51.4688 55.4429 51.7806C55.847 52.0162 55.9857 52.5383 55.7454 52.9443C55.5108 53.3503 54.9912 53.4899 54.5874 53.2486C54.0875 52.9521 53.6746 52.5456 53.3878 52.0621C52.211 52.5046 51.3775 53.6407 51.3359 54.9437C51.2969 55.8072 51.6191 56.6245 52.1953 57.2358ZM66.0265 56.691C65.9808 56.7706 65.9409 56.8503 65.9009 56.93C65.4431 57.9305 65.5381 59.1019 66.1867 60.4183C66.3331 60.7035 66.6153 60.8773 66.9172 60.887C67.058 60.8914 67.1912 60.8668 67.3258 60.7959C67.7441 60.5865 67.9101 60.0742 67.7019 59.6539C67.2935 58.834 67.2057 58.1573 67.4348 57.6528C67.7907 56.8717 68.8238 56.601 68.8384 56.5957C69.2911 56.4771 69.5647 56.0202 69.4527 55.5625C69.3406 55.1078 68.886 54.833 68.4337 54.9371C68.3901 54.9502 67.8389 55.0888 67.2311 55.4685C66.885 55.2203 66.386 54.7156 66.7021 54.0084C66.8914 53.5778 66.7031 53.0744 66.2746 52.8842C65.8461 52.6941 65.3451 52.8835 65.1558 53.3142C64.4796 54.8428 65.2219 56.0233 66.0265 56.691ZM54.8581 55.4988C54.8909 55.6416 55.2186 56.9158 56.4874 57.5579C56.5244 57.5735 56.5526 57.5889 56.5896 57.6045C56.3948 58.6568 56.5859 60.0627 58.0564 61.0583C58.1944 61.1523 58.3454 61.2005 58.5007 61.2055C58.7795 61.2144 59.0658 61.0818 59.2264 60.8295C59.4892 60.4388 59.3824 59.909 58.9991 59.6539C58.185 59.1015 58.1564 58.3747 58.2523 57.8977C58.8636 57.8594 59.5253 57.6867 60.2431 57.377C60.6692 57.1911 60.8693 56.6942 60.6846 56.2575C60.4997 55.8293 60.0054 55.6285 59.5707 55.8141C58.5989 56.2343 57.8021 56.313 57.2636 56.0529C56.677 55.7681 56.505 55.1176 56.5051 55.1118C56.4016 54.6574 55.9473 54.3768 55.4863 54.4807C55.0285 54.5788 54.7488 55.0442 54.8581 55.4988Z" fill="url(#paint1_linear_45_328)"/>
<defs>
<linearGradient id="paint0_linear_45_328" x1="118.189" y1="36.2573" x2="-8.09089" y2="57.3282" gradientUnits="userSpaceOnUse">
<stop stop-color="#242424"/>
<stop offset="1" stop-color="#0E0D0D" stop-opacity="0"/>
</linearGradient>
<linearGradient id="paint1_linear_45_328" x1="63.6117" y1="23.1576" x2="61.3877" y2="92.8438" gradientUnits="userSpaceOnUse">
<stop stop-color="#2D2D2D"/>
<stop offset="1" stop-color="#0E0D0D"/>
</linearGradient>
</defs>
</svg>
