<svg width="381" height="634" viewBox="0 0 381 634" fill="none" xmlns="http://www.w3.org/2000/svg">
<mask id="mask0_279_2284" style="mask-type:alpha" maskUnits="userSpaceOnUse" x="0" y="0" width="381" height="634">
<rect x="0.5" y="0.5" width="380" height="633" fill="#D9D9D9" stroke="#322F2D"/>
</mask>
<g mask="url(#mask0_279_2284)">
<path d="M84 603C84 632.63 58.9017 657 27.5 657C-3.90168 657 -29 632.63 -29 603C-29 573.37 -3.90168 549 27.5 549C58.9017 549 84 573.37 84 603Z" fill="#0E0D0D" stroke="#1E1C1B" stroke-width="10"/>
<path d="M424 23C424 52.6298 398.902 77 367.5 77C336.098 77 311 52.6298 311 23C311 -6.62984 336.098 -31 367.5 -31C398.902 -31 424 -6.62984 424 23Z" fill="#0E0D0D" stroke="#1E1C1B" stroke-width="10"/>
</g>
</svg>
