<svg width="166" height="31" viewBox="0 0 166 31" fill="none" xmlns="http://www.w3.org/2000/svg">
<g clip-path="url(#clip0_38_112)">
<path d="M15.5 30.4995C23.7845 30.4995 30.5 23.784 30.5 15.4995V4.99951C30.5 3.80604 30.0259 2.66144 29.182 1.81753C28.3381 0.973617 27.1935 0.499512 26 0.499512L16.25 0.499512V7.08001C16.25 8.58151 16.3415 10.137 17.129 11.415C17.6928 12.3309 18.4469 13.1148 19.3404 13.7136C20.2338 14.3124 21.2455 14.712 22.307 14.8853L22.5942 14.9318C22.7127 14.9722 22.8155 15.0487 22.8883 15.1505C22.9611 15.2523 23.0002 15.3744 23.0002 15.4995C23.0002 15.6247 22.9611 15.7467 22.8883 15.8485C22.8155 15.9503 22.7127 16.0268 22.5942 16.0673L22.307 16.1138C20.7561 16.3671 19.324 17.1012 18.2128 18.2124C17.1017 19.3235 16.3676 20.7556 16.1142 22.3065L16.0677 22.5938C16.0273 22.7122 15.9508 22.815 15.849 22.8878C15.7472 22.9606 15.6251 22.9997 15.5 22.9997C15.3748 22.9997 15.2528 22.9606 15.151 22.8878C15.0492 22.815 14.9727 22.7122 14.9322 22.5938L14.8857 22.3065C14.7124 21.2451 14.3128 20.2333 13.714 19.3399C13.1153 18.4465 12.3314 17.6923 11.4155 17.1285C10.1375 16.341 8.582 16.2495 7.0805 16.2495H0.517998C0.910248 24.1853 7.4675 30.4995 15.5 30.4995Z" fill="#F8F8F8"/>
<path d="M0.5 14.7495H7.0805C8.582 14.7495 10.1375 14.658 11.4155 13.8705C12.4145 13.255 13.2555 12.414 13.871 11.415C14.6585 10.137 14.75 8.58151 14.75 7.08001V0.499512H5C3.80653 0.499512 2.66193 0.973617 1.81802 1.81753C0.974106 2.66144 0.5 3.80604 0.5 4.99951L0.5 14.7495ZM35.3413 1.99951C35.3413 2.39734 35.1832 2.77887 34.9019 3.06017C34.6206 3.34148 34.2391 3.49951 33.8413 3.49951C33.4434 3.49951 33.0619 3.34148 32.7806 3.06017C32.4993 2.77887 32.3413 2.39734 32.3413 1.99951C32.3413 1.60169 32.4993 1.22016 32.7806 0.938852C33.0619 0.657547 33.4434 0.499512 33.8413 0.499512C34.2391 0.499512 34.6206 0.657547 34.9019 0.938852C35.1832 1.22016 35.3413 1.60169 35.3413 1.99951ZM159.283 9.57751C163.477 9.57751 165.5 12.5063 165.5 15.8985V22.2698H161.112V16.6545C161.112 15.117 160.551 13.848 158.942 13.848C157.333 13.848 156.797 15.117 156.797 16.6545V22.269H152.409V16.6545C152.409 15.117 151.872 13.848 150.263 13.848C148.654 13.848 148.093 15.117 148.093 16.6545V22.269H143.706V15.8978C143.706 12.5055 145.729 9.57676 149.922 9.57676C152.214 9.57676 153.871 10.4798 154.627 11.9685C155.431 10.4798 157.187 9.57601 159.283 9.57601V9.57751ZM135.82 18.3645C137.234 18.3645 137.844 17.0708 137.844 15.5325V10.065H142.231V16.0695C142.231 19.6575 140.135 22.6358 135.82 22.6358C131.505 22.6358 129.409 19.6583 129.409 16.0695V10.065H133.797V15.5325C133.797 17.07 134.406 18.3645 135.82 18.3645ZM122.956 22.6598C120.201 22.6598 118.422 21.708 117.373 19.8533L120.543 18.0713C120.982 18.852 121.639 19.2428 122.736 19.2428C123.639 19.2428 124.053 18.9255 124.053 18.5348C124.053 17.046 117.617 18.5595 117.617 13.8248C117.617 11.5298 119.567 9.67501 122.883 9.67501C125.784 9.67501 127.368 11.0903 128.076 12.4575L124.906 14.2635C124.638 13.5315 123.809 13.092 122.98 13.092C122.347 13.092 122.005 13.3605 122.005 13.7265C122.005 15.24 128.441 13.8488 128.441 18.4373C128.441 21 125.93 22.6598 122.956 22.6598ZM107.625 27.8835H103.236V16.143C103.236 12.408 106.04 9.69901 109.941 9.69901C113.744 9.69901 116.645 12.6038 116.645 16.143C116.645 20.0483 114.061 22.6358 110.185 22.6358C109.282 22.6358 108.381 22.3673 107.625 21.9518V27.8835ZM109.941 18.5108C111.331 18.5108 112.257 17.4368 112.257 16.167C112.257 14.874 111.331 13.824 109.941 13.824C108.551 13.824 107.625 14.874 107.625 16.1678C107.625 17.4368 108.551 18.5108 109.941 18.5108ZM98.8408 8.77201C97.4023 8.77201 96.2083 7.57576 96.2083 6.13576C96.2083 4.69576 97.4023 3.49951 98.8408 3.49951C100.279 3.49951 101.474 4.69576 101.474 6.13576C101.474 7.57576 100.279 8.77201 98.8408 8.77201ZM96.647 10.065H101.035V22.2698H96.647V10.065ZM88.2275 22.6358C84.4242 22.6358 81.5232 19.707 81.5232 16.143C81.5232 12.6038 84.4242 9.67501 88.2275 9.67501C92.0308 9.67501 94.9317 12.6038 94.9317 16.143C94.9317 19.707 92.0308 22.6358 88.2275 22.6358ZM88.2275 18.5108C89.6172 18.5108 90.5435 17.4368 90.5435 16.167C90.5435 14.874 89.6172 13.8 88.2275 13.8C86.8378 13.8 85.9115 14.874 85.9115 16.167C85.9115 17.4368 86.8378 18.5108 88.2275 18.5108ZM73.2373 28.2495C70.2148 28.2495 68.0202 26.907 66.899 24.5145L70.5312 22.5623C70.9212 23.3925 71.6525 24.2468 73.1637 24.2468C74.7493 24.2468 75.797 23.2455 75.9193 21.4883C75.3343 22.0013 74.4072 22.3913 73.0182 22.3913C69.629 22.3913 66.8982 19.7798 66.8982 16.1183C66.8982 12.5798 69.8 9.69901 73.6032 9.69901C77.504 9.69901 80.3075 12.4088 80.3075 16.143V20.976C80.3075 25.3695 77.2595 28.2495 73.2373 28.2495ZM73.5298 18.267C74.846 18.267 75.8457 17.3633 75.8457 16.0208C75.8457 14.703 74.8467 13.824 73.5298 13.824C72.2375 13.824 71.2138 14.703 71.2138 16.0215C71.2138 17.364 72.2375 18.2663 73.5298 18.2663V18.267ZM59.4553 22.6358C55.652 22.6358 52.7503 19.707 52.7503 16.143C52.7503 12.6038 55.652 9.67501 59.4553 9.67501C63.2578 9.67501 66.1595 12.6038 66.1595 16.143C66.1595 19.707 63.2585 22.6358 59.4553 22.6358ZM59.4553 18.5108C60.845 18.5108 61.7712 17.4368 61.7712 16.167C61.7712 14.874 60.845 13.8 59.4553 13.8C58.0655 13.8 57.1392 14.874 57.1392 16.167C57.1392 17.4368 58.0655 18.5108 59.4553 18.5108ZM44.7598 5.79451V18.12H52.025V22.2698H44.15C41.3713 22.2698 40.25 20.805 40.25 18.486V5.79451H44.7598Z" fill="#F8F8F8"/>
</g>
<defs>
<clipPath id="clip0_38_112">
<rect width="165" height="30" fill="white" transform="translate(0.5 0.499512)"/>
</clipPath>
</defs>
</svg>
