<svg width="170" height="28" viewBox="0 0 170 28" fill="none" xmlns="http://www.w3.org/2000/svg">
<path fill-rule="evenodd" clip-rule="evenodd" d="M37.5277 12.6096H0.00012207V3.50333H27.8331C31.0646 3.50333 37.5277 5.3246 37.5277 12.6096ZM0 18.5762H37.5274V27.6825H9.69461C6.46308 27.6825 0 25.8613 0 18.5762Z" fill="url(#paint0_linear_289_1503)"/>
<path fill-rule="evenodd" clip-rule="evenodd" d="M101.313 12.57C100.522 14.1 100.126 15.8537 100.126 17.831C100.126 19.8319 100.522 21.6091 101.313 23.1627C102.128 24.6927 103.231 25.8815 104.622 26.7289C106.012 27.5763 107.547 28 109.225 28C110.712 28 112.018 27.7057 113.145 27.1173C114.272 26.5288 115.147 25.752 115.771 24.7869V27.6822H120.878V1.55359H115.771V10.8399C115.075 9.92182 114.14 9.19208 112.965 8.65069C111.791 8.08574 110.556 7.80328 109.261 7.80328C107.559 7.80328 106.012 8.21522 104.622 9.03908C103.231 9.86296 102.128 11.0399 101.313 12.57ZM115.087 14.8298C115.567 15.6772 115.807 16.7011 115.807 17.9016C115.807 19.1021 115.567 20.1379 115.087 21.0088C114.608 21.8562 113.96 22.5153 113.145 22.9861C112.33 23.4334 111.455 23.657 110.52 23.657C109.609 23.657 108.746 23.4216 107.93 22.9508C107.139 22.48 106.492 21.8092 105.988 20.9382C105.509 20.0437 105.269 19.008 105.269 17.831C105.269 16.6541 105.509 15.6419 105.988 14.7944C106.492 13.9235 107.139 13.2644 107.93 12.8171C108.722 12.3699 109.585 12.1463 110.52 12.1463C111.455 12.1463 112.33 12.3817 113.145 12.8525C113.96 13.2997 114.608 13.9588 115.087 14.8298ZM72.0689 3.03656V27.6822H67.034V11.6519L60.3087 27.6822H56.4965L49.7353 11.6519V27.6822H44.7001V3.03656H50.4185L58.4025 21.3619L66.3864 3.03656H72.0689ZM75.752 17.831C75.752 15.8537 76.1476 14.1 76.9388 12.57C77.7542 11.0399 78.8451 9.86296 80.2117 9.03908C81.6022 8.21523 83.1488 7.80328 84.851 7.80328C86.3375 7.80328 87.6323 8.0975 88.7353 8.686C89.862 9.27447 90.7613 10.016 91.4324 10.9105V8.12105H96.5035V27.6822H91.4324V24.8222C90.7851 25.7402 89.8862 26.5053 88.7353 27.1173C87.6082 27.7057 86.3015 28 84.8151 28C83.1367 28 81.6022 27.5763 80.2117 26.7289C78.8451 25.8814 77.7542 24.6927 76.9388 23.1627C76.1476 21.6091 75.752 19.8319 75.752 17.831ZM91.4324 17.9016C91.4324 16.7011 91.1928 15.6772 90.7133 14.8298C90.2338 13.9588 89.5862 13.2997 88.7712 12.8525C87.9561 12.3817 87.0807 12.1463 86.1458 12.1463C85.2107 12.1463 84.3477 12.3699 83.5564 12.8172C82.7652 13.2644 82.1176 13.9235 81.6143 14.7944C81.1348 15.6419 80.8949 16.6541 80.8949 17.831C80.8949 19.008 81.1348 20.0437 81.6143 20.9382C82.1176 21.8092 82.7652 22.48 83.5564 22.9508C84.3715 23.4216 85.2345 23.657 86.1458 23.657C87.0807 23.657 87.9561 23.4334 88.7712 22.9861C89.5862 22.5153 90.2338 21.8562 90.7133 21.0088C91.1928 20.1379 91.4324 19.1021 91.4324 17.9016ZM130.83 11.1576C131.477 10.1219 132.317 9.30978 133.347 8.72131C134.402 8.13281 135.601 7.83859 136.944 7.83859V13.029H135.613C134.031 13.029 132.832 13.3939 132.017 14.1236C131.226 14.8533 130.83 16.1244 130.83 17.9369V27.6822H125.795V8.12105H130.83V11.1576ZM141.237 12.57C140.446 14.1 140.05 15.8537 140.05 17.831C140.05 19.8319 140.446 21.6091 141.237 23.1627C142.052 24.6927 143.155 25.8815 144.546 26.7289C145.936 27.5763 147.471 28 149.149 28C150.635 28 151.942 27.7057 153.069 27.1173C154.196 26.5288 155.071 25.752 155.694 24.7869V27.6822H160.801V1.55359H155.694V10.8399C154.999 9.92182 154.064 9.19208 152.889 8.65069C151.715 8.08574 150.48 7.80328 149.185 7.80328C147.483 7.80328 145.936 8.21522 144.546 9.03908C143.155 9.86296 142.052 11.0399 141.237 12.57ZM155.011 14.8298C155.491 15.6772 155.73 16.7011 155.73 17.9016C155.73 19.1021 155.491 20.1379 155.011 21.0088C154.532 21.8562 153.884 22.5153 153.069 22.9861C152.254 23.4334 151.379 23.657 150.444 23.657C149.532 23.657 148.669 23.4216 147.854 22.9508C147.063 22.48 146.416 21.8092 145.912 20.9382C145.433 20.0437 145.193 19.008 145.193 17.831C145.193 16.6541 145.433 15.6419 145.912 14.7944C146.416 13.9235 147.063 13.2644 147.854 12.8171C148.646 12.3699 149.509 12.1463 150.444 12.1463C151.379 12.1463 152.254 12.3817 153.069 12.8525C153.884 13.2997 154.532 13.9588 155.011 14.8298Z" fill="#F8F8F8"/>
<defs>
<linearGradient id="paint0_linear_289_1503" x1="18.7639" y1="3.50333" x2="18.7639" y2="27.6825" gradientUnits="userSpaceOnUse">
<stop stop-color="#FFA21F"/>
<stop offset="1" stop-color="#FF6115"/>
</linearGradient>
</defs>
</svg>
