<svg width="63" height="63" viewBox="0 0 63 63" fill="none" xmlns="http://www.w3.org/2000/svg">
<circle cx="31.5" cy="31.5" r="31" transform="matrix(-1 0 0 1 63 0.00012207)" fill="url(#paint0_linear_45_336)" stroke="url(#paint1_linear_45_336)"/>
<g clip-path="url(#clip0_45_336)">
<path d="M13.8403 30.7305C14.7981 30.7532 15.5792 31.4436 15.7696 32.3439L21.4477 32.4801L21.5217 29.3575L17.1799 29.2547C16.9237 29.2486 16.7171 29.0341 16.7233 28.7735L16.7766 26.5223C15.8891 26.2885 15.2415 25.4701 15.2643 24.5092C15.2909 23.3836 16.221 22.4922 17.3411 22.5187C18.4612 22.5453 19.348 23.4798 19.3213 24.6054C19.2985 25.5679 18.6114 26.3531 17.7154 26.5446L17.6731 28.3289L21.5471 28.4207L21.6137 25.6131C21.6426 24.39 22.6558 23.4173 23.8746 23.4462L26.6684 23.5124L26.7754 18.8581L16.0949 18.6051C15.8621 19.497 15.0475 20.148 14.0914 20.1253C12.9713 20.0988 12.0845 19.1643 12.1111 18.0387C12.1378 16.9131 13.0679 16.0217 14.188 16.0482C15.1458 16.0709 15.9269 16.7613 16.1173 17.6617L27.2653 17.9274C27.5215 17.9335 27.7281 18.1479 27.7219 18.4085L27.6006 23.5298L30.7078 23.6034L30.8446 17.8973C29.9571 17.6635 29.3095 16.8451 29.3322 15.8842C29.3589 14.7586 30.289 13.8672 31.4091 13.8937C32.5291 13.9202 33.416 14.8547 33.3893 15.9803C33.3665 16.9428 32.6793 17.728 31.7833 17.9195L31.6481 23.6257L34.7553 23.6993L34.857 19.3393C34.8631 19.0819 35.0766 18.8742 35.3359 18.8803L37.576 18.9334C37.8089 18.0415 38.6235 17.3905 39.5796 17.4131C40.6997 17.4397 41.5865 18.3742 41.5599 19.4998C41.5332 20.6253 40.6031 21.5168 39.483 21.4902C38.5252 21.4676 37.7441 20.7772 37.5537 19.8768L35.7781 19.8347L35.6859 23.7279L38.4797 23.7941C39.6968 23.8229 40.6644 24.8409 40.6354 26.0656L40.5689 28.8732L45.1987 28.9797L45.4531 18.2436C44.5656 18.0098 43.9179 17.1914 43.9407 16.2305C43.9674 15.1049 44.8975 14.2135 46.0175 14.24C47.1376 14.2666 48.0244 15.201 47.9978 16.3266C47.975 17.2892 47.2878 18.0743 46.3918 18.2659L46.1264 29.469C46.1203 29.7264 45.9068 29.9341 45.6475 29.928L40.5514 29.8072L40.4774 32.9298L46.1543 33.0659C46.3871 32.1739 47.2017 31.5229 48.1579 31.5456C49.2779 31.5721 50.1648 32.5066 50.1381 33.6322C50.1114 34.7578 49.1813 35.6492 48.0613 35.6227C47.1035 35.6 46.3223 34.9096 46.1319 34.0092L40.4538 33.8747L40.3799 36.9973L44.7184 37.0985C44.9746 37.1045 45.1812 37.319 45.175 37.5796L45.1217 39.8308C46.0092 40.0646 46.6568 40.883 46.634 41.8439C46.6073 42.9695 45.6772 43.8609 44.5572 43.8344C43.4371 43.8078 42.5503 42.8733 42.5769 41.7478C42.5998 40.7852 43.2869 40.0001 44.1829 39.8085L44.2252 38.0242L40.3511 37.9324L40.2846 40.74C40.2556 41.9631 39.2424 42.9358 38.0237 42.9069L35.2299 42.8407L35.1198 47.49L45.8064 47.7432C46.0392 46.8513 46.8538 46.2003 47.81 46.2229C48.93 46.2495 49.8169 47.184 49.7902 48.3095C49.7635 49.4351 48.8334 50.3266 47.7134 50.3C46.7556 50.2773 45.9744 49.5869 45.784 48.6866L34.636 48.4225C34.3798 48.4164 34.1732 48.2019 34.1794 47.9413L34.3007 42.8217L31.1935 42.7481L31.0567 48.4542C31.9442 48.688 32.5918 49.5064 32.569 50.4673C32.5424 51.5929 31.6123 52.4844 30.4922 52.4578C29.3721 52.4313 28.4853 51.4968 28.512 50.3712C28.5348 49.4087 29.2219 48.6235 30.1179 48.432L30.2563 42.7259L27.1491 42.6523L27.0457 47.0155C27.0396 47.2729 26.8262 47.4806 26.5669 47.4745L24.3267 47.4214C24.0939 48.3133 23.2793 48.9643 22.3231 48.9417C21.2031 48.9151 20.3162 47.9807 20.3429 46.8551C20.3696 45.7295 21.2997 44.838 22.4197 44.8646C23.3775 44.8873 24.1587 45.5777 24.3491 46.478L26.1246 46.5201L26.2169 42.6269L23.4231 42.5607C22.206 42.5319 21.2383 41.5139 21.2673 40.2892L21.3339 37.4816L16.7074 37.372L16.4515 48.108C17.339 48.3418 17.9866 49.1602 17.9638 50.1211C17.9371 51.2467 17.007 52.1382 15.887 52.1116C14.7669 52.0851 13.8801 51.1506 13.9067 50.025C13.9295 49.0625 14.6167 48.2773 15.5127 48.0858L15.7797 36.8827C15.7858 36.6253 15.9993 36.4176 16.2586 36.4237L21.3514 36.5444L21.4254 33.4218L15.7473 33.2857C15.5145 34.1777 14.6999 34.8287 13.7438 34.806C12.6237 34.7795 11.7369 33.845 11.7635 32.7194C11.7902 31.5954 12.7202 30.704 13.8403 30.7305ZM18.3877 24.5768C18.4021 23.9709 17.9253 23.4685 17.3223 23.4542C16.7193 23.4399 16.2192 23.9191 16.2049 24.5251C16.1905 25.1311 16.6673 25.6335 17.2703 25.6478C17.8684 25.6668 18.3734 25.1828 18.3877 24.5768ZM14.1658 16.9901C13.5628 16.9758 13.0628 17.4551 13.0484 18.061C13.034 18.667 13.5108 19.1694 14.1138 19.1837C14.7168 19.198 15.2169 18.7187 15.2313 18.1128C15.2456 17.5068 14.764 17.0043 14.1658 16.9901ZM32.451 15.9579C32.4653 15.352 31.9885 14.8495 31.3855 14.8353C30.7825 14.821 30.2825 15.3002 30.2681 15.9062C30.2538 16.5122 30.7306 17.0146 31.3336 17.0289C31.9366 17.0432 32.4367 16.5591 32.451 15.9579ZM39.5106 20.5486C40.1136 20.5629 40.6136 20.0836 40.628 19.4776C40.6423 18.8717 40.1655 18.3692 39.5625 18.355C38.9595 18.3407 38.4595 18.8199 38.4451 19.4259C38.4308 20.0303 38.9076 20.5343 39.5106 20.5486ZM47.0611 16.3041C47.0754 15.6981 46.5986 15.1957 45.9956 15.1814C45.3926 15.1671 44.8926 15.6464 44.8782 16.2524C44.8638 16.8583 45.3406 17.3608 45.9436 17.375C46.5466 17.3893 47.0468 16.9053 47.0611 16.3041ZM48.0839 34.6792C48.6869 34.6935 49.1869 34.2142 49.2013 33.6082C49.2156 33.0023 48.7388 32.4999 48.1358 32.4856C47.5328 32.4713 47.0328 32.9505 47.0184 33.5565C47.0041 34.1625 47.4856 34.665 48.0839 34.6792ZM43.5141 41.7747C43.4998 42.3806 43.9766 42.8831 44.5796 42.8973C45.1826 42.9116 45.6826 42.4324 45.697 41.8264C45.7113 41.2204 45.2345 40.718 44.6315 40.7037C44.0334 40.6847 43.5285 41.1687 43.5141 41.7747ZM47.736 49.3614C48.339 49.3757 48.8391 48.8964 48.8534 48.2905C48.8678 47.6845 48.391 47.1821 47.788 47.1678C47.185 47.1535 46.6849 47.6328 46.6706 48.2387C46.6562 48.8447 47.1378 49.3472 47.736 49.3614ZM29.4509 50.3936C29.4365 50.9995 29.9133 51.502 30.5163 51.5162C31.1193 51.5305 31.6194 51.0513 31.6337 50.4453C31.6481 49.8393 31.1713 49.3369 30.5683 49.3226C29.9653 49.3083 29.4651 49.7924 29.4509 50.3936ZM22.3913 45.8029C21.7883 45.7886 21.2882 46.2679 21.2739 46.8739C21.2595 47.4799 21.7363 47.9823 22.3393 47.9966C22.9423 48.0108 23.4424 47.5316 23.4567 46.9256C23.471 46.3212 22.9943 45.8172 22.3913 45.8029ZM22.1997 40.3159C22.183 41.0194 22.739 41.6069 23.4407 41.6235L38.054 41.9681C38.7541 41.9847 39.3388 41.4259 39.3555 40.7208L39.7018 26.0352C39.7185 25.3317 39.1625 24.7443 38.4609 24.7276L23.8476 24.3814C23.1475 24.3648 22.5628 24.9237 22.5461 25.6288L22.1997 40.3159ZM14.8408 50.0474C14.8264 50.6534 15.3032 51.1558 15.9062 51.1701C16.5092 51.1844 17.0093 50.7051 17.0236 50.0991C17.038 49.4932 16.5612 48.9908 15.9582 48.9765C15.3552 48.9622 14.855 49.4462 14.8408 50.0474ZM13.766 33.8662C14.369 33.8805 14.869 33.4012 14.8834 32.7952C14.8977 32.1893 14.4209 31.6868 13.8179 31.6726C13.2149 31.6583 12.7149 32.1375 12.7005 32.7435C12.6862 33.3495 13.163 33.8519 13.766 33.8662ZM25.6078 29.0325C25.6039 28.9956 25.6048 28.9588 25.6057 28.9172C25.6302 27.886 26.4853 27.0664 27.5115 27.0907C27.5561 27.0917 27.6054 27.0929 27.6498 27.0988C27.985 26.39 28.7128 25.9081 29.5432 25.9278C30.1828 25.9429 30.7373 26.2584 31.1019 26.7262C31.4883 26.273 32.057 25.9873 32.6966 26.0025C33.5271 26.0222 34.2328 26.538 34.5324 27.2618C34.5771 27.2581 34.6264 27.2592 34.671 27.2603C35.6972 27.2846 36.5125 28.1438 36.4881 29.1751C36.4872 29.2118 36.4864 29.2486 36.4806 29.2901C37.4943 29.7076 38.1738 30.7268 38.147 31.8572C38.1289 32.623 37.7937 33.3318 37.228 33.8255C37.3288 34.0742 37.3782 34.341 37.3717 34.616C37.3526 35.4218 36.8508 36.1074 36.136 36.38C36.1848 36.7379 36.1346 37.1094 35.9721 37.4496C35.7142 37.9874 35.2134 38.3658 34.6441 38.4739C34.5366 39.5848 33.5833 40.4469 32.4537 40.4201C31.7696 40.4039 31.1744 40.0619 30.7917 39.5489C30.3852 40.0432 29.7745 40.3566 29.0904 40.3404C27.9576 40.3136 27.0509 39.4123 26.9946 38.2927C26.428 38.1561 25.9471 37.756 25.7166 37.2066C25.5704 36.8592 25.5348 36.4808 25.6036 36.1305C24.9057 35.8228 24.4338 35.1109 24.4528 34.3099C24.4593 34.0349 24.5229 33.7708 24.6337 33.5271C24.0952 33.0072 23.791 32.2785 23.809 31.5175C23.8485 30.3874 24.5771 29.4 25.6078 29.0325ZM32.4837 39.4817C33.1519 39.4975 33.7107 38.962 33.7266 38.2905C33.7342 37.9675 33.6157 37.6608 33.3968 37.4268C33.2182 37.2386 33.2285 36.9397 33.4174 36.7602C33.5086 36.6728 33.6322 36.6309 33.7499 36.6337C33.8724 36.6366 33.9891 36.6842 34.0807 36.7807C34.2872 37.0032 34.4451 37.2597 34.5436 37.5372C34.8014 37.4697 35.0222 37.291 35.1426 37.0443C35.357 36.595 35.1643 36.1281 34.8642 35.8954C34.6562 35.7385 34.6186 35.4433 34.7731 35.2374C34.9293 35.0283 35.2231 34.9905 35.428 35.1457C35.5688 35.2514 35.6915 35.3775 35.795 35.5143C36.1738 35.3793 36.4419 35.0177 36.4519 34.5957C36.4582 34.3302 36.3624 34.0736 36.1759 33.8804C36.1045 33.8051 36.0242 33.7664 35.9176 33.7639C35.6615 33.7578 35.4548 33.5434 35.461 33.2828C35.4672 33.0206 35.6806 32.8177 35.9399 32.8238C36.2135 32.8303 36.4631 32.9146 36.6759 33.07C37.013 32.7501 37.2113 32.3052 37.2226 31.8304C37.2397 31.1093 36.8158 30.4577 36.1777 30.1755C36.0044 30.4337 35.7669 30.6488 35.4785 30.794C35.2481 30.9117 34.9638 30.8186 34.8482 30.5903C34.7311 30.3588 34.8238 30.073 35.0511 29.9568C35.3556 29.8008 35.5476 29.4934 35.5557 29.1497C35.5675 28.6508 35.1826 28.2322 34.6899 28.1997C34.665 28.5799 34.5338 28.9447 34.3099 29.2562C34.1585 29.4653 33.8676 29.516 33.6547 29.3638C33.4465 29.2117 33.3962 28.9194 33.5477 28.7054C33.6777 28.5245 33.7529 28.3087 33.7583 28.0801C33.7729 27.4661 33.2883 26.9555 32.6773 26.941C32.0664 26.9265 31.5581 27.4136 31.5436 28.0276L31.3718 35.2801C31.4858 35.3036 31.6196 35.3019 31.6701 35.2551C31.862 35.0837 32.1593 35.0988 32.3297 35.2948C32.5003 35.4876 32.4853 35.7864 32.2902 35.9577C32.0364 36.1853 31.7327 36.2389 31.4734 36.2327C31.4288 36.2317 31.3876 36.2259 31.3479 36.2218L31.3004 38.2235C31.2827 38.9046 31.8123 39.4658 32.4837 39.4817ZM25.2463 32.7994C25.4663 32.6526 25.7195 32.5819 25.9931 32.5883C26.2493 32.5944 26.4559 32.8089 26.4497 33.0695C26.4435 33.3317 26.2302 33.5346 25.9709 33.5284C25.8643 33.5259 25.7824 33.556 25.7073 33.6326C25.5151 33.8168 25.4041 34.0669 25.3978 34.3339C25.3878 34.756 25.64 35.13 26.0105 35.2827C26.1203 35.1509 26.2488 35.034 26.3945 34.9318C26.6065 34.7849 26.8981 34.8414 27.0443 35.0544C27.1904 35.2706 27.1342 35.5605 26.9221 35.7074C26.6067 35.9207 26.392 36.3828 26.5896 36.8418C26.6983 37.0939 26.9087 37.2829 27.1647 37.3625C27.2779 37.0869 27.4462 36.8365 27.6628 36.6289C27.8502 36.4493 28.1445 36.4563 28.3232 36.6397C28.5018 36.8279 28.4948 37.1237 28.3122 37.3066C28.0793 37.5298 27.9495 37.8339 27.9419 38.1536C27.926 38.8251 28.4587 39.3865 29.1269 39.4023C29.7952 39.4182 30.3539 38.8827 30.3698 38.2111L30.5569 30.3111C30.306 30.4204 30.0113 30.4982 29.6883 30.4905C29.6438 30.4895 29.5992 30.4884 29.5548 30.4826C29.2991 30.4557 29.1088 30.2256 29.1355 29.9687C29.1623 29.7118 29.3913 29.5204 29.647 29.5473C30.009 29.5846 30.3965 29.3555 30.5846 29.2127L30.6132 28.0056C30.6277 27.3917 30.1431 26.881 29.5322 26.8666C28.9212 26.8521 28.413 27.3392 28.3984 27.9531C28.3931 28.1786 28.4532 28.396 28.5792 28.5877C28.7206 28.8039 28.6611 29.0968 28.4412 29.2404C28.2261 29.3825 27.9346 29.3228 27.7918 29.1018C27.5829 28.7817 27.4707 28.4095 27.4622 28.0286C26.9685 28.0377 26.5642 28.4376 26.5524 28.9365C26.5444 29.2754 26.7246 29.5964 27.0183 29.7666C27.2429 29.8951 27.322 30.1833 27.1909 30.409C27.063 30.6347 26.7761 30.7143 26.5516 30.5826C26.2737 30.4208 26.0434 30.1978 25.8825 29.9316C25.2335 30.1818 24.7775 30.8141 24.7604 31.5352C24.7427 32.0131 24.9248 32.4638 25.2463 32.7994ZM32.896 32.4351C32.8711 32.4793 32.8493 32.5236 32.8276 32.5679C32.5788 33.1235 32.6367 33.7712 33.0016 34.4965C33.0838 34.6536 33.2408 34.7485 33.4078 34.7525C33.4858 34.7543 33.5593 34.7401 33.6335 34.7003C33.8639 34.5825 33.9534 34.2983 33.8364 34.0668C33.6067 33.615 33.5551 33.241 33.6795 32.9608C33.8728 32.5271 34.4432 32.3726 34.4512 32.3696C34.7012 32.3019 34.8505 32.0479 34.7864 31.7952C34.7223 31.5441 34.4696 31.3942 34.2198 31.4538C34.1958 31.4613 33.8914 31.5404 33.5568 31.7533C33.3643 31.6175 33.0859 31.3406 33.2576 30.9479C33.3603 30.7088 33.2539 30.4311 33.0159 30.3279C32.778 30.2247 32.5017 30.3317 32.3989 30.5708C32.0318 31.4196 32.4478 32.0694 32.896 32.4351ZM26.7116 31.8263C26.7304 31.9051 26.9175 32.6086 27.6224 32.9581C27.6429 32.9666 27.6586 32.9749 27.6791 32.9834C27.5762 33.5665 27.6883 34.3434 28.5064 34.8875C28.5831 34.939 28.6669 34.9649 28.7528 34.967C28.9071 34.9706 29.0649 34.896 29.1526 34.7557C29.2962 34.5383 29.2347 34.2457 29.0215 34.1063C28.5686 33.8044 28.5495 33.4024 28.6003 33.1381C28.9384 33.1141 29.3037 33.0156 29.6994 32.841C29.9343 32.7361 30.0427 32.4604 29.9386 32.2196C29.8344 31.9835 29.5599 31.8746 29.3203 31.9793C28.7846 32.2162 28.3441 32.2634 28.045 32.1219C27.7192 31.967 27.621 31.6079 27.6211 31.6047C27.5618 31.3538 27.3091 31.2006 27.0546 31.2602C26.8017 31.3166 26.6491 31.5753 26.7116 31.8263Z" fill="url(#paint2_linear_45_336)"/>
</g>
<defs>
<linearGradient id="paint0_linear_45_336" x1="72.5" y1="11" x2="-4.5" y2="39" gradientUnits="userSpaceOnUse">
<stop stop-color="#353333"/>
<stop offset="1" stop-color="#0E0D0D" stop-opacity="0"/>
</linearGradient>
<linearGradient id="paint1_linear_45_336" x1="47" y1="27.4999" x2="-23" y2="62.9999" gradientUnits="userSpaceOnUse">
<stop stop-color="#0E0D0D"/>
<stop offset="1" stop-color="#25201D"/>
</linearGradient>
<linearGradient id="paint2_linear_45_336" x1="29" y1="24.5" x2="59" y2="39" gradientUnits="userSpaceOnUse">
<stop stop-color="#1F1F1F"/>
<stop offset="1" stop-color="#0C0B0B"/>
</linearGradient>
<clipPath id="clip0_45_336">
<rect width="44.815" height="40.9421" fill="white" transform="matrix(-0.99972 -0.0236851 -0.0236851 0.99972 53.837 13.2408)"/>
</clipPath>
</defs>
</svg>
