<svg width="188" height="41" viewBox="0 0 188 41" fill="none" xmlns="http://www.w3.org/2000/svg">
<g clip-path="url(#clip0_38_115)">
<path fill-rule="evenodd" clip-rule="evenodd" d="M20.37 5.06651L23.007 0.499512L30.483 4.81651L27.847 9.38251C27.384 10.1835 28.077 11.1575 28.985 10.9825L34.037 10.0075L35.672 18.4845L30.62 19.4585C22.448 21.0345 16.209 12.2745 20.37 5.06651Z" fill="#F8F8F8"/>
<path fill-rule="evenodd" clip-rule="evenodd" d="M15.802 35.9326L13.165 40.4996L5.688 36.1836L8.325 31.6166C8.788 30.8156 8.095 29.8416 7.186 30.0166L2.135 30.9906L0.5 22.5146L5.552 21.5406C13.724 19.9646 19.962 28.7246 15.802 35.9326Z" fill="#F8F8F8"/>
<path fill-rule="evenodd" clip-rule="evenodd" d="M16.03 5.06651L13.394 0.499512L5.91701 4.81651L8.55401 9.38251C9.01601 10.1835 8.32401 11.1575 7.41501 10.9825L2.36301 10.0075L0.730011 18.4845L5.78101 19.4585C13.954 21.0345 20.193 12.2745 16.031 5.06651H16.03Z" fill="#F8F8F8"/>
<path fill-rule="evenodd" clip-rule="evenodd" d="M20.15 35.9326L22.785 40.4996L30.262 36.1836L27.625 31.6166C27.163 30.8156 27.855 29.8416 28.764 30.0166L33.815 30.9906L35.45 22.5146L30.398 21.5406C22.226 19.9646 15.988 28.7246 20.148 35.9326H20.15Z" fill="#F8F8F8"/>
<path d="M163.614 30.6525V22.1525C163.614 20.9745 163.885 19.9175 164.427 18.9825C164.988 18.0285 165.783 17.2805 166.812 16.7375C167.841 16.1955 169.066 15.9245 170.487 15.9245C171.15 15.918 171.811 16.0028 172.451 16.1765C173.05 16.3265 173.592 16.5415 174.078 16.8215C174.583 17.0835 175.013 17.4015 175.369 17.7755H175.425C175.806 17.3962 176.241 17.0747 176.715 16.8215C177.236 16.5347 177.793 16.3178 178.371 16.1765C179.021 16.0041 179.691 15.9193 180.363 15.9245C181.784 15.9245 183.009 16.1945 184.038 16.7375C185.066 17.2805 185.861 18.0275 186.422 18.9825C186.984 19.9175 187.264 20.9735 187.264 22.1525V30.6525H182.887V22.2925C182.887 21.8255 182.766 21.4045 182.523 21.0305C182.3 20.6393 181.981 20.3111 181.597 20.0765C181.192 19.8299 180.724 19.7033 180.25 19.7115C179.745 19.7115 179.287 19.8335 178.876 20.0765C178.491 20.3108 178.173 20.6391 177.95 21.0305C177.723 21.4119 177.606 21.8488 177.613 22.2925V30.6525H173.265V22.2925C173.265 21.8255 173.143 21.4045 172.9 21.0305C172.672 20.6337 172.343 20.3045 171.946 20.0765C171.541 19.8299 171.073 19.7033 170.599 19.7115C170.094 19.7115 169.636 19.8335 169.225 20.0765C168.84 20.3108 168.522 20.6391 168.299 21.0305C168.073 21.4121 167.956 21.8488 167.962 22.2925V30.6525H163.614ZM154.103 30.9895C152.626 30.9895 151.344 30.7095 150.26 30.1475C149.194 29.5675 148.371 28.7915 147.791 27.8195C147.211 26.8285 146.921 25.7335 146.921 24.5365V16.2605H151.27V24.4245C151.27 24.9295 151.391 25.3975 151.634 25.8275C151.877 26.2385 152.205 26.5755 152.616 26.8375C153.046 27.0805 153.533 27.2025 154.075 27.2025C154.599 27.2025 155.066 27.0805 155.478 26.8375C155.908 26.5755 156.245 26.2385 156.488 25.8275C156.731 25.3975 156.853 24.9295 156.853 24.4245V16.2605H161.201V24.5365C161.201 25.7335 160.92 26.8285 160.359 27.8195C159.798 28.7915 158.985 29.5685 157.919 30.1475C156.871 30.7085 155.599 30.9895 154.103 30.9895ZM132.914 30.6525V27.2025H139.844C140.031 27.2025 140.199 27.1645 140.349 27.0895C140.498 26.9965 140.62 26.8745 140.713 26.7255C140.805 26.5781 140.853 26.4081 140.853 26.2345C140.853 26.061 140.805 25.8909 140.713 25.7435C140.626 25.5993 140.499 25.4825 140.349 25.4065C140.197 25.3126 140.022 25.264 139.844 25.2665H137.319C136.383 25.2665 135.532 25.1165 134.766 24.8175C134.038 24.5161 133.414 24.0091 132.97 23.3585C132.54 22.6855 132.325 21.8155 132.325 20.7495C132.325 19.9265 132.521 19.1785 132.914 18.5055C133.323 17.8346 133.891 17.2753 134.569 16.8775C135.276 16.4671 136.08 16.254 136.898 16.2605H143.827V19.7395H137.571C137.323 19.7345 137.082 19.8251 136.898 19.9925C136.816 20.0727 136.751 20.1688 136.708 20.2749C136.664 20.381 136.643 20.4949 136.645 20.6095C136.645 20.8715 136.73 21.0955 136.898 21.2825C137.082 21.4499 137.323 21.5405 137.571 21.5355H140.04C141.087 21.5355 141.985 21.6945 142.733 22.0115C143.5 22.3115 144.089 22.7975 144.501 23.4715C144.931 24.1445 145.146 25.0135 145.146 26.0795C145.146 26.9215 144.931 27.6885 144.501 28.3795C144.093 29.0683 143.513 29.639 142.817 30.0355C142.125 30.4475 141.34 30.6525 140.461 30.6525H132.914ZM123.44 15.9245C124.656 15.9245 125.731 16.1205 126.666 16.5135C127.584 16.8637 128.41 17.4203 129.079 18.1405C129.761 18.8461 130.287 19.6874 130.622 20.6095C130.977 21.5445 131.155 22.5825 131.155 23.7235C131.155 25.1445 130.856 26.4075 130.257 27.5105C129.704 28.5676 128.869 29.4511 127.845 30.0635C126.816 30.6805 125.619 30.9895 124.254 30.9895C123.674 30.9895 123.122 30.9145 122.598 30.7655C122.102 30.6196 121.629 30.402 121.196 30.1195C120.787 29.8423 120.435 29.4901 120.158 29.0815H120.073V36.7415H115.725V23.7225C115.725 22.1325 116.043 20.7575 116.679 19.5985C117.296 18.4577 118.231 17.5215 119.372 16.9045C120.532 16.2505 121.888 15.9235 123.44 15.9235V15.9245ZM123.44 19.6835C122.767 19.6835 122.178 19.8515 121.673 20.1885C121.186 20.5065 120.812 20.9555 120.55 21.5355C120.289 22.0955 120.158 22.7325 120.158 23.4425C120.158 24.1535 120.289 24.7895 120.55 25.3505C120.812 25.9115 121.186 26.3605 121.673 26.6975C122.178 27.0155 122.767 27.1745 123.44 27.1745C124.113 27.1745 124.693 27.0145 125.179 26.6975C125.668 26.3581 126.056 25.8927 126.302 25.3505C126.582 24.7895 126.722 24.1535 126.722 23.4425C126.722 22.7325 126.582 22.0965 126.302 21.5355C126.04 20.9555 125.666 20.5055 125.179 20.1885C124.693 19.8515 124.113 19.6835 123.44 19.6835ZM109.117 30.6525V16.2605H113.494V30.6525H109.117ZM111.305 14.6335C110.613 14.6335 110.015 14.3815 109.51 13.8765C109.005 13.3715 108.752 12.7725 108.752 12.0805C108.752 11.3885 109.005 10.7905 109.51 10.2855C110.015 9.76151 110.613 9.49951 111.305 9.49951C111.997 9.49951 112.596 9.76151 113.101 10.2855C113.606 10.7905 113.858 11.3885 113.858 12.0805C113.858 12.7725 113.606 13.3705 113.101 13.8765C112.596 14.3815 111.997 14.6335 111.305 14.6335ZM99.605 30.9895C98.128 30.9895 96.8 30.6625 95.621 30.0075C94.4644 29.3735 93.4966 28.4443 92.816 27.3145C92.143 26.1735 91.806 24.8925 91.806 23.4705C91.806 22.0305 92.143 20.7495 92.816 19.6275C93.4966 18.4977 94.4644 17.5685 95.621 16.9345C96.8 16.2605 98.128 15.9245 99.605 15.9245C101.083 15.9245 102.401 16.2605 103.561 16.9345C104.713 17.5641 105.673 18.4949 106.338 19.6275C107.03 20.7495 107.376 22.0305 107.376 23.4705C107.376 24.8925 107.03 26.1735 106.338 27.3145C105.673 28.4471 104.713 29.3779 103.561 30.0075C102.383 30.6625 101.064 30.9895 99.605 30.9895ZM99.605 27.2025C100.297 27.2025 100.896 27.0335 101.401 26.6975C101.906 26.3609 102.313 25.896 102.579 25.3505C102.86 24.7895 103 24.1535 103 23.4425C103 22.7505 102.86 22.1245 102.579 21.5625C102.313 21.0174 101.906 20.5528 101.401 20.2165C100.896 19.8795 100.297 19.7115 99.605 19.7115C98.913 19.7115 98.305 19.8795 97.782 20.2165C97.2766 20.5532 96.8697 21.018 96.603 21.5635C96.3172 22.1485 96.1734 22.7926 96.183 23.4435C96.183 24.1535 96.323 24.7895 96.603 25.3505C96.8698 25.896 97.2767 26.3608 97.782 26.6975C98.305 27.0335 98.913 27.2025 99.605 27.2025ZM77.674 36.3485V32.6165H84.855C85.136 32.6165 85.37 32.5235 85.557 32.3365C85.6482 32.2559 85.7205 32.1563 85.7689 32.0447C85.8173 31.933 85.8405 31.8121 85.837 31.6905V28.5205H85.753C85.3978 28.9336 84.9927 29.3011 84.547 29.6145C84.135 29.9145 83.667 30.1385 83.144 30.2885C82.5874 30.4449 82.0111 30.5204 81.433 30.5125C80.161 30.5125 79.02 30.2125 78.01 29.6145C77.019 28.9975 76.233 28.1465 75.653 27.0615C75.093 25.9775 74.812 24.7425 74.812 23.3585C74.812 21.9935 75.102 20.7495 75.682 19.6275C76.28 18.5055 77.15 17.6075 78.291 16.9345C79.431 16.2605 80.825 15.9245 82.471 15.9245C84.042 15.9245 85.398 16.2515 86.539 16.9065C87.6848 17.5284 88.6215 18.4746 89.232 19.6265C89.868 20.7865 90.186 22.1525 90.186 23.7235V32.1395C90.186 33.4295 89.803 34.4495 89.036 35.1975C88.288 35.9645 87.25 36.3475 85.922 36.3475L77.674 36.3485ZM82.499 26.8655C83.172 26.8655 83.752 26.7155 84.239 26.4165C84.7195 26.1045 85.1068 25.6685 85.36 25.1545C85.626 24.6135 85.7606 24.0173 85.753 23.4145C85.753 22.7415 85.623 22.1245 85.361 21.5635C85.099 21.0025 84.725 20.5625 84.238 20.2445C83.752 19.9075 83.172 19.7395 82.498 19.7395C81.844 19.7395 81.264 19.8985 80.759 20.2165C80.273 20.5345 79.899 20.9645 79.637 21.5065C79.376 22.0495 79.245 22.6565 79.245 23.3305C79.245 23.9855 79.375 24.5835 79.637 25.1265C79.899 25.6495 80.273 26.0705 80.76 26.3885C81.264 26.7065 81.844 26.8655 82.499 26.8655ZM65.973 30.9895C64.496 30.9895 63.168 30.6625 61.99 30.0075C60.833 29.3737 59.8648 28.4445 59.184 27.3145C58.511 26.1735 58.174 24.8925 58.174 23.4705C58.174 22.0305 58.511 20.7495 59.184 19.6275C59.8648 18.4975 60.833 17.5683 61.99 16.9345C63.168 16.2605 64.496 15.9245 65.973 15.9245C67.451 15.9245 68.769 16.2605 69.929 16.9345C71.0814 17.5642 72.0412 18.495 72.706 19.6275C73.398 20.7495 73.744 22.0305 73.744 23.4705C73.744 24.8925 73.398 26.1735 72.706 27.3145C72.0412 28.4471 71.0814 29.3778 69.929 30.0075C68.751 30.6625 67.432 30.9895 65.973 30.9895ZM65.973 27.2025C66.665 27.2025 67.263 27.0335 67.769 26.6975C68.2739 26.3607 68.6804 25.8958 68.947 25.3505C69.227 24.7895 69.367 24.1535 69.367 23.4425C69.367 22.7505 69.227 22.1245 68.947 21.5625C68.6803 21.0175 68.2738 20.5531 67.769 20.2165C67.264 19.8795 66.665 19.7115 65.973 19.7115C65.281 19.7115 64.673 19.8795 64.15 20.2165C63.6446 20.5532 63.2377 21.018 62.971 21.5635C62.6853 22.1485 62.5414 22.7926 62.551 23.4435C62.551 24.1535 62.691 24.7895 62.971 25.3505C63.2378 25.896 63.6447 26.3608 64.15 26.6975C64.673 27.0335 65.281 27.2025 65.973 27.2025ZM52.047 30.6525C50.831 30.6525 49.765 30.3825 48.849 29.8395C47.9581 29.3229 47.2219 28.5771 46.717 27.6795C46.212 26.7815 45.959 25.7895 45.959 24.7055V11.0145H50.672V25.0415C50.672 25.4915 50.832 25.8835 51.149 26.2205C51.467 26.5565 51.859 26.7255 52.327 26.7255H57.517V30.6525H52.047Z" fill="#F8F8F8"/>
</g>
<defs>
<clipPath id="clip0_38_115">
<rect width="187" height="40" fill="white" transform="translate(0.5 0.499512)"/>
</clipPath>
</defs>
</svg>
