<svg width="62" height="60" viewBox="0 0 62 60" fill="none" xmlns="http://www.w3.org/2000/svg">
<mask id="path-1-inside-1_2001_2163" fill="white">
<path fill-rule="evenodd" clip-rule="evenodd" d="M16.9375 30C24.704 30 31 23.704 31 15.9375C31 23.704 37.296 30 45.0625 30C37.296 30 31 36.296 31 44.0625C31 36.296 24.704 30 16.9375 30ZM16.9375 30C9.17099 30 2.875 36.296 2.875 44.0625C2.875 51.829 9.17099 58.125 16.9375 58.125H31V44.0625C31 51.829 37.296 58.125 45.0625 58.125C52.829 58.125 59.125 51.829 59.125 44.0625V30H45.0625C52.829 30 59.125 23.704 59.125 15.9375C59.125 8.17099 52.829 1.875 45.0625 1.875H31V15.9375C31 8.17099 24.704 1.875 16.9375 1.875C9.17099 1.875 2.875 8.17099 2.875 15.9375V30H16.9375Z"/>
</mask>
<path fill-rule="evenodd" clip-rule="evenodd" d="M16.9375 30C24.704 30 31 23.704 31 15.9375C31 23.704 37.296 30 45.0625 30C37.296 30 31 36.296 31 44.0625C31 36.296 24.704 30 16.9375 30ZM16.9375 30C9.17099 30 2.875 36.296 2.875 44.0625C2.875 51.829 9.17099 58.125 16.9375 58.125H31V44.0625C31 51.829 37.296 58.125 45.0625 58.125C52.829 58.125 59.125 51.829 59.125 44.0625V30H45.0625C52.829 30 59.125 23.704 59.125 15.9375C59.125 8.17099 52.829 1.875 45.0625 1.875H31V15.9375C31 8.17099 24.704 1.875 16.9375 1.875C9.17099 1.875 2.875 8.17099 2.875 15.9375V30H16.9375Z" fill="url(#paint0_linear_2001_2163)"/>
<path d="M31 58.125V59.125H32V58.125H31ZM59.125 30H60.125V29H59.125V30ZM31 1.875V0.875H30V1.875H31ZM2.875 30H1.875V31H2.875V30ZM30 15.9375C30 23.1517 24.1517 29 16.9375 29V31C25.2563 31 32 24.2563 32 15.9375H30ZM30 15.9375C30 24.2563 36.7437 31 45.0625 31V29C37.8483 29 32 23.1517 32 15.9375H30ZM45.0625 29C36.7437 29 30 35.7437 30 44.0625H32C32 36.8483 37.8483 31 45.0625 31V29ZM32 44.0625C32 35.7437 25.2563 29 16.9375 29V31C24.1517 31 30 36.8483 30 44.0625H32ZM16.9375 29C8.6187 29 1.875 35.7437 1.875 44.0625H3.875C3.875 36.8483 9.72327 31 16.9375 31V29ZM1.875 44.0625C1.875 52.3813 8.6187 59.125 16.9375 59.125V57.125C9.72327 57.125 3.875 51.2767 3.875 44.0625H1.875ZM16.9375 59.125H31V57.125H16.9375V59.125ZM32 58.125V44.0625H30V58.125H32ZM30 44.0625C30 52.3813 36.7437 59.125 45.0625 59.125V57.125C37.8483 57.125 32 51.2767 32 44.0625H30ZM45.0625 59.125C53.3813 59.125 60.125 52.3813 60.125 44.0625H58.125C58.125 51.2767 52.2767 57.125 45.0625 57.125V59.125ZM60.125 44.0625V30H58.125V44.0625H60.125ZM59.125 29H45.0625V31H59.125V29ZM45.0625 31C53.3813 31 60.125 24.2563 60.125 15.9375H58.125C58.125 23.1517 52.2767 29 45.0625 29V31ZM60.125 15.9375C60.125 7.6187 53.3813 0.875 45.0625 0.875V2.875C52.2767 2.875 58.125 8.72327 58.125 15.9375H60.125ZM45.0625 0.875H31V2.875H45.0625V0.875ZM30 1.875V15.9375H32V1.875H30ZM16.9375 2.875C24.1517 2.875 30 8.72327 30 15.9375H32C32 7.6187 25.2563 0.875 16.9375 0.875V2.875ZM3.875 15.9375C3.875 8.72327 9.72327 2.875 16.9375 2.875V0.875C8.6187 0.875 1.875 7.6187 1.875 15.9375H3.875ZM3.875 30V15.9375H1.875V30H3.875ZM16.9375 29H2.875V31H16.9375V29Z" fill="url(#paint1_linear_2001_2163)" mask="url(#path-1-inside-1_2001_2163)"/>
<defs>
<linearGradient id="paint0_linear_2001_2163" x1="31" y1="1.875" x2="31" y2="58.125" gradientUnits="userSpaceOnUse">
<stop stop-color="#FFA21F"/>
<stop offset="1" stop-color="#FF6115"/>
</linearGradient>
<linearGradient id="paint1_linear_2001_2163" x1="31" y1="1.875" x2="31" y2="58.125" gradientUnits="userSpaceOnUse">
<stop stop-color="#FFA21F"/>
<stop offset="1" stop-color="#FF6115"/>
</linearGradient>
</defs>
</svg>
