<svg width="100" height="100" viewBox="0 0 100 100" fill="none" xmlns="http://www.w3.org/2000/svg">
<ellipse cx="32.6014" cy="31.8559" rx="32.6014" ry="31.8559" transform="matrix(-0.533473 -0.845817 -0.845817 0.533473 93.8823 60.2403)" fill="url(#paint0_linear_45_353)"/>
<g clip-path="url(#clip0_45_353)">
<path d="M31.7882 55.5693C32.5588 55.0046 33.5959 55.0748 34.294 55.6704L38.8629 52.3239L37.0219 49.8118L33.529 52.3717C33.3229 52.5227 33.0292 52.479 32.8756 52.2694L31.5483 50.4583C30.7049 50.8135 29.6953 50.5608 29.1288 49.7878C28.4652 48.8823 28.6577 47.6122 29.5588 46.9518C30.4599 46.2914 31.729 46.4902 32.3927 47.3957C32.9602 48.1701 32.8949 49.2085 32.3035 49.9048L33.3555 51.3403L36.4721 49.0562L34.8168 46.7975C34.0956 45.8135 34.3045 44.4287 35.2849 43.7101L37.5325 42.0629L34.7858 38.3205L26.1935 44.6177C26.5521 45.4641 26.3045 46.4739 25.5353 47.0377C24.6342 47.6981 23.3651 47.4992 22.7015 46.5937C22.0378 45.6882 22.2304 44.4181 23.1315 43.7577C23.902 43.193 24.9391 43.2633 25.6373 43.8588L34.6067 37.2872C34.8128 37.1362 35.1065 37.1799 35.2601 37.3896L38.2796 41.5095L40.7793 39.6775L37.4163 35.0861C36.5728 35.4413 35.5633 35.1886 34.9968 34.4156C34.3331 33.51 34.5257 32.2399 35.4268 31.5796C36.3279 30.9192 37.597 31.118 38.2606 32.0235C38.8281 32.7979 38.7628 33.8362 38.1715 34.5326L41.5358 39.1231L44.0355 37.2911L41.4636 33.7845C41.3118 33.5775 41.3541 33.2835 41.5628 33.1306L43.3649 31.8099C43.0063 30.9635 43.2538 29.9537 44.0231 29.3899C44.9241 28.7295 46.1933 28.9284 46.8569 29.8339C47.5206 30.7394 47.328 32.0095 46.4269 32.6699C45.6564 33.2346 44.6192 33.1643 43.9211 32.5688L42.4927 33.6156L44.7881 36.7477L47.0357 35.1005C48.0148 34.3828 49.3986 34.5985 50.1207 35.5838L51.7761 37.8424L55.4987 35.1102L49.1687 26.4731C48.3253 26.8283 47.3158 26.5756 46.7493 25.8026C46.0856 24.8971 46.2782 23.627 47.1793 22.9666C48.0803 22.3062 49.3495 22.5051 50.0131 23.4106C50.5806 24.1849 50.5153 25.2233 49.9239 25.9197L56.5293 34.9324C56.681 35.1395 56.6387 35.4335 56.4301 35.5864L52.3304 38.591L54.1714 41.103L58.7394 37.7573C58.3808 36.9109 58.6283 35.9011 59.3975 35.3373C60.2986 34.6769 61.5677 34.8758 62.2314 35.7813C62.895 36.6868 62.7025 37.9569 61.8014 38.6173C61.0309 39.182 59.9937 39.1117 59.2956 38.5162L54.7276 41.864L56.5687 44.376L60.058 41.8168C60.2641 41.6657 60.5578 41.7095 60.7114 41.9191L62.0387 43.7302C62.8821 43.375 63.8917 43.6277 64.4582 44.4007C65.1218 45.3062 64.9293 46.5763 64.0282 47.2367C63.1271 47.8971 61.858 47.6983 61.1943 46.7928C60.6268 46.0184 60.6921 44.98 61.2835 44.2837L60.2315 42.8482L57.1148 45.1323L58.7702 47.391C59.4914 48.375 59.2825 49.7598 58.3021 50.4784L56.0545 52.1256L58.7957 55.8659L67.393 49.5651C67.0344 48.7187 67.2819 47.7089 68.0511 47.1451C68.9522 46.4848 70.2214 46.6836 70.885 47.5891C71.5486 48.4946 71.3561 49.7647 70.455 50.4251C69.6845 50.9898 68.6473 50.9196 67.9492 50.324L58.9807 56.8969C58.7746 57.0479 58.4809 57.0042 58.3273 56.7945L55.3088 52.6759L52.8091 54.5079L56.1721 59.0993C57.0155 58.7442 58.025 58.9968 58.5916 59.7699C59.2552 60.6754 59.0627 61.9455 58.1616 62.6059C57.2605 63.2662 55.9914 63.0674 55.3277 62.1619C54.7602 61.3876 54.8255 60.3492 55.4169 59.6528L52.0551 55.0604L49.5554 56.8924L52.128 60.4026C52.2797 60.6097 52.2374 60.9036 52.0288 61.0565L50.2267 62.3773C50.5853 63.2236 50.3377 64.2335 49.5685 64.7972C48.6674 65.4576 47.3983 65.2588 46.7346 64.3532C46.071 63.4477 46.2636 62.1776 47.1647 61.5172C47.9352 60.9525 48.9723 61.0228 49.6705 61.6183L51.0989 60.5715L48.8035 57.4394L46.5559 59.0867C45.5767 59.8043 44.193 59.5886 43.4709 58.6033L41.8155 56.3447L38.0936 59.0724L44.4223 67.7104C45.2657 67.3552 46.2752 67.6079 46.8418 68.3809C47.5054 69.2865 47.3129 70.5566 46.4118 71.2169C45.5107 71.8773 44.2416 71.6785 43.5779 70.773C43.0104 69.9986 43.0757 68.9603 43.6671 68.2639L37.063 59.2502C36.9113 59.0431 36.9536 58.7492 37.1622 58.5963L41.2593 55.5936L39.4182 53.0815L34.8493 56.428C35.208 57.2744 34.9604 58.2842 34.1912 58.848C33.2901 59.5083 32.021 59.3095 31.3573 58.404C30.6946 57.4997 30.8872 56.2297 31.7882 55.5693ZM31.6377 47.9412C31.2804 47.4536 30.5981 47.3467 30.113 47.7023C29.6279 48.0578 29.5243 48.7407 29.8816 49.2282C30.2389 49.7157 30.9212 49.8226 31.4063 49.467C31.8904 49.1182 31.995 48.4287 31.6377 47.9412ZM23.6869 44.5153C23.2018 44.8708 23.0983 45.5537 23.4556 46.0412C23.8128 46.5287 24.4952 46.6356 24.9803 46.2801C25.4654 45.9245 25.5689 45.2417 25.2116 44.7542C24.8543 44.2667 24.1682 44.1626 23.6869 44.5153ZM37.5057 32.5767C37.1484 32.0892 36.4661 31.9823 35.981 32.3378C35.4959 32.6933 35.3923 33.3762 35.7496 33.8637C36.1069 34.3512 36.7892 34.4581 37.2743 34.1025C37.7594 33.747 37.8601 33.0603 37.5057 32.5767ZM45.8759 31.9092C46.361 31.5536 46.4645 30.8708 46.1072 30.3833C45.7499 29.8958 45.0676 29.7889 44.5825 30.1444C44.0974 30.4999 43.9938 31.1828 44.3511 31.6703C44.7075 32.1565 45.3907 32.2647 45.8759 31.9092ZM49.2593 23.9626C48.902 23.4751 48.2197 23.3682 47.7346 23.7237C47.2495 24.0792 47.1459 24.7621 47.5032 25.2496C47.8605 25.7371 48.5428 25.844 49.0279 25.4885C49.513 25.1329 49.6138 24.4462 49.2593 23.9626ZM61.2453 37.8581C61.7304 37.5026 61.8339 36.8197 61.4767 36.3322C61.1194 35.8447 60.437 35.7378 59.9519 36.0934C59.4668 36.4489 59.3633 37.1317 59.7206 37.6192C60.0779 38.1067 60.764 38.2108 61.2453 37.8581ZM61.9511 46.2439C62.3084 46.7314 62.9908 46.8383 63.4759 46.4828C63.961 46.1273 64.0645 45.4444 63.7072 44.9569C63.3499 44.4694 62.6676 44.3625 62.1825 44.718C61.6984 45.0669 61.5939 45.7564 61.9511 46.2439ZM69.9019 49.6698C70.387 49.3142 70.4906 48.6314 70.1333 48.1439C69.776 47.6564 69.0937 47.5495 68.6086 47.905C68.1234 48.2605 68.0199 48.9434 68.3772 49.4309C68.7345 49.9184 69.4206 50.0225 69.9019 49.6698ZM56.0831 61.6084C56.4404 62.0959 57.1228 62.2028 57.6079 61.8473C58.093 61.4918 58.1965 60.8089 57.8392 60.3214C57.4819 59.8339 56.7996 59.727 56.3145 60.0825C55.8294 60.4381 55.7287 61.1248 56.0831 61.6084ZM47.713 62.2759C47.2279 62.6314 47.1243 63.3143 47.4816 63.8018C47.8389 64.2893 48.5212 64.3962 49.0063 64.0407C49.4914 63.6851 49.595 63.0023 49.2377 62.5148C48.8814 62.0286 48.1981 61.9204 47.713 62.2759ZM44.2238 58.0573C44.6386 58.6233 45.4352 58.7492 45.9997 58.3355L57.755 49.7182C58.3181 49.3055 58.4402 48.5083 58.0244 47.941L49.3646 36.1277C48.9498 35.5617 48.1532 35.4358 47.5887 35.8495L35.8325 44.4655C35.2693 44.8782 35.1473 45.6754 35.563 46.2427L44.2238 58.0573ZM44.3295 70.2225C44.6868 70.71 45.3691 70.8169 45.8542 70.4614C46.3393 70.1059 46.4429 69.423 46.0856 68.9355C45.7283 68.448 45.046 68.3411 44.5609 68.6966C44.0758 69.0522 43.9751 69.7389 44.3295 70.2225ZM33.637 58.0919C34.1221 57.7364 34.2257 57.0536 33.8684 56.5661C33.5111 56.0786 32.8288 55.9717 32.3437 56.3272C31.8585 56.6827 31.755 57.3656 32.1123 57.8531C32.4696 58.3406 33.1519 58.4475 33.637 58.0919ZM40.0525 47.0693C40.027 47.0426 40.0053 47.013 39.9808 46.9795C39.3728 46.1499 39.5498 44.9822 40.3754 44.3771C40.4112 44.3509 40.4509 44.3218 40.4896 44.2994C40.3232 43.5355 40.6051 42.7121 41.2732 42.2224C41.7877 41.8453 42.4177 41.7573 42.9903 41.9051C43.02 41.312 43.2955 40.7403 43.81 40.3632C44.4782 39.8735 45.3495 39.8518 46.0265 40.2414C46.0596 40.2113 46.0992 40.1822 46.1351 40.1559C46.9606 39.5509 48.1275 39.7337 48.7355 40.5633C48.7572 40.5929 48.7789 40.6225 48.7996 40.6587C49.8544 40.372 51.0113 40.7639 51.6777 41.6732C52.1293 42.2894 52.2956 43.0532 52.149 43.7874C52.38 43.9226 52.5812 44.1033 52.7434 44.3246C53.2185 44.9729 53.2391 45.8198 52.8402 46.47C53.0965 46.7231 53.2828 47.0471 53.3614 47.4147C53.4848 47.9965 53.3193 48.6002 52.9353 49.0319C53.5261 49.9749 53.2974 51.2359 52.3886 51.9019C51.8382 52.3053 51.1599 52.3971 50.5455 52.2246C50.5251 52.8624 50.2332 53.4816 49.6828 53.885C48.7715 54.5528 47.5069 54.3923 46.7814 53.542C46.2506 53.7788 45.6273 53.7551 45.1109 53.4613C44.7841 53.2758 44.5258 52.9985 44.367 52.6798C43.6285 52.8613 42.8226 52.5859 42.3503 51.9415C42.1882 51.7203 42.0778 51.473 42.0171 51.213C41.2754 51.1298 40.5917 50.7392 40.143 50.1269C39.4868 49.21 39.4618 47.9867 40.0525 47.0693ZM51.8414 51.1422C52.379 50.7483 52.4947 49.9853 52.0988 49.4451C51.9084 49.1853 51.6281 49.015 51.3129 48.9633C51.0573 48.9233 50.8835 48.6809 50.9236 48.4241C50.9425 48.2996 51.0147 48.1913 51.1094 48.1219C51.2079 48.0497 51.329 48.0163 51.4602 48.0368C51.7586 48.087 52.0394 48.1936 52.286 48.3529C52.4487 48.1427 52.5144 47.8672 52.4595 47.5991C52.3556 47.1137 51.9193 46.862 51.5406 46.8608C51.2808 46.8633 51.0716 46.6529 51.0684 46.3962C51.0646 46.136 51.2737 45.9274 51.53 45.9254C51.7055 45.9233 51.8792 45.9483 52.0442 45.9935C52.2614 45.6563 52.2532 45.2076 52.0043 44.868C51.8479 44.6545 51.6161 44.51 51.3512 44.4708C51.249 44.4548 51.162 44.4731 51.0763 44.5359C50.8702 44.6869 50.5765 44.6432 50.4228 44.4335C50.2682 44.2226 50.3134 43.9325 50.522 43.7796C50.7421 43.6183 50.9906 43.5331 51.2532 43.5264C51.3249 43.0686 51.2111 42.5964 50.9311 42.2144C50.5059 41.6343 49.7747 41.3774 49.0988 41.5425C49.119 41.852 49.0623 42.1664 48.9227 42.4565C48.8123 42.6897 48.531 42.7891 48.3008 42.679C48.0674 42.5673 47.9669 42.2852 48.0757 42.0551C48.2214 41.7466 48.1861 41.387 47.9834 41.1105C47.6893 40.7091 47.1305 40.6125 46.7215 40.8866C46.9331 41.2021 47.0513 41.5702 47.0639 41.9524C47.0715 42.2098 46.8725 42.4268 46.6117 42.4361C46.3548 42.4425 46.1371 42.2422 46.1267 41.9809C46.1194 41.7589 46.0475 41.5427 45.9127 41.3588C45.5507 40.8648 44.8572 40.7562 44.3657 41.1164C43.8742 41.4766 43.769 42.1706 44.131 42.6646L48.407 48.4991C48.5114 48.4483 48.6161 48.3656 48.6275 48.298C48.6749 48.0458 48.9189 47.8768 49.1728 47.928C49.4249 47.9765 49.5947 48.2218 49.5448 48.4758C49.4828 48.81 49.2754 49.0371 49.0668 49.19C49.031 49.2162 48.9949 49.2368 48.961 49.2576L50.1412 50.868C50.5415 51.4169 51.3013 51.5381 51.8414 51.1422ZM42.0584 50.2654C42.1429 50.0156 42.2999 49.8057 42.5201 49.6443C42.7261 49.4933 43.0198 49.5371 43.1735 49.7467C43.3281 49.9577 43.2829 50.2477 43.0743 50.4006C42.9886 50.4635 42.9422 50.5371 42.9295 50.6432C42.8897 50.9057 42.9541 51.1708 43.1116 51.3856C43.3604 51.7252 43.7872 51.8672 44.1728 51.7625C44.1794 51.5916 44.2098 51.4211 44.2627 51.2517C44.3409 51.0067 44.6056 50.8739 44.8507 50.9533C45.0977 51.0353 45.2296 51.2984 45.1514 51.5435C45.0319 51.904 45.1434 52.3996 45.5788 52.642C45.818 52.7752 46.0992 52.7964 46.3499 52.7036C46.2716 52.417 46.2523 52.1168 46.2972 51.821C46.336 51.5652 46.5727 51.3916 46.8255 51.4278C47.0811 51.4679 47.2555 51.7058 47.2225 51.9614C47.1742 52.2794 47.2567 52.5986 47.4452 52.8559C47.8411 53.3961 48.6035 53.5155 49.1411 53.1216C49.6787 52.7276 49.7943 51.9646 49.3984 51.4244L44.7405 45.0689C44.6087 45.3079 44.4232 45.5486 44.1634 45.7391C44.1275 45.7653 44.0917 45.7916 44.053 45.814C43.8347 45.9483 43.5444 45.8823 43.4092 45.663C43.2741 45.4438 43.3386 45.1533 43.5569 45.019C43.8657 44.8282 44.0325 44.4115 44.0942 44.1843L43.3825 43.2132C43.0205 42.7193 42.327 42.6106 41.8355 42.9709C41.344 43.3311 41.2388 44.0251 41.6008 44.519C41.7337 44.7004 41.9134 44.8355 42.1296 44.9104C42.3728 44.9952 42.504 45.2628 42.4176 45.51C42.3341 45.7531 42.0675 45.8833 41.8202 45.7956C41.4604 45.6698 41.1454 45.4439 40.9069 45.1481C40.5224 45.4556 40.4463 46.0176 40.7404 46.4189C40.9403 46.6915 41.278 46.8355 41.6135 46.7913C41.8691 46.7562 42.1069 46.9358 42.1406 47.1938C42.1769 47.45 41.9987 47.6874 41.7412 47.7199C41.4232 47.7612 41.1056 47.7251 40.8165 47.6126C40.4559 48.2051 40.4803 48.982 40.9055 49.5621C41.1822 49.9505 41.6002 50.1959 42.0584 50.2654ZM47.8806 45.3242C47.8878 45.3743 47.8976 45.4225 47.9074 45.4707C48.0488 46.061 48.4885 46.5375 49.218 46.8886C49.3786 46.9627 49.5603 46.9422 49.6947 46.8437C49.7574 46.7977 49.8069 46.7417 49.8412 46.6651C49.9517 46.432 49.8495 46.1529 49.6161 46.0412C49.1599 45.824 48.8916 45.56 48.8194 45.2629C48.7083 44.8026 49.065 44.3336 49.0695 44.3263C49.2258 44.1208 49.1893 43.8293 48.9849 43.6686C48.7816 43.5092 48.4906 43.5445 48.3296 43.7436C48.3151 43.7641 48.1228 44.0118 47.988 44.3834C47.7532 44.3934 47.3648 44.3439 47.2616 43.9292C47.1973 43.6778 46.9443 43.5231 46.6935 43.5863C46.4428 43.6495 46.2896 43.9022 46.3538 44.1536C46.5801 45.0476 47.304 45.3078 47.8806 45.3242ZM42.6241 48.6052C42.687 48.6561 43.2627 49.0981 44.0322 48.9453C44.0536 48.9396 44.0711 48.9366 44.0924 48.9309C44.3658 49.4542 44.927 49.9998 45.9043 49.9321C45.9963 49.926 46.0783 49.8955 46.1474 49.8449C46.2715 49.7539 46.3508 49.5989 46.3347 49.4347C46.316 49.1756 46.0894 48.9819 45.8361 49.0014C45.2946 49.0384 45.035 48.7324 44.9144 48.4927C45.1669 48.2681 45.3955 47.968 45.602 47.5893C45.7238 47.3636 45.6417 47.0798 45.4129 46.9529C45.187 46.8298 44.904 46.9107 44.7783 47.1392C44.4991 47.6522 44.1798 47.9574 43.8574 48.0276C43.5058 48.1035 43.2098 47.8795 43.2079 47.8769C43.0084 47.7147 42.7156 47.7474 42.5507 47.9493C42.3852 48.1477 42.422 48.4449 42.6241 48.6052Z" fill="url(#paint1_linear_45_353)"/>
</g>
<defs>
<linearGradient id="paint0_linear_45_353" x1="65.2029" y1="20.0026" x2="-4.46361" y2="31.627" gradientUnits="userSpaceOnUse">
<stop stop-color="#242424"/>
<stop offset="1" stop-color="#0E0D0D" stop-opacity="0"/>
</linearGradient>
<linearGradient id="paint1_linear_45_353" x1="35.4255" y1="31.5805" x2="58.1629" y2="62.6049" gradientUnits="userSpaceOnUse">
<stop stop-color="#2D2D2D"/>
<stop offset="1" stop-color="#0E0D0D"/>
</linearGradient>
<clipPath id="clip0_45_353">
<rect width="44.6864" height="40.8246" fill="white" transform="matrix(-0.806576 0.59113 0.59113 0.806576 52.7493 17.4204)"/>
</clipPath>
</defs>
</svg>
