<svg width="62" height="60" viewBox="0 0 62 60" fill="none" xmlns="http://www.w3.org/2000/svg">
<path fill-rule="evenodd" clip-rule="evenodd" d="M16.5625 30C24.329 30 30.625 23.704 30.625 15.9375C30.625 23.704 36.921 30 44.6875 30C36.921 30 30.625 36.296 30.625 44.0625C30.625 36.296 24.329 30 16.5625 30ZM16.5625 30C8.79599 30 2.5 36.296 2.5 44.0625C2.5 51.829 8.79599 58.125 16.5625 58.125H30.625V44.0625C30.625 51.829 36.921 58.125 44.6875 58.125C52.454 58.125 58.75 51.829 58.75 44.0625V30H44.6875C52.454 30 58.75 23.704 58.75 15.9375C58.75 8.17099 52.454 1.875 44.6875 1.875H30.625V15.9375C30.625 8.17099 24.329 1.875 16.5625 1.875C8.79599 1.875 2.5 8.17099 2.5 15.9375V30H16.5625Z" fill="#322F2D"/>
</svg>
