<svg width="96" height="65" viewBox="0 0 96 65" fill="none" xmlns="http://www.w3.org/2000/svg">
<path d="M95.3157 40.1818C95.3157 53.1438 89.5195 64.1615 76.317 64.1615C67.3006 64.1615 60.2164 58.3286 60.2164 48.9312C60.2164 40.8299 66.6566 34.3489 75.351 34.3489C77.9271 34.3489 80.5032 34.6729 83.0793 35.9691C82.1132 22.359 70.8428 11.3413 54.7421 10.0451V-0.000488281C81.7912 0.647613 95.3157 22.035 95.3157 40.1818ZM40.5736 40.1818C40.5736 53.1438 35.0994 64.1615 21.5748 64.1615C12.5585 64.1615 5.47421 58.3286 5.47421 48.9312C5.47421 40.8299 11.9145 34.3489 20.6088 34.3489C23.1849 34.3489 25.761 34.6729 28.3371 35.9691C27.3711 22.359 16.4226 11.3413 0 10.0451V-0.000488281C27.0491 0.647613 40.5736 22.035 40.5736 40.1818Z" fill="url(#paint0_linear_48_11)"/>
<defs>
<linearGradient id="paint0_linear_48_11" x1="47.6579" y1="-0.000488281" x2="47.6579" y2="64.1615" gradientUnits="userSpaceOnUse">
<stop stop-color="#252323"/>
<stop offset="1" stop-color="#171514"/>
</linearGradient>
</defs>
</svg>
