<svg width="163" height="162" viewBox="0 0 163 162" fill="none" xmlns="http://www.w3.org/2000/svg">
<path d="M33.1395 48.1557C15.4709 74.359 22.8784 110.277 49.7186 128.375C76.5587 146.474 112.635 139.876 130.303 113.672C147.972 87.469 140.564 51.5505 113.724 33.4525C86.884 15.3545 50.8081 21.9524 33.1395 48.1557Z" fill="url(#paint0_linear_45_332)" stroke="url(#paint1_linear_45_332)"/>
<g clip-path="url(#clip0_45_332)">
<path d="M56.342 83.732C57.6853 83.2989 59.1068 83.8802 59.8084 85.0402L67.7725 82.4749L66.3606 78.0956L60.2713 80.0589C59.9121 80.1747 59.5206 79.9767 59.4028 79.6112L58.3848 76.4539C57.0369 76.5593 55.739 75.7351 55.3045 74.3874C54.7956 72.8088 55.6568 71.1176 57.2277 70.6112C58.7986 70.1047 60.4855 70.9743 60.9945 72.5529C61.4297 73.9028 60.8548 75.3284 59.7014 76.0295L60.5082 78.5319L65.9415 76.7801L64.672 72.8426C64.1189 71.1271 65.0564 69.2827 66.7656 68.7316L70.6838 67.4683L68.5748 60.9423L53.5956 65.7718C53.7044 67.1255 52.8872 68.4262 51.5462 68.8585C49.9754 69.365 48.2884 68.4954 47.7795 66.9168C47.2705 65.3382 48.1318 63.647 49.7026 63.1405C51.0459 62.7074 52.4674 63.2888 53.169 64.4488L68.8047 59.41C69.1639 59.2942 69.5554 59.4923 69.6732 59.8578L71.989 67.0402L76.3468 65.6351L73.7688 57.6317C72.4208 57.7371 71.123 56.9128 70.6885 55.5652C70.1795 53.9866 71.0408 52.2954 72.6116 51.7889C74.1825 51.2824 75.8694 52.152 76.3784 53.7306C76.8136 55.0806 76.2387 56.5061 75.0853 57.2072L77.6655 65.2099L82.0233 63.8049L80.0496 57.6909C79.9332 57.3299 80.1294 56.9374 80.493 56.8202L83.6348 55.8072C83.5259 54.4536 84.3432 53.1529 85.6842 52.7205C87.255 52.214 88.942 53.0836 89.4509 54.6623C89.9599 56.2409 89.0986 57.9321 87.5278 58.4386C86.1845 58.8717 84.763 58.2903 84.0613 57.1303L81.5712 57.9332L83.3316 63.3933L87.2498 62.13C88.9568 61.5796 90.7966 62.5261 91.3505 64.2438L92.62 68.1814L99.1116 66.0834L94.2569 51.0263C92.909 51.1316 91.6111 50.3074 91.1766 48.9598C90.6676 47.3811 91.5289 45.6899 93.0998 45.1835C94.6706 44.677 96.3576 45.5466 96.8666 47.1252C97.3018 48.4751 96.7269 49.9007 95.5735 50.6018L100.639 66.3139C100.756 66.6749 100.56 67.0674 100.196 67.1846L93.0488 69.489L94.4608 73.8683L102.423 71.3036C102.314 69.9499 103.132 68.6492 104.473 68.2169C106.043 67.7104 107.73 68.58 108.239 70.1586C108.748 71.7372 107.887 73.4284 106.316 73.9349C104.973 74.368 103.551 73.7866 102.85 72.6266L94.8864 75.1942L96.2984 79.5735L102.382 77.6094C102.742 77.4936 103.133 77.6917 103.251 78.0571L104.269 81.2144C105.617 81.109 106.915 81.9333 107.349 83.2809C107.858 84.8595 106.997 86.5507 105.426 87.0572C103.855 87.5636 102.168 86.694 101.659 85.1154C101.224 83.7655 101.799 82.34 102.952 81.6389L102.145 79.1364L96.7121 80.8882L97.9816 84.8258C98.5347 86.5412 97.5972 88.3857 95.888 88.9367L91.9698 90.2001L94.0722 96.7206L109.06 91.8883C108.951 90.5346 109.768 89.2339 111.109 88.8016C112.68 88.2951 114.367 89.1647 114.876 90.7433C115.385 92.3219 114.524 94.0131 112.953 94.5196C111.61 94.9527 110.188 94.3714 109.486 93.2113L93.8515 98.2523C93.4923 98.3681 93.1008 98.1701 92.983 97.8046L90.668 90.6245L86.3102 92.0295L88.8882 100.033C90.2361 99.9276 91.534 100.752 91.9685 102.099C92.4775 103.678 91.6162 105.369 90.0453 105.876C88.4745 106.382 86.7875 105.513 86.2786 103.934C85.8433 102.584 86.4183 101.159 87.5717 100.457L84.9959 92.4533L80.6381 93.8583L82.6111 99.9776C82.7275 100.339 82.5313 100.731 82.1676 100.848L79.0259 101.861C79.1347 103.215 78.3175 104.516 76.9765 104.948C75.4056 105.454 73.7187 104.585 73.2097 103.006C72.7008 101.428 73.562 99.7364 75.1329 99.23C76.4762 98.7969 77.8977 99.3782 78.5993 100.538L81.0895 99.7354L79.3291 94.2752L75.4108 95.5386C73.7038 96.0889 71.864 95.1424 71.3102 93.4247L70.0407 89.4871L63.5522 91.5792L68.4046 106.637C69.7526 106.532 71.0504 107.356 71.4849 108.704C71.9939 110.282 71.1326 111.973 69.5618 112.48C67.9909 112.986 66.304 112.117 65.795 110.538C65.3598 109.188 65.9347 107.763 67.0881 107.062L62.0244 91.3487C61.908 90.9876 62.1042 90.5952 62.4679 90.4779L69.6104 88.175L68.1984 83.7957L60.2343 86.361C60.3431 87.7147 59.5259 89.0154 58.1849 89.4477C56.6141 89.9542 54.9271 89.0846 54.4181 87.506C53.9099 85.9296 54.7711 84.2384 56.342 83.732ZM59.682 72.9662C59.408 72.1163 58.501 71.6488 57.6553 71.9214C56.8097 72.1941 56.3466 73.1034 56.6206 73.9532C56.8946 74.8031 57.8016 75.2706 58.6473 74.998C59.4885 74.7342 59.956 73.816 59.682 72.9662ZM50.1287 64.4614C49.2831 64.734 48.82 65.6433 49.094 66.4932C49.368 67.343 50.275 67.8106 51.1207 67.5379C51.9664 67.2652 52.4294 66.356 52.1554 65.5061C51.8814 64.6562 50.9678 64.1908 50.1287 64.4614ZM75.0624 54.1548C74.7883 53.3049 73.8814 52.8374 73.0357 53.11C72.19 53.3827 71.7269 54.2919 72.001 55.1418C72.275 55.9917 73.1819 56.4592 74.0276 56.1865C74.8733 55.9139 75.3342 54.9979 75.0624 54.1548ZM87.1092 57.1154C87.9549 56.8427 88.418 55.9335 88.144 55.0836C87.87 54.2337 86.963 53.7662 86.1173 54.0389C85.2716 54.3115 84.8085 55.2208 85.0826 56.0706C85.3559 56.9183 86.2635 57.388 87.1092 57.1154ZM95.5527 47.5483C95.2786 46.6984 94.3717 46.2309 93.526 46.5035C92.6803 46.7762 92.2172 47.6855 92.4912 48.5353C92.7653 49.3852 93.6722 49.8527 94.5179 49.5801C95.3636 49.3074 95.8245 48.3914 95.5527 47.5483ZM105.89 72.6115C106.736 72.3389 107.199 71.4296 106.925 70.5798C106.651 69.7299 105.744 69.2624 104.898 69.535C104.052 69.8077 103.589 70.7169 103.863 71.5668C104.137 72.4167 105.051 72.8821 105.89 72.6115ZM102.976 84.6982C103.25 85.5481 104.157 86.0156 105.002 85.7429C105.848 85.4703 106.311 84.561 106.037 83.7111C105.763 82.8613 104.856 82.3937 104.01 82.6664C103.169 82.9302 102.702 83.8483 102.976 84.6982ZM112.529 93.203C113.375 92.9303 113.838 92.0211 113.564 91.1712C113.29 90.3214 112.383 89.8538 111.537 90.1265C110.691 90.3992 110.228 91.3084 110.502 92.1583C110.776 93.0082 111.69 93.4735 112.529 93.203ZM87.5954 103.51C87.8694 104.359 88.7764 104.827 89.6221 104.554C90.4678 104.282 90.9308 103.372 90.6568 102.523C90.3828 101.673 89.4758 101.205 88.6301 101.478C87.7844 101.75 87.3236 102.666 87.5954 103.51ZM75.5485 100.549C74.7028 100.822 74.2398 101.731 74.5138 102.581C74.7878 103.431 75.6948 103.898 76.5405 103.626C77.3862 103.353 77.8492 102.444 77.5752 101.594C77.3019 100.746 76.3942 100.276 75.5485 100.549ZM72.6201 93.0096C72.9382 93.9963 73.9966 94.5437 74.9806 94.2264L95.4747 87.6162C96.4566 87.2997 96.9988 86.2387 96.6799 85.2498L90.0371 64.6544C89.719 63.6678 88.6606 63.1203 87.6766 63.4376L67.1817 70.0456C66.1999 70.3621 65.6577 71.4231 65.9766 72.412L72.6201 93.0096ZM67.1051 110.116C67.3791 110.966 68.2861 111.434 69.1318 111.161C69.9774 110.888 70.4405 109.979 70.1665 109.129C69.8925 108.279 68.9855 107.812 68.1398 108.084C67.2941 108.357 66.8332 109.273 67.1051 110.116ZM57.7599 88.1297C58.6056 87.857 59.0686 86.9478 58.7946 86.0979C58.5206 85.2481 57.6136 84.7805 56.7679 85.0532C55.9222 85.3259 55.4592 86.2351 55.7332 87.085C56.0072 87.9348 56.9142 88.4024 57.7599 88.1297ZM71.8866 75.6611C71.8633 75.6117 71.8466 75.5601 71.8278 75.5018C71.3615 74.0555 72.1534 72.5006 73.5926 72.0365C73.6551 72.0164 73.7243 71.9941 73.7889 71.9807C73.9113 70.8322 74.6898 69.8088 75.8545 69.4333C76.7515 69.1441 77.6758 69.3139 78.4099 69.7877C78.7276 68.9699 79.3801 68.2966 80.2771 68.0074C81.4418 67.6319 82.6737 68.007 83.4416 68.8685C83.5019 68.8416 83.5711 68.8193 83.6336 68.7991C85.0728 68.3351 86.6238 69.1347 87.0901 70.581C87.1068 70.6325 87.1234 70.6841 87.1355 70.7446C88.7481 70.8336 90.1877 71.9216 90.6988 73.5069C91.0451 74.581 90.9227 75.7295 90.3754 76.6907C90.6363 76.9878 90.8344 77.3348 90.9587 77.7205C91.3231 78.8507 90.9578 80.0478 90.0957 80.7738C90.3373 81.2479 90.4477 81.7891 90.3867 82.341C90.2889 83.2142 89.7758 83.9836 89.0364 84.4101C89.4258 86.0075 88.518 87.6691 86.9338 88.1799C85.9743 88.4892 84.9804 88.3022 84.1994 87.7743C83.8737 88.6591 83.1763 89.3914 82.2168 89.7008C80.6281 90.213 78.9296 89.3991 78.3082 87.8691C77.4537 87.954 76.5907 87.6307 76.0036 86.9784C75.6317 86.5661 75.3986 86.057 75.3243 85.5364C74.2042 85.447 73.2026 84.6857 72.8404 83.5623C72.716 83.1766 72.6763 82.7785 72.7122 82.3856C71.711 81.9237 70.9342 81.0577 70.5901 79.9904C70.0968 78.3993 70.6312 76.6724 71.8866 75.6611ZM86.5203 86.86C87.4574 86.5578 87.9748 85.542 87.6712 84.6001C87.5251 84.1472 87.2115 83.778 86.7935 83.5588C86.4537 83.3836 86.323 82.9629 86.4987 82.6215C86.5832 82.4557 86.7347 82.3375 86.8998 82.2843C87.0717 82.2289 87.257 82.2384 87.4313 82.3283C87.8264 82.5376 88.1705 82.8177 88.4421 83.1559C88.7681 82.937 88.9884 82.5812 89.0363 82.1796C89.1165 81.4507 88.622 80.8948 88.0916 80.7167C87.7262 80.5994 87.5307 80.2069 87.6457 79.8455C87.7615 79.4789 88.1518 79.2838 88.5121 79.4003C88.7592 79.4791 88.9912 79.5949 89.2014 79.7351C89.6629 79.3635 89.8604 78.7304 89.6695 78.1385C89.5495 77.7663 89.2917 77.4558 88.9386 77.2775C88.8027 77.2074 88.6723 77.1926 88.5228 77.2408C88.1636 77.3566 87.7721 77.1585 87.6543 76.793C87.5357 76.4253 87.734 76.0396 88.0977 75.9223C88.4815 75.7985 88.8695 75.7948 89.2409 75.9077C89.5546 75.2991 89.6147 74.5841 89.4 73.9181C89.0739 72.9068 88.1682 72.2062 87.1437 72.1231C87.028 72.5664 86.802 72.9809 86.4712 73.3227C86.2078 73.5982 85.7672 73.6066 85.4956 73.3451C85.2204 73.0799 85.2108 72.6374 85.4704 72.3655C85.8184 72.0008 85.9363 71.4801 85.7808 70.998C85.5553 70.2984 84.8168 69.9027 84.1157 70.0967C84.2655 70.6375 84.2599 71.2087 84.0996 71.7505C83.9905 72.1149 83.6104 72.3266 83.2404 72.2182C82.8771 72.1075 82.6652 71.7253 82.7722 71.3542C82.8653 71.0395 82.8652 70.7028 82.7618 70.3822C82.4842 69.5211 81.5624 69.0459 80.7055 69.3222C79.8487 69.5985 79.3781 70.5226 79.6557 71.3836L82.9352 81.5551C83.1052 81.5324 83.2905 81.4653 83.338 81.3757C83.5218 81.0442 83.9426 80.9208 84.2748 81.1108C84.6056 81.2962 84.7296 81.7192 84.5414 82.0522C84.2989 82.4918 83.9024 82.7137 83.5387 82.8309C83.4762 82.8511 83.416 82.8631 83.3588 82.8766L84.264 85.684C84.5697 86.64 85.5786 87.1636 86.5203 86.86ZM73.2113 81.0762C73.4461 80.7654 73.7639 80.5441 74.1477 80.4203C74.5069 80.3045 74.8984 80.5026 75.0162 80.8681C75.1348 81.2358 74.9365 81.6215 74.5728 81.7388C74.4233 81.787 74.324 81.8685 74.2567 82.0115C74.0788 82.361 74.0457 82.7628 74.1665 83.1373C74.3573 83.7292 74.8896 84.127 75.479 84.1597C75.5678 83.9231 75.6898 83.6981 75.8429 83.4854C76.0665 83.1781 76.4995 83.1153 76.8062 83.3407C77.1144 83.5705 77.1768 84.001 76.9532 84.3082C76.6178 84.758 76.5433 85.5048 77.0409 86.0474C77.3144 86.3454 77.6988 86.5062 78.0935 86.4928C78.1172 86.0544 78.2298 85.6245 78.4305 85.2306C78.6039 84.89 79.0167 84.7569 79.3543 84.9253C79.694 85.1005 79.8278 85.5153 79.6625 85.8582C79.4468 86.2817 79.4138 86.7677 79.5584 87.2161C79.862 88.1579 80.8753 88.6803 81.8125 88.3781C82.7497 88.076 83.2671 87.0601 82.9634 86.1183L79.3911 75.0387C79.0951 75.3124 78.7229 75.5636 78.2699 75.7096C78.2074 75.7298 78.1449 75.7499 78.0803 75.7633C77.7116 75.85 77.3352 75.6223 77.2478 75.2519C77.1605 74.8816 77.3861 74.5043 77.7548 74.4176C78.2766 74.294 78.7043 73.7872 78.8967 73.4974L78.3508 71.8045C78.0732 70.9434 77.1514 70.4682 76.2946 70.7445C75.4377 71.0208 74.9671 71.9449 75.2447 72.8059C75.3467 73.1221 75.5358 73.3953 75.804 73.601C76.1055 73.833 76.1649 74.2693 75.9287 74.5757C75.6984 74.8777 75.264 74.9361 74.9581 74.6981C74.5122 74.3542 74.1756 73.8908 73.979 73.3651C73.2967 73.6172 72.9284 74.3697 73.154 75.0693C73.3073 75.5447 73.7137 75.9038 74.2047 75.9979C74.5794 76.0677 74.8294 76.4303 74.7565 76.8078C74.688 77.1838 74.3277 77.4337 73.9515 77.3594C73.4864 77.2692 73.0579 77.0707 72.705 76.7785C71.9235 77.4414 71.5961 78.5422 71.9221 79.5535C72.1294 80.2268 72.6012 80.7655 73.2113 81.0762ZM83.6752 76.8584C83.6619 76.9319 83.6532 77.0041 83.6444 77.0762C83.5679 77.9698 83.9627 78.8426 84.8221 79.6745C85.0127 79.8531 85.277 79.909 85.5113 79.8335C85.6207 79.7982 85.7161 79.7427 85.7999 79.6513C86.0633 79.3758 86.0499 78.937 85.7747 78.6717C85.2361 78.1548 84.9828 77.6596 85.02 77.2095C85.0785 76.5123 85.7969 76.0208 85.8067 76.0127C86.1215 75.7973 86.2059 75.3715 85.9942 75.0511C85.7833 74.733 85.359 74.647 85.0405 74.8512C85.0106 74.8732 84.6257 75.1309 84.2636 75.5893C83.9298 75.4939 83.4082 75.2437 83.4566 74.6143C83.4835 74.2318 83.2007 73.8972 82.8197 73.869C82.4386 73.8409 82.1062 74.1238 82.0793 74.5063C81.9803 75.8651 82.8743 76.567 83.6752 76.8584ZM74.7774 79.0118C74.8418 79.1123 75.4434 80.0001 76.5934 80.1442C76.626 80.1461 76.6519 80.1501 76.6846 80.1519C76.8242 81.0129 77.3571 82.0392 78.759 82.3992C78.8907 82.4335 79.0198 82.429 79.1403 82.3901C79.3568 82.3204 79.54 82.14 79.5939 81.9023C79.6883 81.5302 79.4608 81.1531 79.0966 81.0626C78.3201 80.8624 78.0985 80.3125 78.041 79.9201C78.4996 79.7228 78.9599 79.4085 79.4257 78.9737C79.7015 78.7139 79.7186 78.2777 79.4569 77.9932C79.1974 77.7155 78.7628 77.6972 78.4803 77.9591C77.85 78.5485 77.2602 78.8277 76.7755 78.7761C76.2471 78.7187 75.9364 78.2668 75.935 78.2624C75.7307 77.942 75.3049 77.8516 74.9798 78.0579C74.6554 78.259 74.5687 78.6929 74.7774 79.0118Z" fill="url(#paint2_linear_45_332)"/>
</g>
<defs>
<linearGradient id="paint0_linear_45_332" x1="44.7369" y1="30.0618" x2="137.658" y2="118.131" gradientUnits="userSpaceOnUse">
<stop stop-color="#525151"/>
<stop offset="1" stop-opacity="0"/>
</linearGradient>
<linearGradient id="paint1_linear_45_332" x1="138.5" y1="145" x2="20" y2="46.5" gradientUnits="userSpaceOnUse">
<stop stop-color="#0F0C0A"/>
<stop offset="1" stop-color="#404040"/>
</linearGradient>
<linearGradient id="paint2_linear_45_332" x1="57.5" y1="67" x2="86" y2="116" gradientUnits="userSpaceOnUse">
<stop stop-color="#3C3939"/>
<stop offset="1" stop-color="#131313"/>
</linearGradient>
<clipPath id="clip0_45_332">
<rect width="66.0196" height="60.3142" fill="white" transform="matrix(-0.951753 0.306865 0.306865 0.951753 103.492 40)"/>
</clipPath>
</defs>
</svg>
