<svg width="287" height="210" viewBox="0 0 287 210" fill="none" xmlns="http://www.w3.org/2000/svg">
<mask id="path-1-inside-1_45_396" fill="white">
<path d="M0 23.9995C0 20.6858 2.68629 17.9995 6 17.9995H260C263.314 17.9995 266 20.6858 266 23.9995V204C266 207.313 263.314 210 260 210H5.99999C2.68628 210 0 207.313 0 204V23.9995Z"/>
</mask>
<path d="M0 23.9995C0 20.6858 2.68629 17.9995 6 17.9995H260C263.314 17.9995 266 20.6858 266 23.9995V204C266 207.313 263.314 210 260 210H5.99999C2.68628 210 0 207.313 0 204V23.9995Z" fill="url(#paint0_linear_45_396)"/>
<path d="M-1 23.9995C-1 20.1335 2.13401 16.9995 6 16.9995H260C263.866 16.9995 267 20.1335 267 23.9995H265C265 21.2381 262.761 18.9995 260 18.9995H6C3.23858 18.9995 1 21.2381 1 23.9995H-1ZM266 210H0H266ZM6 210C2.13401 210 -1 206.866 -1 203V23.9995C-1 20.1335 2.13401 16.9995 6 16.9995V18.9995C3.23858 18.9995 1 21.2381 1 23.9995V204C1 207.313 3.23858 210 6 210ZM260 16.9995C263.866 16.9995 267 20.1335 267 23.9995V203C267 206.866 263.866 210 260 210C262.761 210 265 207.313 265 204V23.9995C265 21.2381 262.761 18.9995 260 18.9995V16.9995Z" fill="#322F2D" mask="url(#path-1-inside-1_45_396)"/>
<path d="M248.9 60.5725C265.413 60.5725 278.8 47.0128 278.8 30.286C278.8 13.5592 265.413 -0.000488281 248.9 -0.000488281C232.387 -0.000488281 219 13.5592 219 30.286C219 47.0128 232.387 60.5725 248.9 60.5725Z" fill="#E16812"/>
<path d="M235.848 28.2427V21.2495H236.296V28.2427H235.848ZM237.25 23.4186C237.221 23.1599 237.1 22.9596 236.889 22.8176C236.678 22.6737 236.412 22.6018 236.091 22.6018C235.862 22.6018 235.663 22.6381 235.496 22.711C235.328 22.7821 235.197 22.8803 235.104 23.006C235.013 23.1299 234.967 23.271 234.967 23.4294C234.967 23.5624 234.999 23.6771 235.06 23.7737C235.124 23.8702 235.207 23.9512 235.31 24.0168C235.413 24.0805 235.525 24.1342 235.643 24.1779C235.761 24.2198 235.875 24.2544 235.985 24.2817L236.531 24.4238C236.71 24.4675 236.893 24.5267 237.08 24.6013C237.268 24.676 237.442 24.7744 237.603 24.8964C237.763 25.0184 237.893 25.1696 237.991 25.3499C238.091 25.5302 238.141 25.746 238.141 25.9972C238.141 26.3142 238.059 26.5955 237.895 26.8413C237.733 27.0872 237.497 27.2812 237.188 27.4232C236.879 27.5652 236.506 27.6363 236.07 27.6363C235.65 27.6363 235.287 27.5698 234.982 27.4369C234.675 27.3039 234.436 27.1154 234.262 26.8714C234.09 26.6255 233.994 26.3342 233.976 25.9972H234.823C234.84 26.1994 234.905 26.3679 235.02 26.5027C235.136 26.6356 235.285 26.7348 235.465 26.8004C235.648 26.8642 235.847 26.8959 236.064 26.8959C236.302 26.8959 236.515 26.8587 236.701 26.784C236.889 26.7075 237.036 26.6019 237.143 26.4671C237.251 26.3305 237.305 26.1711 237.305 25.9891C237.305 25.8233 237.257 25.6876 237.163 25.582C237.07 25.4764 236.943 25.389 236.783 25.3198C236.624 25.2506 236.445 25.1896 236.244 25.1368L235.583 24.9565C235.134 24.8345 234.779 24.6551 234.516 24.4184C234.256 24.1816 234.126 23.8684 234.126 23.4787C234.126 23.1563 234.213 22.8749 234.389 22.6346C234.563 22.3942 234.8 22.2075 235.099 22.0745C235.398 21.9398 235.735 21.8724 236.11 21.8724C236.489 21.8724 236.824 21.9389 237.114 22.0718C237.405 22.2048 237.634 22.3878 237.802 22.6209C237.97 22.8521 238.057 23.1181 238.065 23.4186H237.25ZM241.197 21.9488V27.5434H240.35V22.7957H240.318L238.978 23.6698V22.8612L240.375 21.9488H241.197ZM242.594 26.4507V25.7678L245.013 21.9488H245.552V22.9541H245.21L243.48 25.6913V25.735H246.795V26.4507H242.594ZM245.249 27.5434V26.2431L245.254 25.9317V21.9488H246.055V27.5434H245.249ZM249.596 27.6199C249.253 27.6199 248.946 27.5544 248.672 27.4232C248.401 27.2902 248.183 27.1081 248.021 26.8769C247.859 26.6456 247.773 26.3816 247.762 26.0846H248.582C248.602 26.325 248.708 26.5227 248.902 26.6775C249.094 26.8323 249.326 26.9096 249.596 26.9096C249.811 26.9096 250.001 26.8605 250.167 26.7621C250.334 26.662 250.466 26.5245 250.56 26.3497C250.657 26.1748 250.706 25.9754 250.706 25.7514C250.706 25.5238 250.657 25.3207 250.558 25.1423C250.46 24.9637 250.324 24.8235 250.151 24.7215C249.98 24.6196 249.783 24.5677 249.56 24.5659C249.391 24.5659 249.221 24.595 249.049 24.6533C248.878 24.7115 248.74 24.788 248.633 24.8827L247.86 24.768L248.174 21.9488H251.252V22.6727H248.877L248.699 24.238H248.732C248.841 24.1324 248.986 24.0441 249.167 23.973C249.348 23.9021 249.544 23.8665 249.751 23.8665C250.093 23.8665 250.396 23.9476 250.662 24.1097C250.93 24.2717 251.14 24.493 251.293 24.7735C251.448 25.0521 251.525 25.3726 251.523 25.735C251.525 26.0974 251.442 26.4207 251.277 26.7048C251.113 26.9888 250.885 27.2129 250.593 27.3768C250.304 27.5388 249.971 27.6199 249.596 27.6199ZM252.868 27.5953C252.718 27.5953 252.589 27.5425 252.482 27.4369C252.375 27.3294 252.321 27.2001 252.321 27.0489C252.321 26.8996 252.375 26.7722 252.482 26.6665C252.589 26.5591 252.718 26.5053 252.868 26.5053C253.017 26.5053 253.146 26.5591 253.253 26.6665C253.361 26.7722 253.414 26.8996 253.414 27.0489C253.414 27.1491 253.389 27.2411 253.338 27.3248C253.289 27.4069 253.223 27.4723 253.141 27.5216C253.059 27.5707 252.968 27.5953 252.868 27.5953ZM256.244 27.6363C255.812 27.6345 255.443 27.5207 255.137 27.2948C254.831 27.069 254.597 26.7403 254.435 26.3087C254.272 25.877 254.191 25.3571 254.191 24.7489C254.191 24.1425 254.272 23.6243 254.435 23.1945C254.598 22.7647 254.833 22.4369 255.14 22.2111C255.447 21.9853 255.816 21.8724 256.244 21.8724C256.672 21.8724 257.039 21.9862 257.345 22.2138C257.652 22.4397 257.886 22.7675 258.048 23.1973C258.212 23.6252 258.294 24.1425 258.294 24.7489C258.294 25.3589 258.213 25.8798 258.051 26.3114C257.888 26.7412 257.654 27.0699 257.348 27.2975C257.042 27.5234 256.674 27.6363 256.244 27.6363ZM256.244 26.9069C256.623 26.9069 256.919 26.722 257.132 26.3523C257.348 25.9827 257.455 25.4481 257.455 24.7489C257.455 24.2845 257.406 23.892 257.307 23.5715C257.211 23.2491 257.071 23.0051 256.889 22.8394C256.709 22.6718 256.494 22.5881 256.244 22.5881C255.867 22.5881 255.571 22.7738 255.356 23.1454C255.141 23.5168 255.032 24.0514 255.03 24.7489C255.03 25.2151 255.078 25.6093 255.175 25.9317C255.274 26.2522 255.413 26.4954 255.593 26.661C255.774 26.825 255.99 26.9069 256.244 26.9069ZM261.212 27.6363C260.78 27.6345 260.411 27.5207 260.106 27.2948C259.799 27.069 259.565 26.7403 259.403 26.3087C259.24 25.877 259.16 25.3571 259.16 24.7489C259.16 24.1425 259.24 23.6243 259.403 23.1945C259.567 22.7647 259.802 22.4369 260.108 22.2111C260.416 21.9853 260.784 21.8724 261.212 21.8724C261.641 21.8724 262.008 21.9862 262.314 22.2138C262.62 22.4397 262.854 22.7675 263.016 23.1973C263.181 23.6252 263.263 24.1425 263.263 24.7489C263.263 25.3589 263.181 25.8798 263.019 26.3114C262.857 26.7412 262.622 27.0699 262.317 27.2975C262.01 27.5234 261.642 27.6363 261.212 27.6363ZM261.212 26.9069C261.592 26.9069 261.887 26.722 262.101 26.3523C262.316 25.9827 262.423 25.4481 262.423 24.7489C262.423 24.2845 262.374 23.892 262.276 23.5715C262.179 23.2491 262.039 23.0051 261.857 22.8394C261.677 22.6718 261.462 22.5881 261.212 22.5881C260.835 22.5881 260.539 22.7738 260.324 23.1454C260.109 23.5168 260 24.0514 259.999 24.7489C259.999 25.2151 260.047 25.6093 260.144 25.9317C260.242 26.2522 260.382 26.4954 260.562 26.661C260.742 26.825 260.959 26.9069 261.212 26.9069Z" fill="#F8F8F8"/>
<path d="M227.513 32.2563V38.4104H226.584V32.2563H227.513ZM229.693 35.6699V38.4104H228.794V33.7949H229.657V34.5461H229.713C229.82 34.3017 229.987 34.1054 230.212 33.9572C230.442 33.8089 230.729 33.7348 231.075 33.7348C231.39 33.7348 231.666 33.8009 231.903 33.9331C232.139 34.0633 232.322 34.2576 232.452 34.516C232.583 34.7744 232.649 35.094 232.649 35.4746V38.4104H231.749V35.5828C231.749 35.2482 231.662 34.9868 231.487 34.7985C231.313 34.6082 231.074 34.513 230.769 34.513C230.561 34.513 230.375 34.5581 230.212 34.6483C230.052 34.7384 229.925 34.8706 229.831 35.0449C229.739 35.2172 229.693 35.4255 229.693 35.6699ZM237.639 33.7949L235.965 38.4104H235.002L233.325 33.7949H234.29L235.459 37.3466H235.507L236.674 33.7949H237.639ZM240.317 38.5035C239.863 38.5035 239.471 38.4064 239.142 38.2121C238.815 38.0158 238.563 37.7403 238.384 37.3857C238.207 37.0291 238.119 36.6115 238.119 36.1327C238.119 35.6599 238.207 35.2433 238.384 34.8827C238.563 34.5221 238.811 34.2406 239.13 34.0383C239.451 33.836 239.825 33.7348 240.254 33.7348C240.515 33.7348 240.767 33.7779 241.012 33.864C241.256 33.9501 241.476 34.0853 241.67 34.2697C241.865 34.4539 242.018 34.6933 242.13 34.9878C242.243 35.2803 242.299 35.6359 242.299 36.0546V36.3731H238.628V35.7H241.418C241.418 35.4636 241.369 35.2542 241.274 35.0719C241.177 34.8877 241.042 34.7424 240.868 34.6362C240.695 34.5301 240.493 34.477 240.261 34.477C240.008 34.477 239.787 34.5391 239.599 34.6633C239.413 34.7855 239.268 34.9458 239.166 35.1441C239.065 35.3404 239.016 35.5537 239.016 35.7841V36.31C239.016 36.6184 239.07 36.8809 239.178 37.0972C239.288 37.3136 239.442 37.4789 239.638 37.593C239.834 37.7052 240.064 37.7613 240.326 37.7613C240.496 37.7613 240.653 37.7373 240.792 37.6892C240.932 37.6392 241.054 37.565 241.156 37.4668C241.259 37.3687 241.337 37.2474 241.391 37.1033L242.241 37.2565C242.173 37.5069 242.051 37.7262 241.875 37.9146C241.701 38.1008 241.481 38.2461 241.217 38.3503C240.954 38.4525 240.654 38.5035 240.317 38.5035ZM246.757 34.9217L245.942 35.066C245.908 34.9618 245.854 34.8626 245.78 34.7685C245.707 34.6743 245.609 34.5972 245.485 34.5371C245.361 34.477 245.206 34.447 245.019 34.447C244.765 34.447 244.552 34.504 244.382 34.6182C244.212 34.7304 244.126 34.8756 244.126 35.0539C244.126 35.2081 244.183 35.3324 244.298 35.4265C244.412 35.5207 244.596 35.5978 244.851 35.6579L245.584 35.8262C246.01 35.9243 246.326 36.0756 246.535 36.2799C246.743 36.4842 246.847 36.7497 246.847 37.0762C246.847 37.3526 246.767 37.5991 246.607 37.8154C246.448 38.0298 246.226 38.198 245.942 38.3202C245.659 38.4424 245.332 38.5035 244.959 38.5035C244.442 38.5035 244.02 38.3934 243.693 38.173C243.367 37.9506 243.166 37.6351 243.092 37.2264L243.961 37.0942C244.015 37.3206 244.126 37.4919 244.295 37.608C244.463 37.7222 244.682 37.7794 244.953 37.7794C245.247 37.7794 245.483 37.7183 245.659 37.5961C245.836 37.4718 245.924 37.3206 245.924 37.1423C245.924 36.9981 245.87 36.8769 245.761 36.7787C245.656 36.6806 245.492 36.6065 245.271 36.5563L244.49 36.3851C244.059 36.2869 243.741 36.1307 243.534 35.9164C243.329 35.702 243.227 35.4305 243.227 35.102C243.227 34.8296 243.303 34.5912 243.456 34.3869C243.608 34.1825 243.819 34.0232 244.087 33.9091C244.356 33.7929 244.663 33.7348 245.01 33.7348C245.509 33.7348 245.902 33.8429 246.189 34.0593C246.476 34.2737 246.665 34.5611 246.757 34.9217ZM249.991 33.7949V34.516H247.469V33.7949H249.991ZM248.145 32.6891H249.045V37.0552C249.045 37.2294 249.07 37.3607 249.123 37.4488C249.175 37.535 249.241 37.5941 249.324 37.6261C249.408 37.6562 249.5 37.6712 249.598 37.6712C249.67 37.6712 249.733 37.6661 249.787 37.6562C249.841 37.6461 249.883 37.6381 249.913 37.6321L250.075 38.3743C250.024 38.3943 249.949 38.4144 249.853 38.4344C249.757 38.4564 249.637 38.4685 249.492 38.4705C249.255 38.4744 249.035 38.4324 248.831 38.3443C248.626 38.2561 248.461 38.1199 248.334 37.9356C248.208 37.7513 248.145 37.52 248.145 37.2415V32.6891ZM250.986 38.4104V33.7949H251.848V34.5461H251.906C252.002 34.2917 252.159 34.0934 252.378 33.9511C252.596 33.8069 252.858 33.7348 253.162 33.7348C253.471 33.7348 253.73 33.8069 253.938 33.9511C254.149 34.0954 254.304 34.2937 254.404 34.5461H254.452C254.563 34.2997 254.738 34.1034 254.979 33.9572C255.219 33.8089 255.505 33.7348 255.838 33.7348C256.257 33.7348 256.599 33.866 256.864 34.1284C257.131 34.3909 257.264 34.7865 257.264 35.3153V38.4104H256.365V35.3995C256.365 35.087 256.279 34.8606 256.109 34.7204C255.939 34.5801 255.735 34.5101 255.499 34.5101C255.206 34.5101 254.979 34.6002 254.816 34.7805C254.654 34.9588 254.573 35.1881 254.573 35.4686V38.4104H253.677V35.3424C253.677 35.092 253.598 34.8906 253.442 34.7384C253.286 34.5862 253.083 34.5101 252.832 34.5101C252.662 34.5101 252.504 34.5551 252.36 34.6453C252.217 34.7334 252.103 34.8566 252.014 35.0148C251.928 35.1731 251.885 35.3564 251.885 35.5647V38.4104H250.986ZM260.459 38.5035C260.004 38.5035 259.613 38.4064 259.284 38.2121C258.956 38.0158 258.704 37.7403 258.526 37.3857C258.349 37.0291 258.261 36.6115 258.261 36.1327C258.261 35.6599 258.349 35.2433 258.526 34.8827C258.704 34.5221 258.953 34.2406 259.271 34.0383C259.592 33.836 259.967 33.7348 260.396 33.7348C260.657 33.7348 260.909 33.7779 261.153 33.864C261.398 33.9501 261.617 34.0853 261.812 34.2697C262.006 34.4539 262.16 34.6933 262.272 34.9878C262.384 35.2803 262.441 35.6359 262.441 36.0546V36.3731H258.769V35.7H261.559C261.559 35.4636 261.511 35.2542 261.415 35.0719C261.319 34.8877 261.184 34.7424 261.009 34.6362C260.837 34.5301 260.634 34.477 260.402 34.477C260.149 34.477 259.929 34.5391 259.74 34.6633C259.554 34.7855 259.41 34.9458 259.308 35.1441C259.207 35.3404 259.157 35.5537 259.157 35.7841V36.31C259.157 36.6184 259.211 36.8809 259.319 37.0972C259.43 37.3136 259.583 37.4789 259.779 37.593C259.976 37.7052 260.206 37.7613 260.468 37.7613C260.638 37.7613 260.794 37.7373 260.934 37.6892C261.074 37.6392 261.196 37.565 261.298 37.4668C261.4 37.3687 261.478 37.2474 261.533 37.1033L262.383 37.2565C262.315 37.5069 262.193 37.7262 262.016 37.9146C261.842 38.1008 261.622 38.2461 261.358 38.3503C261.095 38.4525 260.796 38.5035 260.459 38.5035ZM264.337 35.6699V38.4104H263.438V33.7949H264.301V34.5461H264.358C264.464 34.3017 264.631 34.1054 264.857 33.9572C265.086 33.8089 265.373 33.7348 265.72 33.7348C266.034 33.7348 266.31 33.8009 266.547 33.9331C266.784 34.0633 266.967 34.2576 267.097 34.516C267.227 34.7744 267.293 35.094 267.293 35.4746V38.4104H266.393V35.5828C266.393 35.2482 266.306 34.9868 266.132 34.7985C265.957 34.6082 265.718 34.513 265.413 34.513C265.205 34.513 265.019 34.5581 264.857 34.6483C264.696 34.7384 264.569 34.8706 264.475 35.0449C264.383 35.2172 264.337 35.4255 264.337 35.6699ZM270.654 33.7949V34.516H268.132V33.7949H270.654ZM268.808 32.6891H269.707V37.0552C269.707 37.2294 269.733 37.3607 269.785 37.4488C269.837 37.535 269.904 37.5941 269.986 37.6261C270.071 37.6562 270.161 37.6712 270.26 37.6712C270.332 37.6712 270.396 37.6661 270.45 37.6562C270.504 37.6461 270.546 37.6381 270.576 37.6321L270.738 38.3743C270.686 38.3943 270.612 38.4144 270.515 38.4344C270.42 38.4564 270.299 38.4685 270.155 38.4705C269.918 38.4744 269.698 38.4324 269.494 38.3443C269.288 38.2561 269.123 38.1199 268.997 37.9356C268.871 37.7513 268.808 37.52 268.808 37.2415V32.6891Z" fill="#F8F8F8"/>
<path d="M265.621 186.488C277.009 186.488 286.241 177.2 286.241 165.744C286.241 154.287 277.009 145 265.621 145C254.232 145 245 154.287 245 165.744C245 177.2 254.232 186.488 265.621 186.488Z" fill="#FFA91E"/>
<path d="M255.524 163.079V156.785H255.927V163.079H255.524ZM256.786 158.737C256.76 158.504 256.652 158.324 256.461 158.196C256.271 158.066 256.032 158.002 255.743 158.002C255.537 158.002 255.358 158.034 255.207 158.1C255.056 158.164 254.939 158.252 254.855 158.366C254.773 158.477 254.732 158.604 254.732 158.747C254.732 158.866 254.76 158.969 254.816 159.056C254.873 159.143 254.948 159.216 255.039 159.275C255.133 159.333 255.233 159.381 255.34 159.421C255.446 159.458 255.549 159.489 255.647 159.514L256.139 159.641C256.3 159.68 256.465 159.734 256.634 159.802C256.803 159.869 256.959 159.957 257.103 160.067C257.248 160.177 257.364 160.313 257.453 160.475C257.543 160.638 257.588 160.832 257.588 161.058C257.588 161.343 257.514 161.596 257.367 161.817C257.22 162.039 257.009 162.213 256.73 162.341C256.452 162.469 256.117 162.533 255.724 162.533C255.347 162.533 255.02 162.473 254.745 162.353C254.469 162.234 254.253 162.064 254.098 161.844C253.941 161.623 253.856 161.36 253.839 161.058H254.602C254.617 161.239 254.676 161.391 254.779 161.512C254.884 161.632 255.018 161.722 255.18 161.78C255.344 161.838 255.524 161.867 255.719 161.867C255.933 161.867 256.124 161.833 256.292 161.766C256.46 161.697 256.593 161.602 256.691 161.481C256.787 161.357 256.835 161.214 256.835 161.05C256.835 160.901 256.793 160.779 256.707 160.684C256.624 160.589 256.509 160.51 256.366 160.448C256.223 160.386 256.061 160.33 255.881 160.283L255.285 160.121C254.882 160.011 254.563 159.85 254.326 159.636C254.092 159.423 253.975 159.142 253.975 158.791C253.975 158.501 254.054 158.247 254.211 158.031C254.368 157.815 254.581 157.647 254.85 157.527C255.119 157.406 255.422 157.345 255.76 157.345C256.102 157.345 256.402 157.405 256.663 157.525C256.926 157.644 257.132 157.809 257.283 158.019C257.434 158.227 257.513 158.466 257.519 158.737H256.786ZM258.427 162.45V161.898L260.132 160.133C260.314 159.941 260.465 159.773 260.583 159.629C260.702 159.484 260.792 159.345 260.851 159.214C260.91 159.083 260.94 158.943 260.94 158.796C260.94 158.629 260.9 158.484 260.821 158.363C260.743 158.24 260.635 158.146 260.499 158.08C260.362 158.013 260.21 157.98 260.039 157.98C259.858 157.98 259.701 158.016 259.567 158.09C259.432 158.164 259.329 158.268 259.257 158.402C259.185 158.537 259.148 158.694 259.148 158.874H258.423C258.423 158.568 258.493 158.3 258.634 158.071C258.775 157.841 258.969 157.663 259.215 157.537C259.46 157.409 259.74 157.345 260.053 157.345C260.37 157.345 260.649 157.408 260.89 157.535C261.133 157.659 261.323 157.83 261.458 158.046C261.594 158.261 261.662 158.503 261.662 158.774C261.662 158.961 261.627 159.143 261.557 159.322C261.488 159.5 261.367 159.7 261.195 159.919C261.023 160.137 260.784 160.402 260.477 160.713L259.475 161.761V161.798H261.744V162.45H258.427ZM264.43 162.533C264.041 162.531 263.71 162.429 263.434 162.225C263.158 162.022 262.947 161.727 262.802 161.338C262.656 160.95 262.583 160.481 262.583 159.934C262.583 159.388 262.656 158.922 262.802 158.535C262.949 158.148 263.161 157.853 263.436 157.65C263.714 157.447 264.044 157.345 264.43 157.345C264.815 157.345 265.146 157.448 265.421 157.653C265.697 157.856 265.908 158.151 266.053 158.538C266.201 158.923 266.275 159.388 266.275 159.934C266.275 160.483 266.202 160.952 266.056 161.341C265.91 161.727 265.7 162.023 265.424 162.228C265.148 162.431 264.817 162.533 264.43 162.533ZM264.43 161.876C264.771 161.876 265.038 161.71 265.229 161.377C265.423 161.044 265.52 160.564 265.52 159.934C265.52 159.516 265.475 159.163 265.387 158.874C265.3 158.584 265.175 158.365 265.01 158.216C264.848 158.065 264.655 157.989 264.43 157.989C264.091 157.989 263.824 158.157 263.631 158.491C263.437 158.825 263.339 159.306 263.338 159.934C263.338 160.354 263.382 160.709 263.468 160.999C263.557 161.287 263.682 161.506 263.844 161.655C264.007 161.803 264.202 161.876 264.43 161.876ZM267.46 162.496C267.325 162.496 267.21 162.449 267.112 162.353C267.016 162.257 266.968 162.14 266.968 162.004C266.968 161.87 267.016 161.755 267.112 161.66C267.21 161.563 267.325 161.515 267.46 161.515C267.594 161.515 267.71 161.563 267.807 161.66C267.903 161.755 267.951 161.87 267.951 162.004C267.951 162.094 267.929 162.177 267.882 162.253C267.838 162.326 267.779 162.386 267.705 162.43C267.631 162.474 267.55 162.496 267.46 162.496ZM270.499 162.533C270.11 162.531 269.778 162.429 269.502 162.225C269.226 162.022 269.016 161.727 268.87 161.338C268.724 160.95 268.651 160.481 268.651 159.934C268.651 159.388 268.724 158.922 268.87 158.535C269.018 158.148 269.229 157.853 269.504 157.65C269.782 157.447 270.113 157.345 270.499 157.345C270.884 157.345 271.214 157.448 271.489 157.653C271.765 157.856 271.976 158.151 272.121 158.538C272.269 158.923 272.343 159.388 272.343 159.934C272.343 160.483 272.27 160.952 272.124 161.341C271.979 161.727 271.768 162.023 271.492 162.228C271.216 162.431 270.886 162.533 270.499 162.533ZM270.499 161.876C270.839 161.876 271.106 161.71 271.298 161.377C271.491 161.044 271.588 160.564 271.588 159.934C271.588 159.516 271.543 159.163 271.455 158.874C271.368 158.584 271.243 158.365 271.079 158.216C270.916 158.065 270.723 157.989 270.499 157.989C270.159 157.989 269.892 158.157 269.699 158.491C269.505 158.825 269.407 159.306 269.406 159.934C269.406 160.354 269.45 160.709 269.537 160.999C269.625 161.287 269.75 161.506 269.913 161.655C270.075 161.803 270.27 161.876 270.499 161.876ZM274.97 162.533C274.582 162.531 274.249 162.429 273.974 162.225C273.698 162.022 273.487 161.727 273.342 161.338C273.195 160.95 273.122 160.481 273.122 159.934C273.122 159.388 273.195 158.922 273.342 158.535C273.489 158.148 273.7 157.853 273.976 157.65C274.253 157.447 274.584 157.345 274.97 157.345C275.356 157.345 275.685 157.448 275.961 157.653C276.237 157.856 276.448 158.151 276.593 158.538C276.741 158.923 276.815 159.388 276.815 159.934C276.815 160.483 276.742 160.952 276.596 161.341C276.45 161.727 276.239 162.023 275.964 162.228C275.688 162.431 275.357 162.533 274.97 162.533ZM274.97 161.876C275.311 161.876 275.577 161.71 275.769 161.377C275.963 161.044 276.06 160.564 276.06 159.934C276.06 159.516 276.015 159.163 275.927 158.874C275.84 158.584 275.714 158.365 275.551 158.216C275.388 158.065 275.195 157.989 274.97 157.989C274.631 157.989 274.364 158.157 274.17 158.491C273.977 158.825 273.879 159.306 273.877 159.934C273.877 160.354 273.921 160.709 274.008 160.999C274.097 161.287 274.222 161.506 274.385 161.655C274.547 161.803 274.742 161.876 274.97 161.876Z" fill="#0E0D0D"/>
<path d="M252.949 168.446C252.922 168.214 252.814 168.033 252.624 167.905C252.434 167.776 252.194 167.711 251.906 167.711C251.699 167.711 251.52 167.744 251.369 167.81C251.218 167.874 251.101 167.962 251.018 168.075C250.936 168.187 250.894 168.314 250.894 168.456C250.894 168.576 250.922 168.679 250.978 168.766C251.035 168.853 251.11 168.925 251.202 168.985C251.295 169.042 251.396 169.09 251.502 169.13C251.608 169.168 251.711 169.198 251.809 169.223L252.302 169.351C252.462 169.39 252.627 169.443 252.796 169.511C252.965 169.578 253.122 169.667 253.266 169.776C253.41 169.887 253.527 170.022 253.615 170.185C253.706 170.346 253.75 170.541 253.75 170.767C253.75 171.052 253.677 171.306 253.529 171.527C253.383 171.748 253.171 171.923 252.892 172.051C252.615 172.178 252.28 172.242 251.886 172.242C251.509 172.242 251.182 172.182 250.907 172.063C250.632 171.943 250.416 171.773 250.26 171.554C250.104 171.333 250.018 171.07 250.001 170.767H250.765C250.779 170.949 250.838 171.101 250.941 171.222C251.046 171.342 251.18 171.431 251.343 171.49C251.506 171.547 251.686 171.576 251.881 171.576C252.096 171.576 252.287 171.543 252.454 171.475C252.623 171.406 252.756 171.311 252.853 171.19C252.95 171.067 252.998 170.923 252.998 170.76C252.998 170.61 252.956 170.488 252.87 170.394C252.786 170.298 252.672 170.219 252.528 170.157C252.385 170.095 252.224 170.04 252.044 169.993L251.448 169.83C251.044 169.721 250.725 169.559 250.489 169.346C250.254 169.133 250.137 168.851 250.137 168.5C250.137 168.211 250.216 167.957 250.373 167.741C250.53 167.524 250.744 167.356 251.013 167.237C251.281 167.116 251.585 167.054 251.923 167.054C252.264 167.054 252.565 167.115 252.826 167.234C253.088 167.354 253.294 167.518 253.446 167.728C253.597 167.937 253.675 168.176 253.681 168.446H252.949ZM254.6 173.575V168.382H255.319V168.994H255.38C255.422 168.916 255.484 168.825 255.564 168.722C255.645 168.618 255.756 168.529 255.899 168.451C256.041 168.372 256.23 168.333 256.465 168.333C256.769 168.333 257.042 168.41 257.281 168.564C257.521 168.719 257.709 168.94 257.844 169.231C257.982 169.52 258.051 169.87 258.051 170.277C258.051 170.686 257.983 171.036 257.847 171.328C257.711 171.618 257.524 171.841 257.286 171.999C257.049 172.154 256.777 172.232 256.472 172.232C256.242 172.232 256.054 172.194 255.909 172.117C255.765 172.04 255.651 171.95 255.569 171.846C255.487 171.743 255.424 171.651 255.38 171.571H255.335V173.575H254.6ZM255.321 170.271C255.321 170.536 255.359 170.769 255.436 170.969C255.514 171.169 255.625 171.325 255.771 171.438C255.916 171.55 256.096 171.606 256.307 171.606C256.527 171.606 256.711 171.547 256.858 171.431C257.005 171.313 257.117 171.153 257.193 170.951C257.269 170.75 257.309 170.523 257.309 170.271C257.309 170.021 257.27 169.798 257.196 169.599C257.122 169.401 257.01 169.245 256.861 169.13C256.713 169.015 256.529 168.958 256.307 168.958C256.094 168.958 255.913 169.012 255.766 169.122C255.62 169.232 255.51 169.385 255.434 169.582C255.358 169.779 255.321 170.009 255.321 170.271ZM260.504 172.235C260.132 172.235 259.811 172.155 259.542 171.997C259.274 171.836 259.068 171.611 258.922 171.32C258.778 171.029 258.706 170.687 258.706 170.295C258.706 169.908 258.778 169.568 258.922 169.272C259.068 168.978 259.271 168.747 259.532 168.582C259.794 168.416 260.102 168.333 260.452 168.333C260.666 168.333 260.872 168.368 261.072 168.439C261.272 168.509 261.452 168.62 261.611 168.771C261.77 168.922 261.896 169.117 261.987 169.359C262.079 169.598 262.125 169.889 262.125 170.231V170.492H259.122V169.941H261.404C261.404 169.748 261.365 169.576 261.286 169.427C261.207 169.276 261.097 169.158 260.954 169.071C260.813 168.984 260.647 168.94 260.457 168.94C260.25 168.94 260.07 168.991 259.916 169.093C259.764 169.193 259.646 169.324 259.562 169.486C259.48 169.647 259.439 169.822 259.439 170.01V170.44C259.439 170.693 259.483 170.908 259.572 171.084C259.661 171.261 259.787 171.396 259.948 171.49C260.108 171.582 260.296 171.628 260.511 171.628C260.651 171.628 260.778 171.608 260.892 171.568C261.007 171.528 261.107 171.467 261.191 171.386C261.274 171.307 261.338 171.207 261.382 171.089L262.078 171.215C262.023 171.42 261.922 171.599 261.779 171.753C261.636 171.905 261.455 172.024 261.24 172.109C261.024 172.193 260.779 172.235 260.504 172.235ZM263.676 169.916V172.158H262.941V168.382H263.647V168.997H263.694C263.781 168.797 263.917 168.636 264.102 168.515C264.289 168.394 264.524 168.333 264.808 168.333C265.066 168.333 265.291 168.387 265.484 168.495C265.678 168.602 265.828 168.761 265.935 168.973C266.042 169.183 266.095 169.445 266.095 169.757V172.158H265.359V169.845C265.359 169.571 265.288 169.358 265.146 169.203C265.003 169.048 264.807 168.97 264.558 168.97C264.387 168.97 264.235 169.007 264.102 169.081C263.971 169.154 263.867 169.262 263.79 169.405C263.715 169.546 263.676 169.716 263.676 169.916ZM268.496 172.232C268.19 172.232 267.919 172.154 267.679 171.999C267.441 171.841 267.254 171.618 267.118 171.328C266.984 171.036 266.916 170.686 266.916 170.277C266.916 169.87 266.984 169.52 267.121 169.231C267.259 168.94 267.447 168.719 267.686 168.564C267.926 168.41 268.197 168.333 268.501 168.333C268.735 168.333 268.924 168.372 269.067 168.451C269.211 168.529 269.322 168.618 269.401 168.722C269.481 168.825 269.543 168.916 269.588 168.994H269.632V167.123H270.368V172.158H269.65V171.571H269.588C269.543 171.651 269.479 171.743 269.396 171.846C269.314 171.95 269.201 172.04 269.057 172.117C268.912 172.194 268.725 172.232 268.496 172.232ZM268.658 171.606C268.87 171.606 269.048 171.55 269.195 171.438C269.342 171.325 269.454 171.169 269.529 170.969C269.606 170.769 269.645 170.536 269.645 170.271C269.645 170.009 269.607 169.779 269.532 169.582C269.456 169.385 269.345 169.232 269.2 169.122C269.053 169.012 268.873 168.958 268.658 168.958C268.437 168.958 268.252 169.015 268.105 169.13C267.957 169.245 267.846 169.401 267.77 169.599C267.696 169.798 267.66 170.021 267.66 170.271C267.66 170.523 267.697 170.75 267.773 170.951C267.848 171.153 267.96 171.313 268.107 171.431C268.256 171.547 268.44 171.606 268.658 171.606ZM271.418 172.158V168.382H272.153V172.158H271.418ZM271.789 167.8C271.661 167.8 271.551 167.757 271.46 167.672C271.369 167.585 271.324 167.482 271.324 167.362C271.324 167.241 271.369 167.137 271.46 167.053C271.551 166.966 271.661 166.922 271.789 166.922C271.917 166.922 272.026 166.966 272.116 167.053C272.208 167.137 272.254 167.241 272.254 167.362C272.254 167.482 272.208 167.585 272.116 167.672C272.026 167.757 271.917 167.8 271.789 167.8ZM273.878 169.916V172.158H273.143V168.382H273.849V168.997H273.896C273.983 168.797 274.118 168.636 274.304 168.515C274.491 168.394 274.726 168.333 275.01 168.333C275.268 168.333 275.493 168.387 275.686 168.495C275.88 168.602 276.03 168.761 276.136 168.973C276.243 169.183 276.297 169.445 276.297 169.757V172.158H275.561V169.845C275.561 169.571 275.489 169.358 275.347 169.203C275.204 169.048 275.008 168.97 274.759 168.97C274.588 168.97 274.436 169.007 274.304 169.081C274.173 169.154 274.068 169.262 273.991 169.405C273.916 169.546 273.878 169.716 273.878 169.916ZM278.867 173.653C278.567 173.653 278.308 173.614 278.092 173.535C277.877 173.457 277.702 173.353 277.566 173.223C277.43 173.094 277.328 172.952 277.261 172.798L277.893 172.537C277.937 172.609 277.996 172.686 278.07 172.766C278.145 172.848 278.247 172.918 278.375 172.975C278.504 173.032 278.671 173.061 278.875 173.061C279.153 173.061 279.384 172.993 279.566 172.857C279.748 172.723 279.839 172.508 279.839 172.212V171.47H279.792C279.748 171.551 279.684 171.64 279.6 171.738C279.518 171.836 279.405 171.922 279.261 171.994C279.116 172.066 278.929 172.102 278.697 172.102C278.399 172.102 278.13 172.032 277.891 171.893C277.653 171.753 277.464 171.545 277.325 171.271C277.187 170.995 277.118 170.658 277.118 170.256C277.118 169.854 277.186 169.51 277.322 169.223C277.46 168.936 277.649 168.717 277.888 168.564C278.127 168.41 278.399 168.333 278.702 168.333C278.937 168.333 279.126 168.372 279.271 168.451C279.415 168.529 279.528 168.618 279.607 168.722C279.689 168.825 279.753 168.916 279.797 168.994H279.851V168.382H280.572V172.242C280.572 172.567 280.497 172.833 280.346 173.042C280.194 173.249 279.99 173.404 279.733 173.503C279.477 173.604 279.189 173.653 278.867 173.653ZM278.86 171.493C279.072 171.493 279.25 171.443 279.396 171.345C279.543 171.245 279.655 171.103 279.73 170.917C279.807 170.73 279.846 170.507 279.846 170.246C279.846 169.992 279.808 169.768 279.733 169.574C279.658 169.381 279.547 169.231 279.401 169.122C279.255 169.012 279.075 168.958 278.86 168.958C278.638 168.958 278.454 169.015 278.307 169.13C278.159 169.243 278.047 169.397 277.972 169.592C277.898 169.787 277.861 170.005 277.861 170.246C277.861 170.493 277.899 170.711 277.974 170.898C278.049 171.084 278.161 171.23 278.308 171.335C278.458 171.44 278.641 171.493 278.86 171.493Z" fill="#0E0D0D"/>
<path d="M32.4222 60.8296H231.5" stroke="#C9C9C9" stroke-width="0.438462" stroke-dasharray="1.46 1.46"/>
<path d="M32.4222 86.9185H231.5" stroke="#C9C9C9" stroke-width="0.438462" stroke-dasharray="1.46 1.46"/>
<path d="M32.4222 113.008H231.5" stroke="#C9C9C9" stroke-width="0.438462" stroke-dasharray="1.46 1.46"/>
<path d="M32.4222 139.098H231.5" stroke="#C9C9C9" stroke-width="0.438462" stroke-dasharray="1.46 1.46"/>
<path d="M32.4222 165.187H231.5" stroke="#C9C9C9" stroke-width="0.438462" stroke-dasharray="1.46 1.46"/>
<path d="M15.2036 68.3727C14.9001 68.3727 14.6268 68.3123 14.3837 68.1917C14.1406 68.0711 13.9458 67.9057 13.7992 67.6954C13.6526 67.4852 13.5724 67.2457 13.5587 66.9768H14.1794C14.2035 67.2164 14.3122 67.4146 14.5053 67.5714C14.7001 67.7265 14.9329 67.804 15.2036 67.804C15.4209 67.804 15.614 67.7532 15.783 67.6515C15.9537 67.5498 16.0873 67.4102 16.1839 67.2327C16.2821 67.0535 16.3313 66.851 16.3313 66.6253C16.3313 66.3944 16.2804 66.1885 16.1787 66.0075C16.0787 65.8248 15.9407 65.681 15.7649 65.5758C15.589 65.4707 15.3881 65.4173 15.1622 65.4156C15.0002 65.4139 14.8338 65.4388 14.6631 65.4905C14.4923 65.5405 14.3518 65.6051 14.2415 65.6844L13.6414 65.612L13.9621 63.0065H16.7141V63.5751H14.5001L14.3139 65.1364H14.3449C14.4536 65.0502 14.5898 64.9787 14.7536 64.9219C14.9174 64.865 15.0881 64.8366 15.2657 64.8366C15.5899 64.8366 15.8787 64.9141 16.1321 65.0692C16.3873 65.2226 16.5873 65.4328 16.7322 65.6999C16.8787 65.967 16.952 66.272 16.952 66.615C16.952 66.9527 16.8762 67.2543 16.7244 67.5197C16.5744 67.7833 16.3675 67.9918 16.1037 68.1452C15.8399 68.2969 15.5398 68.3727 15.2036 68.3727ZM19.7072 68.3727C19.3175 68.3727 18.9856 68.2667 18.7114 68.0547C18.4373 67.8411 18.2278 67.5317 18.0829 67.1268C17.9381 66.7201 17.8657 66.229 17.8657 65.6534C17.8657 65.0813 17.9381 64.5927 18.0829 64.1878C18.2295 63.7811 18.4399 63.4709 18.714 63.2572C18.9899 63.0418 19.321 62.9341 19.7072 62.9341C20.0934 62.9341 20.4236 63.0418 20.6978 63.2572C20.9737 63.4709 21.184 63.7811 21.3289 64.1878C21.4755 64.5927 21.5487 65.0813 21.5487 65.6534C21.5487 66.229 21.4763 66.7201 21.3315 67.1268C21.1866 67.5317 20.9771 67.8411 20.703 68.0547C20.4288 68.2667 20.0969 68.3727 19.7072 68.3727ZM19.7072 67.804C20.0934 67.804 20.3935 67.6179 20.6073 67.2457C20.8211 66.8734 20.928 66.3427 20.928 65.6534C20.928 65.195 20.8788 64.8047 20.7806 64.4824C20.684 64.1602 20.5443 63.9146 20.3616 63.7457C20.1805 63.5769 19.9624 63.4924 19.7072 63.4924C19.3244 63.4924 19.0253 63.6811 18.8097 64.0585C18.5942 64.4342 18.4864 64.9658 18.4864 65.6534C18.4864 66.1118 18.5347 66.5012 18.6313 66.8218C18.7278 67.1423 18.8666 67.3861 19.0477 67.5533C19.2304 67.7204 19.4503 67.804 19.7072 67.804ZM22.6246 68.3003V63.0065H23.2661V65.6327H23.3282L25.7077 63.0065H26.5457L24.3214 65.3949L26.5457 68.3003H25.7698L23.9282 65.8395L23.2661 66.5839V68.3003H22.6246Z" fill="#D6D5D5"/>
<path d="M13.4242 91.4837V90.9564L15.752 87.2755H16.1348V88.0923H15.8761L14.1174 90.8737V90.915H17.2521V91.4837H13.4242ZM15.9175 92.5693V91.3234V91.0779V87.2755H16.5279V92.5693H15.9175ZM19.9491 92.6417C19.5594 92.6417 19.2275 92.5357 18.9533 92.3238C18.6791 92.1101 18.4696 91.8008 18.3248 91.3958C18.18 90.9891 18.1075 90.498 18.1075 89.9224C18.1075 89.3503 18.18 88.8618 18.3248 88.4568C18.4714 88.0501 18.6817 87.7399 18.9559 87.5262C19.2318 87.3108 19.5628 87.2031 19.9491 87.2031C20.3353 87.2031 20.6655 87.3108 20.9397 87.5262C21.2155 87.7399 21.4259 88.0501 21.5708 88.4568C21.7173 88.8618 21.7906 89.3503 21.7906 89.9224C21.7906 90.498 21.7182 90.9891 21.5733 91.3958C21.4285 91.8008 21.219 92.1101 20.9448 92.3238C20.6707 92.5357 20.3388 92.6417 19.9491 92.6417ZM19.9491 92.073C20.3353 92.073 20.6353 91.8869 20.8491 91.5147C21.0629 91.1425 21.1698 90.6117 21.1698 89.9224C21.1698 89.4641 21.1207 89.0737 21.0224 88.7514C20.9259 88.4292 20.7862 88.1837 20.6034 88.0148C20.4224 87.8459 20.2043 87.7614 19.9491 87.7614C19.5663 87.7614 19.2671 87.9502 19.0516 88.3275C18.836 88.7032 18.7283 89.2348 18.7283 89.9224C18.7283 90.3808 18.7766 90.7702 18.8731 91.0908C18.9697 91.4113 19.1085 91.6552 19.2895 91.8223C19.4723 91.9894 19.6922 92.073 19.9491 92.073ZM22.8665 92.5693V87.2755H23.508V89.9018H23.57L25.9495 87.2755H26.7876L24.5632 89.6639L26.7876 92.5693H26.0116L24.1701 90.1085L23.508 90.853V92.5693H22.8665Z" fill="#D6D5D5"/>
<path d="M15.3381 116.911C14.9967 116.911 14.6924 116.853 14.4251 116.735C14.1596 116.618 13.9483 116.455 13.7914 116.247C13.6362 116.037 13.5518 115.793 13.538 115.515H14.1897C14.2035 115.686 14.2622 115.833 14.3656 115.957C14.4691 116.08 14.6044 116.175 14.7717 116.242C14.9389 116.309 15.1243 116.343 15.3278 116.343C15.5554 116.343 15.7571 116.303 15.933 116.224C16.1089 116.144 16.2468 116.034 16.3468 115.893C16.4468 115.751 16.4968 115.588 16.4968 115.402C16.4968 115.207 16.4485 115.035 16.352 114.887C16.2554 114.737 16.114 114.62 15.9278 114.536C15.7416 114.451 15.514 114.409 15.245 114.409H14.8208V113.84H15.245C15.4554 113.84 15.6399 113.802 15.7985 113.727C15.9588 113.651 16.0839 113.544 16.1735 113.406C16.2649 113.268 16.3106 113.106 16.3106 112.92C16.3106 112.741 16.2709 112.585 16.1916 112.452C16.1123 112.32 16.0002 112.216 15.8554 112.142C15.7123 112.068 15.5433 112.031 15.3485 112.031C15.1657 112.031 14.9932 112.065 14.8312 112.132C14.6708 112.197 14.5398 112.293 14.438 112.419C14.3363 112.543 14.2811 112.693 14.2725 112.868H13.6518C13.6621 112.591 13.7457 112.348 13.9026 112.14C14.0596 111.929 14.2647 111.766 14.5182 111.648C14.7734 111.531 15.0536 111.473 15.3588 111.473C15.6864 111.473 15.9675 111.539 16.202 111.672C16.4365 111.803 16.6167 111.976 16.7425 112.191C16.8684 112.407 16.9313 112.639 16.9313 112.889C16.9313 113.187 16.8529 113.441 16.696 113.652C16.5408 113.862 16.3296 114.008 16.0623 114.089V114.13C16.3968 114.185 16.658 114.327 16.846 114.556C17.0339 114.784 17.1279 115.066 17.1279 115.402C17.1279 115.689 17.0494 115.948 16.8925 116.177C16.7374 116.405 16.5253 116.584 16.2563 116.715C15.9873 116.846 15.6812 116.911 15.3381 116.911ZM19.9135 116.911C19.5238 116.911 19.1919 116.805 18.9177 116.593C18.6435 116.38 18.434 116.07 18.2892 115.665C18.1444 115.259 18.0719 114.768 18.0719 114.192C18.0719 113.62 18.1444 113.131 18.2892 112.726C18.4358 112.32 18.6461 112.009 18.9203 111.796C19.1962 111.58 19.5272 111.473 19.9135 111.473C20.2997 111.473 20.6299 111.58 20.9041 111.796C21.1799 112.009 21.3903 112.32 21.5351 112.726C21.6817 113.131 21.755 113.62 21.755 114.192C21.755 114.768 21.6825 115.259 21.5378 115.665C21.3929 116.07 21.1834 116.38 20.9092 116.593C20.6351 116.805 20.3032 116.911 19.9135 116.911ZM19.9135 116.343C20.2997 116.343 20.5997 116.156 20.8135 115.784C21.0274 115.412 21.1343 114.881 21.1343 114.192C21.1343 113.734 21.0851 113.343 20.9868 113.021C20.8903 112.699 20.7506 112.453 20.5678 112.284C20.3868 112.115 20.1687 112.031 19.9135 112.031C19.5307 112.031 19.2315 112.22 19.016 112.597C18.8004 112.973 18.6927 113.504 18.6927 114.192C18.6927 114.65 18.741 115.04 18.8375 115.36C18.9341 115.681 19.0729 115.925 19.2539 116.092C19.4367 116.259 19.6566 116.343 19.9135 116.343ZM22.8309 116.839V111.545H23.4724V114.171H23.5344L25.914 111.545H26.7519L24.5276 113.933L26.7519 116.839H25.976L24.1345 114.378L23.4724 115.122V116.839H22.8309Z" fill="#D6D5D5"/>
<path d="M13.5483 141.108V140.643L15.2968 138.73C15.5019 138.506 15.6709 138.311 15.8037 138.146C15.9365 137.978 16.0347 137.822 16.0985 137.675C16.1641 137.527 16.1968 137.372 16.1968 137.21C16.1968 137.024 16.152 136.863 16.0623 136.726C15.9744 136.59 15.8537 136.485 15.7002 136.411C15.5468 136.337 15.3743 136.3 15.183 136.3C14.9795 136.3 14.8019 136.342 14.6502 136.427C14.5001 136.509 14.3838 136.626 14.301 136.776C14.2199 136.926 14.1794 137.101 14.1794 137.303H13.569C13.569 136.993 13.6406 136.721 13.7837 136.486C13.9268 136.252 14.1217 136.069 14.3682 135.938C14.6165 135.807 14.895 135.742 15.2036 135.742C15.514 135.742 15.789 135.807 16.0287 135.938C16.2684 136.069 16.4563 136.246 16.5925 136.468C16.7288 136.69 16.7969 136.938 16.7969 137.21C16.7969 137.405 16.7615 137.595 16.6908 137.781C16.6219 137.966 16.5012 138.171 16.3287 138.399C16.158 138.625 15.9209 138.9 15.6175 139.226L14.4277 140.498V140.539H16.89V141.108H13.5483ZM19.6859 141.18C19.2962 141.18 18.9643 141.074 18.6901 140.862C18.416 140.649 18.2065 140.339 18.0616 139.934C17.9168 139.528 17.8444 139.037 17.8444 138.461C17.8444 137.889 17.9168 137.4 18.0616 136.995C18.2082 136.589 18.4186 136.279 18.6927 136.065C18.9686 135.849 19.2997 135.742 19.6859 135.742C20.0721 135.742 20.4023 135.849 20.6765 136.065C20.9524 136.279 21.1627 136.589 21.3076 136.995C21.4542 137.4 21.5274 137.889 21.5274 138.461C21.5274 139.037 21.455 139.528 21.3101 139.934C21.1653 140.339 20.9558 140.649 20.6817 140.862C20.4075 141.074 20.0756 141.18 19.6859 141.18ZM19.6859 140.612C20.0721 140.612 20.3722 140.426 20.586 140.053C20.7998 139.681 20.9067 139.15 20.9067 138.461C20.9067 138.003 20.8575 137.612 20.7593 137.29C20.6627 136.968 20.523 136.722 20.3403 136.553C20.1592 136.384 19.9411 136.3 19.6859 136.3C19.3031 136.3 19.0039 136.489 18.7884 136.866C18.5729 137.242 18.4651 137.773 18.4651 138.461C18.4651 138.919 18.5134 139.309 18.6099 139.629C18.7065 139.95 18.8453 140.194 19.0264 140.361C19.2091 140.528 19.429 140.612 19.6859 140.612ZM22.6034 141.108V135.814H23.2448V138.44H23.3069L25.6863 135.814H26.5244L24.3001 138.203L26.5244 141.108H25.7485L23.907 138.647L23.2448 139.391V141.108H22.6034Z" fill="#D6D5D5"/>
<path d="M15.4106 160.082V165.377H14.7691V160.755H14.7381L13.4449 161.613V160.962L14.7691 160.082H15.4106ZM18.6617 165.449C18.272 165.449 17.9401 165.343 17.6659 165.131C17.3918 164.917 17.1823 164.608 17.0374 164.203C16.8926 163.796 16.8202 163.305 16.8202 162.73C16.8202 162.158 16.8926 161.669 17.0374 161.264C17.184 160.857 17.3943 160.547 17.6685 160.333C17.9444 160.118 18.2754 160.01 18.6617 160.01C19.0479 160.01 19.3781 160.118 19.6523 160.333C19.9282 160.547 20.1385 160.857 20.2834 161.264C20.4299 161.669 20.5032 162.158 20.5032 162.73C20.5032 163.305 20.4308 163.796 20.2859 164.203C20.1411 164.608 19.9316 164.917 19.6574 165.131C19.3833 165.343 19.0514 165.449 18.6617 165.449ZM18.6617 164.88C19.0479 164.88 19.3479 164.694 19.5618 164.322C19.7756 163.95 19.8825 163.419 19.8825 162.73C19.8825 162.271 19.8333 161.88 19.735 161.558C19.6385 161.236 19.4988 160.991 19.316 160.822C19.135 160.653 18.9169 160.569 18.6617 160.569C18.2789 160.569 17.9797 160.757 17.7642 161.135C17.5487 161.51 17.4409 162.042 17.4409 162.73C17.4409 163.188 17.4892 163.577 17.5857 163.897C17.6823 164.219 17.8211 164.462 18.0021 164.63C18.1849 164.796 18.4048 164.88 18.6617 164.88ZM21.5792 165.377V160.082H22.2206V162.709H22.2826L24.6622 160.082H25.5001L23.2758 162.471L25.5001 165.377H24.7242L22.8827 162.915L22.2206 163.66V165.377H21.5792Z" fill="#D6D5D5"/>
<path d="M37.5888 180.044H38.2302V183.829C38.2302 184.167 38.1682 184.453 38.044 184.689C37.9198 184.925 37.7448 185.105 37.519 185.227C37.2931 185.349 37.0266 185.411 36.7198 185.411C36.4301 185.411 36.1723 185.358 35.9464 185.253C35.7205 185.146 35.5429 184.994 35.4136 184.798C35.2843 184.601 35.2196 184.368 35.2196 184.098H35.8507C35.8507 184.247 35.8878 184.378 35.962 184.49C36.0378 184.601 36.1413 184.687 36.2723 184.749C36.4034 184.811 36.5525 184.842 36.7198 184.842C36.9042 184.842 37.0612 184.803 37.1905 184.725C37.3198 184.648 37.4181 184.534 37.4854 184.384C37.5543 184.233 37.5888 184.048 37.5888 183.829V180.044ZM40.6019 185.432C40.3502 185.432 40.1218 185.384 39.9166 185.289C39.7114 185.192 39.5485 185.054 39.4277 184.873C39.307 184.69 39.2467 184.47 39.2467 184.211C39.2467 183.984 39.2915 183.8 39.3812 183.658C39.4708 183.515 39.5907 183.403 39.7406 183.322C39.8907 183.241 40.0563 183.18 40.2372 183.141C40.42 183.1 40.6037 183.067 40.7881 183.043C41.0296 183.012 41.2253 182.989 41.3753 182.973C41.527 182.955 41.6374 182.927 41.7063 182.887C41.7771 182.848 41.8124 182.779 41.8124 182.681V182.66C41.8124 182.405 41.7425 182.207 41.6029 182.066C41.465 181.925 41.2555 181.854 40.9744 181.854C40.683 181.854 40.4545 181.918 40.289 182.045C40.1235 182.173 40.0071 182.309 39.9398 182.453L39.3605 182.247C39.4639 182.005 39.6019 181.817 39.7743 181.683C39.9485 181.547 40.1382 181.452 40.3433 181.399C40.5503 181.343 40.7537 181.316 40.9537 181.316C41.0813 181.316 41.2278 181.332 41.3934 181.363C41.5606 181.392 41.7219 181.453 41.8771 181.546C42.034 181.639 42.1641 181.779 42.2676 181.968C42.3711 182.155 42.4228 182.407 42.4228 182.722V185.339H41.8124V184.801H41.7813C41.74 184.887 41.671 184.979 41.5744 185.077C41.4779 185.175 41.3494 185.259 41.1891 185.328C41.0288 185.397 40.833 185.432 40.6019 185.432ZM40.695 184.883C40.9365 184.883 41.14 184.836 41.3055 184.741C41.4727 184.646 41.5986 184.524 41.6831 184.374C41.7693 184.224 41.8124 184.066 41.8124 183.901V183.342C41.7866 183.374 41.7297 183.402 41.6417 183.428C41.5555 183.452 41.4555 183.473 41.3417 183.493C41.2296 183.51 41.1201 183.526 41.0132 183.539C40.908 183.551 40.8227 183.561 40.7572 183.571C40.5985 183.59 40.4502 183.625 40.3123 183.671C40.176 183.716 40.0657 183.784 39.9813 183.875C39.8985 183.965 39.8571 184.087 39.8571 184.242C39.8571 184.455 39.9355 184.615 40.0925 184.723C40.2511 184.83 40.4519 184.883 40.695 184.883ZM44.1472 182.95V185.339H43.5369V181.368H44.1266V181.988H44.1783C44.2714 181.787 44.4129 181.625 44.6025 181.502C44.7922 181.378 45.037 181.316 45.337 181.316C45.606 181.316 45.8414 181.371 46.0432 181.481C46.2449 181.59 46.4018 181.755 46.5138 181.978C46.626 182.198 46.6819 182.477 46.6819 182.815V185.339H46.0716V182.857C46.0716 182.545 45.9905 182.302 45.8285 182.128C45.6663 181.952 45.4439 181.864 45.1612 181.864C44.9663 181.864 44.7922 181.906 44.6387 181.991C44.4869 182.076 44.3671 182.198 44.2792 182.36C44.1913 182.522 44.1472 182.719 44.1472 182.95Z" fill="#D6D5D5"/>
<path d="M66.4509 185.339V180.044H69.627V180.613H67.0923V182.402H69.3891V182.97H67.0923V185.339H66.4509ZM72.0169 185.421C71.6341 185.421 71.3039 185.336 71.0263 185.168C70.7504 184.997 70.5375 184.759 70.3874 184.455C70.2391 184.147 70.165 183.791 70.165 183.384C70.165 182.977 70.2391 182.619 70.3874 182.309C70.5375 181.997 70.7461 181.754 71.0133 181.58C71.2823 181.404 71.5962 181.316 71.9548 181.316C72.1617 181.316 72.366 181.351 72.5678 181.42C72.7695 181.489 72.9531 181.601 73.1187 181.755C73.2842 181.909 73.4161 182.112 73.5144 182.365C73.6127 182.619 73.6619 182.931 73.6619 183.302V183.56H70.5995V183.033H73.0411C73.0411 182.809 72.9963 182.609 72.9066 182.433C72.8187 182.257 72.6928 182.118 72.529 182.017C72.3669 181.915 72.1755 181.864 71.9548 181.864C71.7116 181.864 71.5013 181.925 71.3237 182.045C71.1479 182.164 71.0125 182.319 70.9176 182.511C70.8228 182.701 70.7754 182.906 70.7754 183.126V183.477C70.7754 183.777 70.8271 184.031 70.9306 184.24C71.0357 184.446 71.1815 184.604 71.3677 184.713C71.5539 184.82 71.7703 184.873 72.0169 184.873C72.1772 184.873 72.3221 184.851 72.4514 184.806C72.5825 184.759 72.6953 184.69 72.7902 184.599C72.885 184.506 72.9583 184.391 73.01 184.253L73.5997 184.418C73.5377 184.618 73.4334 184.794 73.2868 184.945C73.1403 185.095 72.9592 185.212 72.7437 185.297C72.5282 185.379 72.2859 185.421 72.0169 185.421ZM74.6732 185.339V180.044H75.2835V181.998H75.3353C75.38 181.93 75.4422 181.842 75.5215 181.735C75.6025 181.627 75.718 181.529 75.8681 181.446C76.0198 181.359 76.225 181.316 76.4836 181.316C76.8181 181.316 77.113 181.4 77.3681 181.567C77.6234 181.734 77.8225 181.971 77.9656 182.277C78.1087 182.584 78.1803 182.946 78.1803 183.363C78.1803 183.784 78.1087 184.148 77.9656 184.457C77.8225 184.763 77.6242 185.002 77.3707 185.17C77.1173 185.337 76.825 185.421 76.494 185.421C76.2387 185.421 76.0344 185.378 75.8809 185.295C75.7275 185.208 75.6094 185.11 75.5266 185.002C75.4439 184.892 75.38 184.801 75.3353 184.728H75.2628V185.339H74.6732ZM75.2731 183.353C75.2731 183.653 75.3172 183.918 75.405 184.147C75.493 184.374 75.6215 184.553 75.7904 184.682C75.9594 184.809 76.1663 184.873 76.4112 184.873C76.6664 184.873 76.8794 184.806 77.05 184.671C77.2225 184.535 77.3518 184.352 77.438 184.123C77.5259 183.893 77.5699 183.635 77.5699 183.353C77.5699 183.074 77.5268 182.823 77.4406 182.599C77.3561 182.373 77.2276 182.194 77.0552 182.063C76.8845 181.93 76.6698 181.864 76.4112 181.864C76.1629 181.864 75.9543 181.927 75.7853 182.053C75.6163 182.177 75.4887 182.351 75.4025 182.575C75.3162 182.797 75.2731 183.057 75.2731 183.353Z" fill="#D6D5D5"/>
<path d="M98.1112 180.044H98.8761L100.677 184.439H100.739L102.539 180.044H103.305V185.339H102.704V181.316H102.653L100.997 185.339H100.418L98.7623 181.316H98.7108V185.339H98.1112V180.044ZM105.677 185.432C105.425 185.432 105.197 185.384 104.992 185.289C104.786 185.192 104.624 185.054 104.502 184.873C104.382 184.69 104.321 184.47 104.321 184.211C104.321 183.984 104.366 183.8 104.456 183.658C104.545 183.515 104.665 183.403 104.815 183.322C104.966 183.241 105.131 183.18 105.312 183.141C105.495 183.1 105.678 183.067 105.863 183.043C106.104 183.012 106.3 182.989 106.45 182.973C106.602 182.955 106.712 182.927 106.781 182.887C106.852 182.848 106.887 182.779 106.887 182.681V182.66C106.887 182.405 106.817 182.207 106.678 182.066C106.54 181.925 106.33 181.854 106.05 181.854C105.758 181.854 105.53 181.918 105.364 182.045C105.198 182.173 105.082 182.309 105.015 182.453L104.435 182.247C104.539 182.005 104.677 181.817 104.849 181.683C105.023 181.547 105.213 181.452 105.418 181.399C105.625 181.343 105.829 181.316 106.029 181.316C106.156 181.316 106.303 181.332 106.468 181.363C106.635 181.392 106.796 181.453 106.952 181.546C107.109 181.639 107.239 181.779 107.343 181.968C107.446 182.155 107.497 182.407 107.497 182.722V185.339H106.887V184.801H106.856C106.815 184.887 106.746 184.979 106.649 185.077C106.553 185.175 106.424 185.259 106.264 185.328C106.104 185.397 105.908 185.432 105.677 185.432ZM105.77 184.883C106.011 184.883 106.215 184.836 106.38 184.741C106.547 184.646 106.673 184.524 106.758 184.374C106.844 184.224 106.887 184.066 106.887 183.901V183.342C106.861 183.374 106.805 183.402 106.717 183.428C106.63 183.452 106.531 183.473 106.417 183.493C106.305 183.51 106.195 183.526 106.088 183.539C105.983 183.551 105.898 183.561 105.832 183.571C105.673 183.59 105.525 183.625 105.387 183.671C105.251 183.716 105.14 183.784 105.056 183.875C104.973 183.965 104.932 184.087 104.932 184.242C104.932 184.455 105.011 184.615 105.168 184.723C105.326 184.83 105.526 184.883 105.77 184.883ZM108.612 185.339V181.368H109.202V181.968H109.243C109.315 181.771 109.447 181.612 109.636 181.49C109.825 181.367 110.04 181.306 110.277 181.306C110.322 181.306 110.378 181.307 110.446 181.309C110.513 181.31 110.564 181.313 110.598 181.316V181.936C110.577 181.931 110.53 181.924 110.456 181.913C110.383 181.901 110.307 181.895 110.226 181.895C110.032 181.895 109.86 181.935 109.708 182.017C109.559 182.096 109.439 182.206 109.351 182.348C109.266 182.487 109.222 182.647 109.222 182.826V185.339H108.612Z" fill="#D6D5D5"/>
<path d="M130.458 185.339H129.786L131.731 180.044H132.393L134.338 185.339H133.666L132.083 180.882H132.041L130.458 185.339ZM130.706 183.27H133.417V183.839H130.706V183.27ZM135.08 186.827V181.368H135.67V181.998H135.742C135.787 181.93 135.849 181.842 135.929 181.735C136.009 181.627 136.125 181.529 136.275 181.446C136.427 181.359 136.632 181.316 136.891 181.316C137.225 181.316 137.52 181.4 137.775 181.567C138.03 181.734 138.23 181.971 138.373 182.277C138.516 182.584 138.587 182.946 138.587 183.363C138.587 183.784 138.516 184.148 138.373 184.457C138.23 184.763 138.031 185.002 137.778 185.17C137.524 185.337 137.232 185.421 136.901 185.421C136.646 185.421 136.441 185.378 136.288 185.295C136.135 185.208 136.017 185.11 135.934 185.002C135.851 184.892 135.787 184.801 135.742 184.728H135.69V186.827H135.08ZM135.681 183.353C135.681 183.653 135.725 183.918 135.813 184.147C135.9 184.374 136.029 184.553 136.198 184.682C136.367 184.809 136.573 184.873 136.818 184.873C137.073 184.873 137.287 184.806 137.457 184.671C137.63 184.535 137.759 184.352 137.845 184.123C137.933 183.893 137.977 183.635 137.977 183.353C137.977 183.074 137.934 182.823 137.847 182.599C137.764 182.373 137.635 182.194 137.462 182.063C137.292 181.93 137.077 181.864 136.818 181.864C136.57 181.864 136.362 181.927 136.192 182.053C136.024 182.177 135.896 182.351 135.809 182.575C135.724 182.797 135.681 183.057 135.681 183.353ZM139.519 185.339V181.368H140.108V181.968H140.15C140.222 181.771 140.353 181.612 140.543 181.49C140.733 181.367 140.946 181.306 141.185 181.306C141.229 181.306 141.285 181.307 141.352 181.309C141.42 181.31 141.47 181.313 141.505 181.316V181.936C141.484 181.931 141.437 181.924 141.362 181.913C141.29 181.901 141.214 181.895 141.132 181.895C140.94 181.895 140.767 181.935 140.615 182.017C140.465 182.096 140.347 182.206 140.259 182.348C140.172 182.487 140.129 182.647 140.129 182.826V185.339H139.519Z" fill="#D6D5D5"/>
<path d="M160.962 180.044H161.728L163.528 184.439H163.59L165.39 180.044H166.155V185.339H165.556V181.316H165.504L163.849 185.339H163.269L161.614 181.316H161.562V185.339H160.962V180.044ZM168.528 185.432C168.276 185.432 168.048 185.384 167.843 185.289C167.638 185.192 167.474 185.054 167.354 184.873C167.233 184.69 167.173 184.47 167.173 184.211C167.173 183.984 167.218 183.8 167.307 183.658C167.397 183.515 167.517 183.403 167.667 183.322C167.816 183.241 167.982 183.18 168.164 183.141C168.346 183.1 168.53 183.067 168.714 183.043C168.956 183.012 169.151 182.989 169.301 182.973C169.453 182.955 169.564 182.927 169.633 182.887C169.703 182.848 169.738 182.779 169.738 182.681V182.66C169.738 182.405 169.669 182.207 169.529 182.066C169.391 181.925 169.182 181.854 168.9 181.854C168.609 181.854 168.38 181.918 168.215 182.045C168.05 182.173 167.933 182.309 167.866 182.453L167.286 182.247C167.39 182.005 167.528 181.817 167.7 181.683C167.875 181.547 168.064 181.452 168.269 181.399C168.477 181.343 168.68 181.316 168.879 181.316C169.007 181.316 169.154 181.332 169.32 181.363C169.487 181.392 169.648 181.453 169.803 181.546C169.96 181.639 170.09 181.779 170.193 181.968C170.297 182.155 170.349 182.407 170.349 182.722V185.339H169.738V184.801H169.708C169.666 184.887 169.597 184.979 169.501 185.077C169.404 185.175 169.276 185.259 169.115 185.328C168.955 185.397 168.759 185.432 168.528 185.432ZM168.621 184.883C168.863 184.883 169.066 184.836 169.232 184.741C169.399 184.646 169.525 184.524 169.61 184.374C169.695 184.224 169.738 184.066 169.738 183.901V183.342C169.713 183.374 169.656 183.402 169.568 183.428C169.482 183.452 169.382 183.473 169.267 183.493C169.156 183.51 169.046 183.526 168.939 183.539C168.834 183.551 168.749 183.561 168.683 183.571C168.525 183.59 168.376 183.625 168.238 183.671C168.102 183.716 167.992 183.784 167.907 183.875C167.825 183.965 167.783 184.087 167.783 184.242C167.783 184.455 167.861 184.615 168.018 184.723C168.177 184.83 168.378 184.883 168.621 184.883ZM171.714 186.827C171.61 186.827 171.518 186.819 171.437 186.801C171.356 186.785 171.3 186.77 171.269 186.755L171.424 186.217C171.572 186.255 171.703 186.269 171.817 186.258C171.931 186.248 172.032 186.197 172.12 186.106C172.209 186.016 172.291 185.871 172.365 185.669L172.479 185.359L171.011 181.368H171.673L172.769 184.532H172.811L173.907 181.368H174.57L172.883 185.917C172.807 186.122 172.713 186.292 172.601 186.427C172.489 186.563 172.359 186.663 172.211 186.729C172.064 186.795 171.899 186.827 171.714 186.827Z" fill="#D6D5D5"/>
<path d="M195.948 180.044H196.589V183.829C196.589 184.167 196.527 184.453 196.403 184.689C196.279 184.925 196.104 185.105 195.878 185.227C195.652 185.349 195.386 185.411 195.079 185.411C194.79 185.411 194.531 185.358 194.305 185.253C194.079 185.146 193.902 184.994 193.773 184.798C193.643 184.601 193.579 184.368 193.579 184.098H194.21C194.21 184.247 194.247 184.378 194.321 184.49C194.397 184.601 194.5 184.687 194.632 184.749C194.762 184.811 194.912 184.842 195.079 184.842C195.264 184.842 195.42 184.803 195.549 184.725C195.679 184.648 195.777 184.534 195.844 184.384C195.913 184.233 195.948 184.048 195.948 183.829V180.044ZM200.296 183.715V181.368H200.906V185.339H200.296V184.666H200.255C200.162 184.868 200.016 185.039 199.82 185.181C199.623 185.32 199.375 185.39 199.075 185.39C198.827 185.39 198.606 185.335 198.412 185.227C198.22 185.117 198.068 184.951 197.957 184.731C197.848 184.509 197.792 184.229 197.792 183.891V181.368H198.402V183.849C198.402 184.139 198.484 184.37 198.646 184.542C198.809 184.714 199.018 184.801 199.271 184.801C199.423 184.801 199.578 184.762 199.735 184.684C199.893 184.606 200.026 184.488 200.132 184.328C200.241 184.167 200.296 183.963 200.296 183.715ZM202.634 182.95V185.339H202.024V181.368H202.614V181.988H202.666C202.759 181.787 202.9 181.625 203.089 181.502C203.279 181.378 203.524 181.316 203.824 181.316C204.093 181.316 204.328 181.371 204.53 181.481C204.732 181.59 204.889 181.755 205.001 181.978C205.113 182.198 205.169 182.477 205.169 182.815V185.339H204.558V182.857C204.558 182.545 204.478 182.302 204.316 182.128C204.153 181.952 203.931 181.864 203.648 181.864C203.454 181.864 203.279 181.906 203.126 181.991C202.974 182.076 202.854 182.198 202.766 182.36C202.678 182.522 202.634 182.719 202.634 182.95Z" fill="#D6D5D5"/>
<path d="M226.656 180.044H227.297V183.829C227.297 184.167 227.235 184.453 227.111 184.689C226.987 184.925 226.812 185.105 226.587 185.227C226.361 185.349 226.094 185.411 225.787 185.411C225.498 185.411 225.239 185.358 225.013 185.253C224.788 185.146 224.611 184.994 224.481 184.798C224.351 184.601 224.287 184.368 224.287 184.098H224.918C224.918 184.247 224.955 184.378 225.029 184.49C225.105 184.601 225.209 184.687 225.34 184.749C225.471 184.811 225.62 184.842 225.787 184.842C225.972 184.842 226.129 184.803 226.258 184.725C226.387 184.648 226.485 184.534 226.552 184.384C226.621 184.233 226.656 184.048 226.656 183.829V180.044ZM231.004 183.715V181.368H231.615V185.339H231.004V184.666H230.963C230.87 184.868 230.724 185.039 230.528 185.181C230.331 185.32 230.083 185.39 229.783 185.39C229.535 185.39 229.314 185.335 229.121 185.227C228.928 185.117 228.776 184.951 228.665 184.731C228.556 184.509 228.5 184.229 228.5 183.891V181.368H229.111V183.849C229.111 184.139 229.192 184.37 229.354 184.542C229.518 184.714 229.726 184.801 229.979 184.801C230.131 184.801 230.286 184.762 230.443 184.684C230.601 184.606 230.734 184.488 230.841 184.328C230.949 184.167 231.004 183.963 231.004 183.715ZM233.342 180.044V185.339H232.733V180.044H233.342Z" fill="#D6D5D5"/>
<path d="M44.6732 96.3645C44.6732 92.9835 41.9307 90.2427 38.5477 90.2427C35.1647 90.2427 32.4222 92.9835 32.4222 96.3645V159.064C32.4222 162.445 35.1647 165.186 38.5477 165.186C41.9307 165.186 44.6732 162.445 44.6732 159.064V96.3645Z" fill="#909090"/>
<path d="M75.3006 66.9514C75.3006 63.5704 72.5581 60.8296 69.1751 60.8296C65.7921 60.8296 63.0497 63.5704 63.0497 66.9514V159.064C63.0497 162.445 65.7921 165.186 69.1751 165.186C72.5581 165.186 75.3006 162.445 75.3006 159.064V66.9514Z" fill="url(#paint1_linear_45_396)"/>
<path d="M107.459 74.2317C107.459 70.8507 104.717 68.1099 101.334 68.1099C97.9509 68.1099 95.2084 70.8507 95.2084 74.2317V159.61C95.2084 162.991 97.9509 165.732 101.334 165.732C104.717 165.732 107.459 162.991 107.459 159.61V74.2317Z" fill="#909090"/>
<path d="M138.087 120.344C138.087 116.963 135.344 114.222 131.961 114.222C128.578 114.222 125.836 116.963 125.836 120.344V158.572C125.836 161.953 128.578 164.694 131.961 164.694C135.344 164.694 138.087 161.953 138.087 158.572V120.344Z" fill="#909090"/>
<path d="M168.714 71.8059C168.714 68.4249 165.971 65.6841 162.588 65.6841C159.205 65.6841 156.463 68.4249 156.463 71.8059V158.81C156.463 162.191 159.205 164.932 162.588 164.932C165.971 164.932 168.714 162.191 168.714 158.81V71.8059Z" fill="#909090"/>
<path d="M200.873 108.208C200.873 104.827 198.13 102.086 194.747 102.086C191.364 102.086 188.622 104.827 188.622 108.208V158.672C188.622 162.053 191.364 164.794 194.747 164.794C198.13 164.794 200.873 162.053 200.873 158.672V108.208Z" fill="#909090"/>
<path d="M231.5 88.7176C231.5 85.3366 228.757 82.5957 225.374 82.5957C221.991 82.5957 219.249 85.3366 219.249 88.7176V159.064C219.249 162.445 221.991 165.186 225.374 165.186C228.757 165.186 231.5 162.445 231.5 159.064V88.7176Z" fill="#909090"/>
<defs>
<linearGradient id="paint0_linear_45_396" x1="133" y1="17.9995" x2="133" y2="210" gradientUnits="userSpaceOnUse">
<stop stop-color="#131212"/>
<stop offset="1" stop-color="#0A0909" stop-opacity="0.9"/>
</linearGradient>
<linearGradient id="paint1_linear_45_396" x1="69.1751" y1="60.8296" x2="69.1751" y2="165.186" gradientUnits="userSpaceOnUse">
<stop stop-color="#FFA21F"/>
<stop offset="1" stop-color="#FF6115"/>
</linearGradient>
</defs>
</svg>
