<svg width="1439" height="788" viewBox="0 0 1439 788" fill="none" xmlns="http://www.w3.org/2000/svg">
<ellipse cx="50.0226" cy="50.054" rx="50.0226" ry="50.054" transform="matrix(0.917093 0.398674 -0.398058 0.91736 1347.36 0.291992)" fill="url(#paint0_linear_40_255)"/>
<ellipse cx="26.719" cy="26.7067" rx="26.719" ry="26.7067" transform="matrix(0.499541 -0.86629 0.86576 0.500459 1226.27 81.4036)" fill="url(#paint1_linear_40_255)"/>
<ellipse cx="16.6754" cy="16.6677" rx="16.6754" ry="16.6677" transform="matrix(0.499655 -0.866224 0.865826 0.500345 1327.3 215.189)" fill="url(#paint2_linear_40_255)"/>
<ellipse cx="11.58" cy="11.5747" rx="11.58" ry="11.5747" transform="matrix(0.499655 -0.866224 0.865826 0.500345 1267.28 169.316)" fill="url(#paint3_linear_40_255)"/>
<ellipse cx="50.0226" cy="50.054" rx="50.0226" ry="50.054" transform="matrix(-0.917093 -0.398674 0.398058 -0.91736 1319.02 787.444)" fill="url(#paint4_linear_40_255)"/>
<ellipse cx="26.719" cy="26.7067" rx="26.719" ry="26.7067" transform="matrix(-0.499541 0.86629 -0.86576 -0.500459 1440.11 706.332)" fill="url(#paint5_linear_40_255)"/>
<ellipse cx="16.6754" cy="16.6677" rx="16.6754" ry="16.6677" transform="matrix(-0.499655 0.866224 -0.865826 -0.500345 1339.08 572.547)" fill="url(#paint6_linear_40_255)"/>
<ellipse cx="11.58" cy="11.5747" rx="11.58" ry="11.5747" transform="matrix(-0.499655 0.866224 -0.865826 -0.500345 1399.1 618.42)" fill="url(#paint7_linear_40_255)"/>
<ellipse cx="50.0226" cy="50.054" rx="50.0226" ry="50.054" transform="matrix(0.917093 -0.398674 -0.398058 -0.91736 121.204 231.575)" fill="url(#paint8_linear_40_255)"/>
<ellipse cx="26.719" cy="26.7067" rx="26.719" ry="26.7067" transform="matrix(0.499541 0.86629 0.86576 -0.500459 0.110168 150.464)" fill="url(#paint9_linear_40_255)"/>
<ellipse cx="16.6754" cy="16.6677" rx="16.6754" ry="16.6677" transform="matrix(0.499655 0.866224 0.865826 -0.500345 101.141 16.6787)" fill="url(#paint10_linear_40_255)"/>
<ellipse cx="11.58" cy="11.5747" rx="11.58" ry="11.5747" transform="matrix(0.499655 0.866224 0.865826 -0.500345 41.1227 62.5518)" fill="url(#paint11_linear_40_255)"/>
<ellipse cx="50.0226" cy="50.054" rx="50.0226" ry="50.054" transform="matrix(-0.917093 0.398674 0.398058 0.91736 92.8612 551.575)" fill="url(#paint12_linear_40_255)"/>
<ellipse cx="26.719" cy="26.7067" rx="26.719" ry="26.7067" transform="matrix(-0.499541 -0.86629 -0.86576 0.500459 213.955 632.687)" fill="url(#paint13_linear_40_255)"/>
<ellipse cx="16.6754" cy="16.6677" rx="16.6754" ry="16.6677" transform="matrix(-0.499655 -0.866224 -0.865826 0.500345 112.924 766.472)" fill="url(#paint14_linear_40_255)"/>
<ellipse cx="11.58" cy="11.5747" rx="11.58" ry="11.5747" transform="matrix(-0.499655 -0.866224 -0.865826 0.500345 172.943 720.599)" fill="url(#paint15_linear_40_255)"/>
<defs>
<linearGradient id="paint0_linear_40_255" x1="50.0226" y1="100.108" x2="50.0226" y2="0" gradientUnits="userSpaceOnUse">
<stop stop-color="#131212"/>
<stop offset="1" stop-color="#1C1A1A"/>
</linearGradient>
<linearGradient id="paint1_linear_40_255" x1="26.719" y1="53.4135" x2="26.719" y2="0" gradientUnits="userSpaceOnUse">
<stop stop-color="#131212"/>
<stop offset="1" stop-color="#1C1A1A"/>
</linearGradient>
<linearGradient id="paint2_linear_40_255" x1="16.6754" y1="33.3354" x2="16.6754" y2="0" gradientUnits="userSpaceOnUse">
<stop stop-color="#131212"/>
<stop offset="1" stop-color="#1C1A1A"/>
</linearGradient>
<linearGradient id="paint3_linear_40_255" x1="11.58" y1="23.1493" x2="11.58" y2="0" gradientUnits="userSpaceOnUse">
<stop stop-color="#131212"/>
<stop offset="1" stop-color="#1C1A1A"/>
</linearGradient>
<linearGradient id="paint4_linear_40_255" x1="50.0226" y1="100.108" x2="50.0226" y2="0" gradientUnits="userSpaceOnUse">
<stop stop-color="#131212"/>
<stop offset="1" stop-color="#1A1919"/>
</linearGradient>
<linearGradient id="paint5_linear_40_255" x1="26.719" y1="53.4135" x2="26.719" y2="0" gradientUnits="userSpaceOnUse">
<stop stop-color="#131212"/>
<stop offset="1" stop-color="#1A1919"/>
</linearGradient>
<linearGradient id="paint6_linear_40_255" x1="16.6754" y1="33.3354" x2="16.6754" y2="0" gradientUnits="userSpaceOnUse">
<stop stop-color="#131212"/>
<stop offset="1" stop-color="#1A1919"/>
</linearGradient>
<linearGradient id="paint7_linear_40_255" x1="11.58" y1="23.1493" x2="11.58" y2="0" gradientUnits="userSpaceOnUse">
<stop stop-color="#131212"/>
<stop offset="1" stop-color="#1A1919"/>
</linearGradient>
<linearGradient id="paint8_linear_40_255" x1="50.0226" y1="100.108" x2="50.0226" y2="0" gradientUnits="userSpaceOnUse">
<stop stop-color="#131212"/>
<stop offset="1" stop-color="#1A1919"/>
</linearGradient>
<linearGradient id="paint9_linear_40_255" x1="26.719" y1="53.4135" x2="26.719" y2="0" gradientUnits="userSpaceOnUse">
<stop stop-color="#131212"/>
<stop offset="1" stop-color="#1A1919"/>
</linearGradient>
<linearGradient id="paint10_linear_40_255" x1="16.6754" y1="33.3354" x2="16.6754" y2="0" gradientUnits="userSpaceOnUse">
<stop stop-color="#131212"/>
<stop offset="1" stop-color="#1A1919"/>
</linearGradient>
<linearGradient id="paint11_linear_40_255" x1="11.58" y1="23.1493" x2="11.58" y2="0" gradientUnits="userSpaceOnUse">
<stop stop-color="#131212"/>
<stop offset="1" stop-color="#1A1919"/>
</linearGradient>
<linearGradient id="paint12_linear_40_255" x1="50.0226" y1="100.108" x2="50.0226" y2="0" gradientUnits="userSpaceOnUse">
<stop stop-color="#131212"/>
<stop offset="1" stop-color="#1A1818"/>
</linearGradient>
<linearGradient id="paint13_linear_40_255" x1="26.719" y1="53.4135" x2="26.719" y2="0" gradientUnits="userSpaceOnUse">
<stop stop-color="#131212"/>
<stop offset="1" stop-color="#1A1818"/>
</linearGradient>
<linearGradient id="paint14_linear_40_255" x1="16.6754" y1="33.3354" x2="16.6754" y2="0" gradientUnits="userSpaceOnUse">
<stop stop-color="#131212"/>
<stop offset="1" stop-color="#1A1818"/>
</linearGradient>
<linearGradient id="paint15_linear_40_255" x1="11.58" y1="23.1493" x2="11.58" y2="0" gradientUnits="userSpaceOnUse">
<stop stop-color="#131212"/>
<stop offset="1" stop-color="#1A1818"/>
</linearGradient>
</defs>
</svg>
