<svg width="60" height="61" viewBox="0 0 60 61" fill="none" xmlns="http://www.w3.org/2000/svg">
<path d="M29.3476 11.9477L29.5712 11.5005L29.3476 11.9477C39.4058 16.9766 48.0817 17.9922 54.9128 17.3328C55.5453 18.5394 56.0947 19.7964 56.5533 21.0961C50.7576 22.0999 42.5559 21.7834 32.4126 16.7119C23.0175 12.0143 14.8282 10.8184 8.22169 11.2189C9.60175 9.71601 11.1395 8.36033 12.8088 7.17809C17.4946 7.48237 23.045 8.79639 29.3476 11.9477ZM3.81861 18.732L3.81871 18.732C9.66136 17.4336 18.3674 17.3519 29.3476 22.8419C41.0163 28.6763 50.8223 29.1077 58.0428 27.7923C58.1369 28.7391 58.185 29.6995 58.185 30.6712C58.185 31.0038 58.1794 31.3351 58.1682 31.6648C58.0932 31.6821 58.0177 31.6992 57.9419 31.716L57.9417 31.716C52.0989 33.0144 43.3929 33.0962 32.4126 27.6061C19.9782 21.3888 9.65988 21.3073 2.33192 22.9357L2.33186 22.9357C2.10383 22.9864 1.8789 23.0387 1.65709 23.0925C2.05242 21.641 2.5585 20.2352 3.16579 18.8848C3.37957 18.8322 3.59717 18.7812 3.81861 18.732ZM29.3476 33.7362L29.554 33.3234L29.3476 33.7362C40.4646 39.2945 49.8912 39.9493 57.0027 38.8608C53.4758 50.7599 42.4592 59.4395 29.4167 59.4395C13.5284 59.4395 0.648438 46.5595 0.648438 30.6712C0.648438 30.6213 0.648566 30.5714 0.648821 30.5216C1.59682 30.1936 2.65519 29.8847 3.81866 29.6262L3.81871 29.6262C9.66136 28.3278 18.3674 28.2461 29.3476 33.7362ZM29.4167 1.90295C37.5186 1.90295 44.8378 5.25151 50.0668 10.6415C45.1534 10.4826 39.2217 9.22209 32.4126 5.81759C29.5037 4.36312 26.7097 3.24404 24.0418 2.40411C25.7828 2.07513 27.5795 1.90295 29.4167 1.90295Z" fill="url(#paint0_linear_2001_2161)" stroke="url(#paint1_linear_2001_2161)"/>
<defs>
<linearGradient id="paint0_linear_2001_2161" x1="29.4167" y1="1.40295" x2="29.4167" y2="59.9395" gradientUnits="userSpaceOnUse">
<stop stop-color="#FFA21F"/>
<stop offset="1" stop-color="#FF6115"/>
</linearGradient>
<linearGradient id="paint1_linear_2001_2161" x1="29.4167" y1="1.40295" x2="29.4167" y2="59.9395" gradientUnits="userSpaceOnUse">
<stop stop-color="#FFA21F"/>
<stop offset="1" stop-color="#FF6115"/>
</linearGradient>
</defs>
</svg>
