<svg width="61" height="60" viewBox="0 0 61 60" fill="none" xmlns="http://www.w3.org/2000/svg">
<path fill-rule="evenodd" clip-rule="evenodd" d="M27.2058 26.9455L23.7178 36.5997L33.3721 33.1117C33.619 33.0224 33.8432 32.8798 34.0289 32.6941C34.2146 32.5085 34.3572 32.2842 34.4465 32.0373L37.9345 22.3831L28.2802 25.871C28.0328 25.9594 27.8081 26.1017 27.6223 26.2875C27.4365 26.4733 27.2942 26.698 27.2058 26.9455Z" fill="url(#paint0_linear_27_60)"/>
<path fill-rule="evenodd" clip-rule="evenodd" d="M30.8345 3.33301C25.6592 3.33301 20.6001 4.86766 16.297 7.74289C11.994 10.6181 8.64011 14.7048 6.65962 19.4861C4.67912 24.2675 4.16094 29.5287 5.17058 34.6045C6.18023 39.6804 8.67236 44.3428 12.3318 48.0023C15.9913 51.6618 20.6538 54.1539 25.7296 55.1636C30.8054 56.1732 36.0667 55.655 40.848 53.6745C45.6293 51.694 49.716 48.3402 52.5913 44.0371C55.4665 39.734 57.0011 34.675 57.0011 29.4997C57.0011 22.5598 54.2443 15.9043 49.3371 10.997C44.4299 6.08985 37.7743 3.33301 30.8345 3.33301ZM41.8081 23.3014L38.1448 33.441C37.8659 34.216 37.4193 34.9198 36.837 35.5022C36.2546 36.0845 35.5508 36.5311 34.7758 36.81L24.6362 40.4733C23.9677 40.7138 23.2445 40.7592 22.5511 40.6041C21.8577 40.4491 21.2227 40.0999 20.7203 39.5975C20.2179 39.0951 19.8687 38.4601 19.7136 37.7667C19.5586 37.0733 19.6039 36.3501 19.8445 35.6816L23.5078 25.542C23.7867 24.767 24.2332 24.0632 24.8156 23.4808C25.398 22.8985 26.1018 22.4519 26.8768 22.173L37.0163 18.5097C37.6849 18.2692 38.4081 18.2238 39.1015 18.3789C39.7949 18.5339 40.4299 18.8831 40.9323 19.3855C41.4347 19.8879 41.7839 20.5229 41.9389 21.2163C42.094 21.9097 42.0486 22.6329 41.8081 23.3014Z" fill="url(#paint1_linear_27_60)"/>
<defs>
<linearGradient id="paint0_linear_27_60" x1="30.8262" y1="22.3831" x2="30.8262" y2="36.5997" gradientUnits="userSpaceOnUse">
<stop stop-color="#FFA21F"/>
<stop offset="1" stop-color="#FF6115"/>
</linearGradient>
<linearGradient id="paint1_linear_27_60" x1="30.8345" y1="3.33301" x2="30.8345" y2="55.6664" gradientUnits="userSpaceOnUse">
<stop stop-color="#FFA21F"/>
<stop offset="1" stop-color="#FF6115"/>
</linearGradient>
</defs>
</svg>
