<svg width="59" height="59" viewBox="0 0 59 59" fill="none" xmlns="http://www.w3.org/2000/svg">
<path fill-rule="evenodd" clip-rule="evenodd" d="M29.4167 59.0095C45.5813 59.0095 58.685 45.9057 58.685 29.7413C58.685 13.5769 45.5813 0.473022 29.4167 0.473022C13.2523 0.473022 0.148438 13.5769 0.148438 29.7413C0.148438 45.9057 13.2523 59.0095 29.4167 59.0095ZM33.9342 23.0865C36.4291 20.5915 36.4291 16.5465 33.9342 14.0515C31.4393 11.5566 27.3942 11.5566 24.8993 14.0515C22.4044 16.5465 22.4044 20.5915 24.8993 23.0865L29.4167 27.6039L33.9342 23.0865ZM36.0715 34.2588C38.5665 36.7538 42.6115 36.7538 45.1065 34.2588C47.6014 31.7638 47.6014 27.7188 45.1065 25.2238C42.6115 22.729 38.5665 22.729 36.0715 25.2238L31.5541 29.7414L36.0715 34.2588ZM33.9342 45.4311C36.4291 42.9361 36.4291 38.8911 33.9342 36.3961L29.4167 31.8787L24.8993 36.3961C22.4044 38.8911 22.4044 42.9361 24.8993 45.4311C27.3942 47.9261 31.4393 47.9261 33.9342 45.4311ZM13.7269 34.2588C11.232 31.7638 11.232 27.7188 13.7269 25.2238C16.2219 22.729 20.267 22.729 22.7619 25.2238L27.2794 29.7414L22.7619 34.2588C20.267 36.7538 16.2219 36.7538 13.7269 34.2588Z" fill="#322F2D"/>
</svg>
