<svg width="60" height="61" viewBox="0 0 60 61" fill="none" xmlns="http://www.w3.org/2000/svg">
<g clip-path="url(#clip0_2001_2152)">
<path fill-rule="evenodd" clip-rule="evenodd" d="M29.4167 59.0727C45.5813 59.0727 58.685 45.9688 58.685 29.8044C58.685 13.64 45.5813 0.536133 29.4167 0.536133C13.2523 0.536133 0.148438 13.64 0.148438 29.8044C0.148438 45.9688 13.2523 59.0727 29.4167 59.0727ZM33.9342 23.1496C36.4291 20.6547 36.4291 16.6096 33.9342 14.1147C31.4393 11.6197 27.3942 11.6197 24.8993 14.1147C22.4044 16.6096 22.4044 20.6547 24.8993 23.1496L29.4167 27.667L33.9342 23.1496ZM36.0715 34.3219C38.5665 36.8169 42.6115 36.8169 45.1065 34.3219C47.6014 31.827 47.6014 27.7819 45.1065 25.2869C42.6115 22.7921 38.5665 22.7921 36.0715 25.2869L31.5541 29.8045L36.0715 34.3219ZM33.9342 45.4942C36.4291 42.9992 36.4291 38.9542 33.9342 36.4592L29.4167 31.9418L24.8993 36.4592C22.4044 38.9542 22.4044 42.9992 24.8993 45.4942C27.3942 47.9892 31.4393 47.9892 33.9342 45.4942ZM13.7269 34.3219C11.232 31.827 11.232 27.7819 13.7269 25.2869C16.2219 22.7921 20.267 22.7921 22.7619 25.2869L27.2794 29.8045L22.7619 34.3219C20.267 36.8169 16.2219 36.8169 13.7269 34.3219Z" fill="url(#paint0_linear_2001_2152)"/>
</g>
<defs>
<linearGradient id="paint0_linear_2001_2152" x1="29.4167" y1="0.536133" x2="29.4167" y2="59.0727" gradientUnits="userSpaceOnUse">
<stop stop-color="#FFA21F"/>
<stop offset="1" stop-color="#FF6115"/>
</linearGradient>
<clipPath id="clip0_2001_2152">
<rect width="60" height="60" fill="white" transform="translate(0 0.0631104)"/>
</clipPath>
</defs>
</svg>
