<svg width="60" height="60" viewBox="0 0 60 60" fill="none" xmlns="http://www.w3.org/2000/svg">
<path fill-rule="evenodd" clip-rule="evenodd" d="M12.6646 5.69486C10.571 7.1588 8.67776 8.88966 7.03427 10.8381C13.7503 10.2146 22.2828 11.2327 32.189 16.1858C42.7674 21.4749 51.2856 21.6537 57.2139 20.5102C56.676 18.8816 55.9987 17.3163 55.1966 15.8283C48.4103 16.544 39.7103 15.5966 29.5712 10.5272C23.1328 7.308 17.4574 5.9819 12.6646 5.69486ZM51.2324 10.1858C45.8732 4.19798 38.0851 0.429695 29.4167 0.429695C26.8711 0.429695 24.4011 0.75473 22.0465 1.36552C25.2355 2.23567 28.6234 3.5087 32.189 5.29155C39.6123 9.00315 46.0212 10.1982 51.2324 10.1858ZM58.4814 26.2269C51.3195 27.6411 41.4296 27.3506 29.5712 21.4215C18.485 15.8783 9.66126 15.9481 3.71024 17.2706C3.40307 17.3388 3.10313 17.4105 2.81043 17.4852C2.0313 19.1797 1.40937 20.9615 0.963123 22.8119C1.43973 22.6845 1.93224 22.5635 2.44038 22.4505C9.66 20.8462 19.8607 20.9159 32.189 27.08C43.2754 32.6232 52.099 32.5534 58.0501 31.2309C58.254 31.1857 58.4549 31.1388 58.6525 31.0905C58.6741 30.6291 58.685 30.1648 58.685 29.698C58.685 28.5236 58.6159 27.3653 58.4814 26.2269ZM57.6969 37.2672C50.6044 38.5071 41.0025 38.0312 29.5712 32.3157C18.485 26.7726 9.66126 26.8424 3.71024 28.1649C2.38929 28.4583 1.20098 28.8158 0.152725 29.1932C0.149867 29.3611 0.148438 29.5294 0.148438 29.698C0.148438 45.8624 13.2523 58.9662 29.4167 58.9662C42.9636 58.9662 54.361 49.7627 57.6969 37.2672Z" fill="#322F2D"/>
</svg>
