<svg width="66" height="60" viewBox="0 0 66 60" fill="none" xmlns="http://www.w3.org/2000/svg">
<path d="M59.6 34H38.1V12.5C38.1 12 37.6 11.5 37.1 11.5C30.5 11.5 24.2 14.3 19.8 19.1C26.9 19.5 32.6 25.5 32.6 32.7C32.6 40.2 26.5 46.4 18.9 46.4C18.1 46.4 17.2 46.3 16.4 46.2C20.5 53.6 28.4 58.4 37 58.4C49.9 58.4 60.5 47.9 60.5 34.9C60.6 34.4 60.2 34 59.6 34Z" fill="url(#paint0_linear_19_581)"/>
<path d="M2.69999 49.1C4.19999 50.6 6.79999 50.7 8.29999 49.1L14.1 43.3C15.6 44 17.3 44.4 19 44.4C25.4 44.4 30.7 39.2 30.7 32.7C30.7 26.3 25.5 21 19 21C12.5 21 7.29999 26.3 7.29999 32.7C7.29999 34.5 7.69999 36.1 8.39998 37.6L2.59999 43.4C1.09999 45 1.09999 47.5 2.69999 49.1ZM19 23.1C24.3 23.1 28.7 27.4 28.7 32.8C28.7 38.1 24.4 42.5 19 42.5C13.6 42.5 9.29999 38.2 9.29999 32.8C9.29999 27.4 13.7 23.1 19 23.1Z" fill="url(#paint1_linear_19_581)"/>
<path d="M52 29.2L61.7 19.5C61.8 19.4 61.9 19.4 62 19.3C61.1 17.6 60 16.1 58.8 14.7L43.6 29.9H51.8C51.7 29.7 51.8 29.4 52 29.2Z" fill="url(#paint2_linear_19_581)"/>
<path fill-rule="evenodd" clip-rule="evenodd" d="M42.2 18V9.60003C42.2 8.40003 43.2 7.50002 44.3 7.70002C46.7 7.90002 48.9 8.40003 50.9 9.30003L42.2 18ZM57.3 13.4C55.9 12.1 54.4 11 52.7 10.2C52.7 10.3 52.6 10.4 52.5 10.5L42.8 20.2C42.6 20.4 42.3 20.5 42.1 20.5V28.7L57.3 13.4ZM64.5 27.7999C64.3 25.5 63.7 23.3 62.9 21.2L54.2 29.9H62.6C63.7 29.9 64.6 29 64.5 27.7999Z" fill="url(#paint3_linear_19_581)"/>
<defs>
<linearGradient id="paint0_linear_19_581" x1="38.4577" y1="11.5" x2="38.4577" y2="58.4" gradientUnits="userSpaceOnUse">
<stop stop-color="#FFA21F"/>
<stop offset="1" stop-color="#FF6115"/>
</linearGradient>
<linearGradient id="paint1_linear_19_581" x1="16.0936" y1="21" x2="16.0936" y2="50.2628" gradientUnits="userSpaceOnUse">
<stop stop-color="#FFA21F"/>
<stop offset="1" stop-color="#FF6115"/>
</linearGradient>
<linearGradient id="paint2_linear_19_581" x1="52.8" y1="14.7" x2="52.8" y2="29.9" gradientUnits="userSpaceOnUse">
<stop stop-color="#FFA21F"/>
<stop offset="1" stop-color="#FF6115"/>
</linearGradient>
<linearGradient id="paint3_linear_19_581" x1="53.3038" y1="7.67212" x2="53.3038" y2="29.9" gradientUnits="userSpaceOnUse">
<stop stop-color="#FFA21F"/>
<stop offset="1" stop-color="#FF6115"/>
</linearGradient>
</defs>
</svg>
