<svg width="133" height="31" viewBox="0 0 133 31" fill="none" xmlns="http://www.w3.org/2000/svg">
<g clip-path="url(#clip0_38_107)">
<path fill-rule="evenodd" clip-rule="evenodd" d="M11.75 21.4995C10.7554 21.4995 9.80161 21.1044 9.09835 20.4012C8.39509 19.6979 8 18.7441 8 17.7495V0.499512H0.5V17.7495C0.5 23.9625 5.537 28.9995 11.75 28.9995H20V21.4995H11.75ZM34.25 7.99951C33.3636 7.99951 32.4858 8.17411 31.6669 8.51332C30.8479 8.85254 30.1038 9.34975 29.477 9.97654C28.8502 10.6033 28.353 11.3475 28.0138 12.1664C27.6746 12.9853 27.5 13.8631 27.5 14.7495C27.5 15.6359 27.6746 16.5137 28.0138 17.3326C28.353 18.1516 28.8502 18.8957 29.477 19.5225C30.1038 20.1493 30.8479 20.6465 31.6669 20.9857C32.4858 21.3249 33.3636 21.4995 34.25 21.4995C36.0402 21.4995 37.7571 20.7884 39.023 19.5225C40.2888 18.2566 41 16.5397 41 14.7495C41 12.9593 40.2888 11.2424 39.023 9.97654C37.7571 8.71067 36.0402 7.99951 34.25 7.99951ZM20 14.7495C20 6.87976 26.3802 0.499512 34.25 0.499512C42.1198 0.499512 48.5 6.87976 48.5 14.7495C48.5 22.6193 42.1198 28.9995 34.25 28.9995C26.3802 28.9995 20 22.6193 20 14.7495ZM115.25 7.99951C113.46 7.99951 111.743 8.71067 110.477 9.97654C109.211 11.2424 108.5 12.9593 108.5 14.7495C108.5 16.5397 109.211 18.2566 110.477 19.5225C111.743 20.7884 113.46 21.4995 115.25 21.4995C117.04 21.4995 118.757 20.7884 120.023 19.5225C121.289 18.2566 122 16.5397 122 14.7495C122 12.9593 121.289 11.2424 120.023 9.97654C118.757 8.71067 117.04 7.99951 115.25 7.99951ZM101 14.7495C101 6.87976 107.38 0.499512 115.25 0.499512C123.12 0.499512 129.5 6.87976 129.5 14.7495C129.5 22.6193 123.12 28.9995 115.25 28.9995C107.38 28.9995 101 22.6193 101 14.7495ZM64.25 0.499512C56.3802 0.499512 50 6.87976 50 14.7495C50 22.6193 56.3802 28.9995 64.25 28.9995H85.25C86.7268 28.9995 88.151 28.7745 89.4905 28.3575L93.5 30.4995L97.826 22.3965C98.9249 20.3338 99.4998 18.0325 99.5 15.6953V14.7495C99.5 6.87976 93.1198 0.499512 85.25 0.499512H64.25ZM92 14.7495C92 12.9593 91.2888 11.2424 90.023 9.97654C88.7571 8.71067 87.0402 7.99951 85.25 7.99951H64.25C63.3636 7.99951 62.4858 8.17411 61.6669 8.51332C60.8479 8.85254 60.1038 9.34975 59.477 9.97654C58.8502 10.6033 58.353 11.3475 58.0138 12.1664C57.6746 12.9853 57.5 13.8631 57.5 14.7495C57.5 15.6359 57.6746 16.5137 58.0138 17.3326C58.353 18.1516 58.8502 18.8957 59.477 19.5225C60.1038 20.1493 60.8479 20.6465 61.6669 20.9857C62.4858 21.3249 63.3636 21.4995 64.25 21.4995H85.25C87.0312 21.4996 88.7401 20.7956 90.0045 19.5411C91.2689 18.2865 91.9861 16.5831 92 14.802V14.7495Z" fill="#F8F8F8"/>
<path d="M132.5 2.37451C132.5 2.87179 132.302 3.34871 131.951 3.70034C131.599 4.05197 131.122 4.24951 130.625 4.24951C130.128 4.24951 129.651 4.05197 129.299 3.70034C128.948 3.34871 128.75 2.87179 128.75 2.37451C128.75 1.87723 128.948 1.40032 129.299 1.04869C129.651 0.697056 130.128 0.499512 130.625 0.499512C131.122 0.499512 131.599 0.697056 131.951 1.04869C132.302 1.40032 132.5 1.87723 132.5 2.37451Z" fill="#F8F8F8"/>
</g>
<defs>
<clipPath id="clip0_38_107">
<rect width="132" height="30" fill="white" transform="translate(0.5 0.499512)"/>
</clipPath>
</defs>
</svg>
