<svg width="58" height="60" viewBox="0 0 58 60" fill="none" xmlns="http://www.w3.org/2000/svg">
<path fill-rule="evenodd" clip-rule="evenodd" d="M38.1822 46.9568H32.0733V32.8083H33.7433C34.3494 32.8082 34.9418 32.6261 35.4457 32.2851C35.9496 31.9441 36.3423 31.4595 36.5741 30.8925C36.806 30.3255 36.8666 29.7017 36.7482 29.0999C36.6299 28.498 36.338 27.9452 35.9094 27.5114C35.4808 27.0775 34.9347 26.782 34.3403 26.6624C33.7459 26.5427 33.1297 26.6042 32.5698 26.8391C32.0098 27.0739 31.5313 27.4716 31.1945 27.9818C30.8578 28.4921 30.6781 29.0919 30.6781 29.7056V31.3977H28.5863V29.7075C28.5868 29.0936 28.4075 28.4933 28.0709 27.9826C27.7344 27.4719 27.2558 27.0737 26.6958 26.8384C26.1357 26.6032 25.5193 26.5414 24.9245 26.6609C24.3297 26.7804 23.7833 27.0758 23.3544 27.5098C22.9255 27.9438 22.6334 28.4968 22.515 29.0989C22.3966 29.7011 22.4572 30.3252 22.6893 30.8924C22.9213 31.4596 23.3142 31.9444 23.8184 32.2855C24.3226 32.6265 24.9154 32.8085 25.5218 32.8083H27.1912V46.9568H21.081C21.0536 46.3421 20.8855 45.7421 20.5902 45.2043C20.2948 44.6664 19.8801 44.2053 19.3788 43.8573C16.2901 41.6529 13.9748 38.5101 12.7684 34.8841C11.5621 31.2582 11.5274 27.3376 12.6694 23.6903C13.8114 20.0431 16.0707 16.8588 19.12 14.5988C22.1693 12.3388 25.8501 11.1205 29.6291 11.1205C33.4081 11.1205 37.0889 12.3388 40.1382 14.5988C43.1874 16.8588 45.4468 20.0431 46.5888 23.6903C47.7308 27.3376 47.6961 31.2582 46.4897 34.8841C45.2834 38.5101 42.9681 41.6529 39.8793 43.8573C39.3779 44.2049 38.9632 44.6658 38.6678 45.2034C38.3724 45.7411 38.2044 46.3409 38.1771 46.9556L38.1822 46.9568ZM27.1912 31.3977V29.7075C27.1913 29.373 27.0935 29.046 26.91 28.7679C26.7265 28.4897 26.4657 28.2729 26.1605 28.1448C25.8554 28.0168 25.5195 27.9832 25.1955 28.0485C24.8715 28.1137 24.5739 28.2747 24.3403 28.5112C24.1067 28.7477 23.9476 29.0491 23.8832 29.3771C23.8188 29.7052 23.8519 30.0452 23.9784 30.3542C24.1049 30.6632 24.319 30.9273 24.5937 31.113C24.8685 31.2988 25.1914 31.3978 25.5218 31.3977H27.1912ZM30.6781 46.9568V32.8083H28.5863V46.9568H30.6781ZM32.0733 31.3977H33.7433C34.0734 31.3976 34.3961 31.2983 34.6706 31.1125C34.945 30.9267 35.1589 30.6627 35.2852 30.3539C35.4114 30.045 35.4444 29.7052 35.3799 29.3774C35.3154 29.0495 35.1564 28.7484 34.9229 28.5121C34.6894 28.2758 34.3919 28.1149 34.0681 28.0497C33.7443 27.9845 33.4087 28.018 33.1037 28.146C32.7987 28.2739 32.538 28.4906 32.3546 28.7685C32.1712 29.0465 32.0733 29.3732 32.0733 29.7075V31.3977ZM29.6316 58.4041C28.3629 58.3997 27.1219 58.0283 26.0547 57.3337C24.9875 56.6392 24.1386 55.6503 23.6078 54.4837H35.6554C35.1248 55.6504 34.2758 56.6394 33.2086 57.3339C32.1414 58.0285 30.9003 58.3998 29.6316 58.4041ZM36.2858 53.0711H22.9786C22.477 53.0711 21.996 52.8694 21.6413 52.5102C21.2866 52.1511 21.0873 51.6641 21.0873 51.1562V48.3694H38.1721V51.1581C38.1721 51.666 37.9728 52.153 37.6181 52.5122C37.2635 52.8713 36.7824 53.073 36.2808 53.073L36.2858 53.0711ZM2.02802 23.7803V34.03L6.86408 35.0366C6.98799 35.0627 7.10261 35.1223 7.19574 35.2091C7.28887 35.2959 7.35705 35.4065 7.39301 35.5294C7.8575 37.1305 8.49007 38.6765 9.27991 40.1411C9.34027 40.2537 9.36933 40.3808 9.364 40.5089C9.35867 40.6369 9.31915 40.761 9.24965 40.8681L6.53373 45.0426L13.6923 52.2905L17.8154 49.5407C17.9212 49.4702 18.0441 49.4302 18.1707 49.425C18.2973 49.4199 18.4229 49.4497 18.5341 49.5113C18.9123 49.7207 19.3013 49.9198 19.6934 50.1081V47.1937C19.7018 46.7646 19.604 46.3402 19.409 45.9591C19.214 45.5781 18.928 45.2525 18.5769 45.012C15.246 42.6345 12.7493 39.2451 11.4486 35.3347C10.1478 31.4244 10.1105 27.1962 11.3422 23.263C12.5739 19.3298 15.0105 15.8957 18.2989 13.4585C21.5874 11.0213 25.5569 9.70754 29.6322 9.70754C33.7076 9.70754 37.6771 11.0213 40.9655 13.4585C44.254 15.8957 46.6906 19.3298 47.9223 23.263C49.1539 27.1962 49.1167 31.4244 47.8159 35.3347C46.5151 39.2451 44.0184 42.6345 40.6875 45.012C40.3362 45.2522 40.0499 45.5778 39.8548 45.9589C39.6596 46.34 39.5619 46.7645 39.5704 47.1937V50.1062C39.9638 49.9177 40.35 49.7188 40.7291 49.5094C40.8403 49.4477 40.9659 49.4178 41.0925 49.423C41.2191 49.4282 41.342 49.4682 41.4478 49.5388L45.5709 52.2886L52.7301 45.0426L50.0136 40.8681C49.9436 40.7612 49.9039 40.6369 49.8988 40.5087C49.8937 40.3805 49.9233 40.2534 49.9846 40.1411C50.7747 38.6767 51.4073 37.1306 51.8714 35.5294C51.9072 35.4064 51.9753 35.2956 52.0684 35.2088C52.1616 35.122 52.2764 35.0625 52.4004 35.0366L57.2352 34.03V23.7803L52.4004 22.7724C52.2764 22.7466 52.1616 22.687 52.0684 22.6002C51.9753 22.5134 51.9072 22.4026 51.8714 22.2796C51.406 20.6791 50.7735 19.1334 49.9846 17.6686C49.9233 17.5562 49.8937 17.4291 49.8988 17.3009C49.9039 17.1728 49.9436 17.0485 50.0136 16.9415L52.7301 12.7658L45.5709 5.51919L41.4478 8.26898C41.3416 8.33961 41.2184 8.3796 41.0915 8.38466C40.9645 8.38972 40.8386 8.35966 40.7273 8.2977C39.2812 7.49769 37.7546 6.857 36.1736 6.38664C36.052 6.35063 35.9424 6.28175 35.8565 6.1874C35.7706 6.09304 35.7118 5.97678 35.6863 5.8511L34.694 0.957275H24.5705L23.5756 5.85238C23.5501 5.97813 23.4912 6.09445 23.4052 6.18881C23.3192 6.28317 23.2094 6.35201 23.0877 6.38791C21.5073 6.85774 19.9813 7.498 18.5359 8.2977C18.4247 8.3591 18.2991 8.38874 18.1725 8.38346C18.0459 8.37817 17.9231 8.33816 17.8173 8.2677L13.6942 5.51791L6.53373 12.7658L9.24965 16.9403C9.31922 17.0473 9.35878 17.1715 9.36411 17.2995C9.36944 17.4276 9.34033 17.5547 9.27991 17.6673C8.49027 19.1317 7.85771 20.6776 7.39301 22.2783C7.35705 22.4012 7.28887 22.5119 7.19574 22.5987C7.10261 22.6854 6.98799 22.745 6.86408 22.7711L2.02802 23.7803Z" fill="url(#paint0_linear_36_73)"/>
<defs>
<linearGradient id="paint0_linear_36_73" x1="29.6316" y1="0.957275" x2="29.6316" y2="58.4041" gradientUnits="userSpaceOnUse">
<stop stop-color="#FFA21F"/>
<stop offset="1" stop-color="#FF6115"/>
</linearGradient>
</defs>
</svg>
