<svg width="63" height="60" viewBox="0 0 63 60" fill="none" xmlns="http://www.w3.org/2000/svg">
<g clip-path="url(#clip0_19_595)">
<path d="M28.5938 45.0563C29.2813 48.0375 30.7063 50.7438 32.675 52.9563L32.6313 52.9688L32.1875 54.3375L31.2063 57.3563C31.0688 57.7688 30.6875 58.0375 30.275 58.0375H27.0938H23.9125C23.4563 58.0375 23.0688 57.725 22.9625 57.3L22 54.3375L21.5563 52.9688C20.5125 52.7 19.4938 52.3625 18.5188 51.9563C17.5313 51.55 16.575 51.0625 15.6563 50.5188L14.375 51.175L11.5438 52.6188C11.1563 52.8188 10.7 52.7313 10.4 52.4375L8.15001 50.1875L5.90001 47.9375C5.58126 47.6188 5.52501 47.1375 5.73751 46.7625L7.16251 43.9688L7.81251 42.6813C7.26876 41.7625 6.78751 40.8063 6.37501 39.8188C5.96876 38.8438 5.63126 37.8313 5.36876 36.7813L4.00001 36.3375L0.97501 35.3563C0.53751 35.2125 0.27501 34.7938 0.30001 34.3563V31.25V28.0688C0.30001 27.6313 0.58126 27.2625 0.97501 27.1375L4.00001 26.1563L5.36876 25.7125C5.63126 24.6688 5.96876 23.6563 6.37501 22.675C6.78751 21.6875 7.26876 20.7313 7.81251 19.8125L7.16251 18.5313L5.71876 15.7C5.52501 15.3125 5.60626 14.8563 5.90001 14.5563L8.15001 12.3063L10.4 10.0563C10.7188 9.73751 11.2 9.68126 11.5813 9.89376L14.375 11.325L15.6563 11.975C16.575 11.4313 17.5313 10.95 18.5188 10.5375C19.4938 10.1313 20.5063 9.79376 21.5563 9.53126L22 8.16251L22.9813 5.13751C23.1125 4.72501 23.5 4.45626 23.9125 4.46251V4.46876H27.0938H30.275C30.7313 4.46876 31.1188 4.78126 31.225 5.20626L32.1875 8.16876L32.6313 9.53751C33.6813 9.80001 34.6938 10.1375 35.6688 10.5438C36.6563 10.9563 37.6125 11.4375 38.5313 11.9813L39.8188 11.3313L42.65 9.88751C43.0375 9.69376 43.4938 9.77501 43.7875 10.0688L46.0375 12.3188L48.2875 14.5688C48.6063 14.8875 48.6625 15.3688 48.45 15.75L47.025 18.5438L46.3688 19.825C46.9125 20.7438 47.3938 21.7 47.8063 22.6875C47.8625 22.825 47.9188 22.9625 47.975 23.1C47.375 23.0438 46.7688 23.0125 46.15 23.0125C43.6813 23.0125 41.325 23.5063 39.1813 24.4125C38.5625 23.325 37.8 22.325 36.9188 21.4438C34.4063 18.9313 30.9375 17.375 27.1063 17.375C23.275 17.375 19.8 18.9313 17.2875 21.4438C14.775 23.9563 13.2188 27.4313 13.2188 31.2625C13.2188 35.0938 14.775 38.5688 17.2875 41.075C19.8 43.5875 23.275 45.1438 27.1063 45.1438C27.6 45.1313 28.1 45.1063 28.5938 45.0563ZM37.4 25.2625C36.8813 24.3688 36.25 23.55 35.525 22.825C33.3688 20.6688 30.3875 19.3313 27.1 19.3313C23.8063 19.3313 20.825 20.6625 18.675 22.825C16.5188 24.9813 15.1813 27.9625 15.1813 31.25C15.1813 34.5375 16.5125 37.5188 18.675 39.675C20.8313 41.8313 23.8125 43.1688 27.1 43.1688C27.4875 43.1688 27.8813 43.15 28.2625 43.1125C28.1813 42.425 28.1438 41.7188 28.1438 41.0063C28.1375 34.2375 31.875 28.3375 37.4 25.2625ZM62.1875 41.0063C62.1875 49.8438 54.9813 57.05 46.1438 57.05C37.3063 57.05 30.1 49.8438 30.1 41.0063C30.1 32.1688 37.3063 24.9625 46.1438 24.9625C54.9813 24.9625 62.1875 32.175 62.1875 41.0063ZM54.2313 41.0063C54.2313 40.4625 53.7938 40.025 53.25 40.025H47.125V33.8938C47.125 33.35 46.6875 32.9125 46.1438 32.9125C45.6 32.9125 45.1625 33.3563 45.1625 33.8938V41C45.1625 41.5438 45.6 41.9813 46.1438 41.9813H53.2563C53.7938 41.9938 54.2313 41.55 54.2313 41.0063Z" fill="url(#paint0_linear_19_595)"/>
</g>
<defs>
<linearGradient id="paint0_linear_19_595" x1="31.2429" y1="4.4624" x2="31.2429" y2="58.0375" gradientUnits="userSpaceOnUse">
<stop stop-color="#FFA21F"/>
<stop offset="1" stop-color="#FF6115"/>
</linearGradient>
<clipPath id="clip0_19_595">
<rect width="62.5" height="60" fill="white"/>
</clipPath>
</defs>
</svg>
