<svg width="76" height="31" viewBox="0 0 76 31" fill="none" xmlns="http://www.w3.org/2000/svg">
<g clip-path="url(#clip0_38_110)">
<path d="M4.07756 3.67576C4.27256 2.75026 5.19506 1.99951 6.13481 1.99951H11.2438L6.99506 22.1168H1.88606C0.94556 22.1168 0.34106 21.3668 0.53681 20.4405L4.07756 3.67576ZM21.1078 3.67576C21.3036 2.75026 22.2253 1.99951 23.1651 1.99951H28.2741L24.0253 22.1168H18.9163C17.9758 22.1168 17.3713 21.3668 17.5671 20.4405L21.1078 3.67576ZM55.1691 3.67576C55.3641 2.75026 56.2851 1.99951 57.2263 1.99951H62.3353L58.0866 22.1168H52.9768C52.0363 22.1168 51.4326 21.3668 51.6283 20.4405L55.1691 3.67576ZM29.9773 1.99951H35.0863C36.0268 1.99951 36.6313 2.74951 36.4356 3.67576L32.8948 20.4405C32.6998 21.3668 31.7781 22.1168 30.8376 22.1168H25.7286L29.9773 1.99951ZM64.0386 1.99951H69.1476C70.0881 1.99951 70.6926 2.74951 70.4968 3.67576L66.9553 20.4405C66.7603 21.3668 65.8393 22.1168 64.8988 22.1168H59.7891L64.0386 1.99951ZM38.1388 3.67576C38.3338 2.75026 39.2548 1.99951 40.1953 1.99951H45.3051L41.0556 22.1168H35.9466C35.0061 22.1168 34.4016 21.3668 34.5981 20.4405L38.1381 3.67576H38.1388ZM47.0076 1.99951H52.1173C53.0578 1.99951 53.6616 2.74951 53.4658 3.67576L48.1551 28.8233C47.9586 29.7488 47.0376 30.4995 46.0971 30.4995H40.9873L47.0076 1.99951ZM10.1143 15.411H16.9266L15.8646 20.4405C15.6688 21.3668 14.7471 22.1168 13.8073 22.1168H8.69756L10.1136 15.4118L10.1143 15.411ZM33.8901 23.7938H40.7016L39.2856 30.4995H34.1766C33.2353 30.4995 32.6316 29.7495 32.8273 28.8233L33.8901 23.7938ZM52.3806 25.353L51.5181 29.4375C51.4806 29.613 51.4221 29.661 51.2436 29.661H50.8513C50.6728 29.661 50.6338 29.613 50.6713 29.4375L51.5338 25.353C51.5713 25.1783 51.6298 25.1295 51.8083 25.1295H52.2006C52.3791 25.1295 52.4181 25.1783 52.3806 25.353ZM53.5146 28.1085H53.4343C53.3488 28.1085 53.3188 28.1325 53.3016 28.2173L53.0436 29.4375C53.0061 29.613 52.9468 29.661 52.7691 29.661H52.3761C52.1983 29.661 52.1593 29.613 52.1961 29.4375L53.0586 25.353C53.0961 25.1783 53.1561 25.1295 53.3338 25.1295H54.1438C55.0768 25.1295 55.4301 25.4618 55.2576 26.277L55.1136 26.9603C54.9411 27.7763 54.4476 28.1085 53.5146 28.1085ZM53.7516 26.0843L53.5266 27.1538C53.5078 27.2385 53.5273 27.2625 53.6136 27.2625H53.7426C54.0426 27.2625 54.2038 27.1418 54.2691 26.8335L54.3591 26.4045C54.4243 26.097 54.3148 25.9755 54.0141 25.9755H53.8851C53.7996 25.9755 53.7696 25.9995 53.7516 26.0843ZM56.5551 26.7428L57.1926 27.444C57.5271 27.8063 57.5736 28.0238 57.4881 28.4288L57.4656 28.5375C57.3043 29.2988 56.9203 29.7218 56.0301 29.7218C55.1406 29.7218 54.9208 29.3655 55.1263 28.392L55.1518 28.272C55.1893 28.0965 55.2486 28.0478 55.4263 28.0478H55.8433C56.0218 28.0478 56.0608 28.0965 56.0233 28.2713L55.9671 28.5375C55.9161 28.779 55.9941 28.8758 56.2086 28.8758C56.4238 28.8758 56.5408 28.7858 56.5873 28.5683L56.6113 28.4528C56.6473 28.2833 56.6278 28.1993 56.4433 27.9998L55.8433 27.3533C55.5073 26.997 55.4646 26.7908 55.5501 26.3858L55.5778 26.2538C55.7391 25.4925 56.1231 25.0688 57.0126 25.0688C57.9028 25.0688 58.1226 25.4258 57.9171 26.3985L57.8916 26.5193C57.8541 26.6948 57.7948 26.7428 57.6171 26.7428H57.1993C57.0216 26.7428 56.9826 26.6948 57.0193 26.5193L57.0756 26.2538C57.1266 26.0115 57.0493 25.9155 56.8341 25.9155C56.6196 25.9155 56.5018 26.0055 56.4561 26.223L56.4343 26.3258C56.3968 26.5013 56.4163 26.586 56.5551 26.7428ZM60.1491 25.353C60.1866 25.1783 60.2451 25.1295 60.4236 25.1295H60.8158C60.9943 25.1295 61.0333 25.1783 60.9958 25.353L60.3538 28.3928C60.1483 29.3655 59.7786 29.7218 58.8883 29.7218C57.9988 29.7218 57.7791 29.3655 57.9846 28.392L58.6266 25.353C58.6641 25.1783 58.7233 25.1295 58.9011 25.1295H59.2941C59.4718 25.1295 59.5108 25.1783 59.4741 25.353L58.8013 28.5375C58.7503 28.779 58.8343 28.8758 59.0676 28.8758C59.2941 28.8758 59.4253 28.779 59.4763 28.5375L60.1491 25.353ZM62.7036 27.8123C62.7058 27.861 62.7216 27.8723 62.7523 27.8723C62.7823 27.8723 62.8041 27.861 62.8266 27.8123L63.8871 25.287C63.9388 25.1595 64.0003 25.1295 64.1541 25.1295H64.7496C64.9273 25.1295 64.9663 25.1783 64.9296 25.353L64.0671 29.4375C64.0296 29.613 63.9696 29.661 63.7918 29.661H63.5098C63.3321 29.661 63.2923 29.613 63.3298 29.4375L63.7438 27.48C63.7551 27.426 63.7453 27.4133 63.7086 27.4133C63.6838 27.4133 63.6561 27.426 63.6411 27.468L62.7846 29.4623C62.7231 29.607 62.6443 29.661 62.4666 29.661H62.3001C62.1156 29.661 62.0601 29.607 62.0601 29.4623L62.0391 27.4673C62.0353 27.4253 62.0256 27.4133 61.9948 27.4133C61.9581 27.4133 61.9431 27.426 61.9318 27.48L61.5186 29.4375C61.4811 29.613 61.4226 29.661 61.2441 29.661H60.9621C60.7836 29.661 60.7446 29.613 60.7821 29.4375L61.6446 25.353C61.6821 25.1783 61.7413 25.1295 61.9191 25.1295H62.4291C62.6436 25.1295 62.7126 25.1783 62.7111 25.3898L62.7028 27.8123H62.7036ZM75.5001 1.99951C75.5001 2.82826 74.8326 3.49951 74.0098 3.49951C73.8135 3.49892 73.6191 3.45965 73.438 3.38394C73.2568 3.30823 73.0923 3.19756 72.9539 3.05826C72.8155 2.91897 72.7059 2.75377 72.6314 2.5721C72.5569 2.39044 72.5189 2.19587 72.5196 1.99951C72.5196 1.17076 73.1871 0.499512 74.0098 0.499512C74.8326 0.499512 75.5001 1.17076 75.5001 1.99951Z" fill="#F8F8F8"/>
</g>
<defs>
<clipPath id="clip0_38_110">
<rect width="75" height="30" fill="white" transform="translate(0.5 0.499512)"/>
</clipPath>
</defs>
</svg>
