<svg width="384" height="300" viewBox="0 0 384 300" fill="none" xmlns="http://www.w3.org/2000/svg">
<rect x="0.5" y="0.499512" width="383" height="299" rx="5.5" fill="#0E0D0D" stroke="#322F2D"/>
<path d="M14 25.6796C14 23.908 14.7038 22.2088 15.9566 20.9561C17.2093 19.7033 18.9085 18.9995 20.6801 18.9995H255.32C257.092 18.9995 258.791 19.7033 260.043 20.9561C261.296 22.2088 262 23.908 262 25.6796V101.666C262 103.438 261.296 105.137 260.043 106.39C258.791 107.643 257.092 108.346 255.32 108.346H20.6801C18.9085 108.346 17.2093 107.643 15.9566 106.39C14.7038 105.137 14 103.438 14 101.666V25.6796Z" fill="#151516"/>
<path d="M155.25 81.0511C155.325 80.9332 155.429 80.8361 155.552 80.7689C155.675 80.7017 155.813 80.6665 155.953 80.6665C156.093 80.6665 156.231 80.7017 156.354 80.7689C156.476 80.8361 156.58 80.9332 156.656 81.0511L158.743 84.3059C158.824 84.4321 158.87 84.5776 158.875 84.7274C158.88 84.8772 158.845 85.0256 158.774 85.1571C158.702 85.2886 158.596 85.3984 158.467 85.4749C158.338 85.5514 158.191 85.5918 158.041 85.5919H153.864C153.715 85.5918 153.568 85.5514 153.439 85.4749C153.31 85.3984 153.204 85.2886 153.132 85.1571C153.06 85.0256 153.025 84.8772 153.031 84.7274C153.036 84.5776 153.081 84.4321 153.162 84.3059L155.25 81.0511Z" fill="#FFA91E"/>
<path d="M164.211 84.9658V84.3896H166.006V79.9223L164.236 80.3982V79.9056L166.315 79.1206H166.683V84.3896H168.169V84.9658H164.211ZM171.03 85.066C170.657 85.066 170.32 84.9992 170.02 84.8656C169.725 84.7261 169.485 84.5316 169.301 84.281C169.114 84.0166 168.997 83.7094 168.959 83.3876H169.644C169.711 83.7107 169.867 83.9721 170.111 84.1725C170.356 84.367 170.665 84.4648 171.038 84.4648C171.316 84.4648 171.556 84.4005 171.756 84.2727C171.957 84.145 172.11 83.9696 172.216 83.7466C172.327 83.5237 172.383 83.2732 172.383 82.9951C172.383 82.5609 172.26 82.2102 172.015 81.943C171.771 81.6758 171.453 81.5422 171.063 81.5422C170.74 81.5422 170.465 81.6148 170.237 81.7593C170.009 81.9038 169.842 82.0933 169.736 82.3271H169.068L169.569 79.1206H172.633V79.7302H170.111L169.769 81.5088C169.903 81.3476 170.086 81.214 170.32 81.108C170.56 81.0019 170.832 80.9493 171.138 80.9493C171.523 80.9493 171.857 81.0387 172.141 81.2165C172.43 81.3944 172.656 81.6366 172.817 81.943C172.895 82.0992 172.953 82.2628 172.992 82.4357C173.036 82.6085 173.059 82.7922 173.059 82.9868C173.059 83.3934 172.973 83.7525 172.8 84.064C172.638 84.3711 172.392 84.6259 172.09 84.7988C171.79 84.9766 171.437 85.066 171.03 85.066ZM174.634 84.9658L178.032 79.1206H178.734L175.335 84.9658H174.634ZM175.152 81.8345C174.901 81.8345 174.673 81.776 174.467 81.6591C174.266 81.5422 174.108 81.381 173.991 81.1748C173.87 80.9462 173.809 80.6903 173.816 80.4316C173.816 80.1419 173.874 79.8947 173.991 79.6885C174.114 79.4772 174.278 79.3127 174.484 79.1958C174.69 79.0847 174.915 79.0288 175.16 79.0288C175.41 79.0288 175.636 79.0847 175.836 79.1958C176.037 79.3069 176.195 79.4689 176.312 79.6801C176.374 79.7862 176.418 79.9031 176.446 80.0308C176.474 80.1536 176.488 80.2872 176.488 80.4316C176.488 80.7214 176.427 80.9719 176.304 81.1831C176.193 81.3833 176.028 81.5483 175.828 81.6591C175.628 81.776 175.402 81.8345 175.152 81.8345ZM175.152 81.2917C175.247 81.2922 175.341 81.2732 175.429 81.2359C175.516 81.1985 175.595 81.1436 175.661 81.0746C175.811 80.9301 175.886 80.7155 175.886 80.4316C175.886 80.1419 175.815 79.9248 175.669 79.7803C175.605 79.7091 175.526 79.6522 175.439 79.6134C175.351 79.5745 175.256 79.5546 175.16 79.5548C175.062 79.5557 174.965 79.576 174.874 79.6147C174.784 79.6534 174.702 79.7097 174.634 79.7803C174.484 79.9248 174.408 80.1419 174.408 80.4316C174.408 80.7155 174.484 80.9301 174.634 81.0746C174.701 81.1433 174.782 81.1979 174.871 81.2352C174.96 81.2724 175.055 81.2917 175.152 81.2917ZM178.275 85.066C178.024 85.066 177.796 85.0075 177.59 84.8906C177.389 84.7737 177.231 84.6125 177.114 84.4063C176.993 84.1777 176.932 83.9218 176.939 83.6631C176.939 83.3734 176.997 83.1262 177.114 82.92C177.237 82.7087 177.398 82.5442 177.598 82.4273C177.804 82.3163 178.03 82.2603 178.275 82.2603C178.525 82.2603 178.751 82.3163 178.951 82.4273C179.151 82.5384 179.31 82.7004 179.427 82.9116C179.489 83.0177 179.533 83.1346 179.56 83.2623C179.589 83.3851 179.602 83.5187 179.602 83.6631C179.602 83.9529 179.544 84.2034 179.427 84.4147C179.316 84.6148 179.151 84.7798 178.951 84.8906C178.751 85.0075 178.525 85.066 178.275 85.066ZM178.266 84.5232C178.467 84.5232 178.639 84.4506 178.784 84.3061C178.934 84.1616 179.009 83.947 179.009 83.6631C179.009 83.3734 178.938 83.1563 178.792 83.0118C178.725 82.9432 178.644 82.8886 178.555 82.8514C178.466 82.8142 178.371 82.795 178.275 82.795C178.178 82.795 178.083 82.8142 177.994 82.8514C177.905 82.8886 177.824 82.9432 177.757 83.0118C177.607 83.1563 177.531 83.3734 177.531 83.6631C177.531 83.947 177.604 84.1616 177.748 84.3061C177.816 84.3748 177.897 84.4294 177.986 84.4667C178.074 84.504 178.17 84.5232 178.266 84.5232Z" fill="#F4F4F4"/>
<path d="M182.951 84.9657V81.4169H182.325V80.824H182.951V80.2729C182.951 79.8721 183.052 79.5799 183.252 79.3961C183.452 79.2124 183.745 79.1206 184.129 79.1206H184.546V79.7218H184.237C184.026 79.7218 183.876 79.7661 183.786 79.8554C183.697 79.9389 183.653 80.0834 183.653 80.2896V80.824H184.672V81.4169H183.653V84.9657H182.951ZM185.507 84.9657V80.824H186.141L186.2 81.6173C186.327 81.3442 186.523 81.1271 186.784 80.966C187.046 80.8048 187.369 80.7238 187.753 80.7238V81.4586H187.561C187.104 81.4586 186.765 81.5814 186.542 81.8261C186.319 82.0707 186.208 82.4214 186.208 82.8782V84.9657H185.507ZM190.297 85.0659C189.919 85.0659 189.571 84.9824 189.253 84.8154C188.936 84.6428 188.673 84.3855 188.493 84.0722C188.305 83.7441 188.21 83.3483 188.21 82.8865C188.21 82.4465 188.301 82.0657 188.485 81.7426C188.675 81.4194 188.928 81.1689 189.245 80.991C189.578 80.8105 189.952 80.7185 190.331 80.7238C190.715 80.7238 191.065 80.8073 191.383 80.9743C191.706 81.1413 191.965 81.386 192.159 81.7092C192.355 82.0323 192.451 82.4248 192.451 82.8865C192.451 83.3099 192.36 83.6856 192.176 84.0138C191.992 84.342 191.737 84.6008 191.408 84.7904C191.085 84.9741 190.715 85.0659 190.297 85.0659ZM190.297 84.4564C190.57 84.4564 190.815 84.3921 191.032 84.2643C191.249 84.1307 191.422 83.947 191.55 83.7132C191.678 83.4794 191.742 83.2038 191.742 82.8865C191.742 82.5859 191.687 82.3187 191.575 82.0849C191.464 81.8511 191.302 81.6674 191.09 81.5338C190.879 81.4002 190.623 81.3334 190.322 81.3334C190.017 81.3334 189.758 81.4027 189.546 81.5421C189.34 81.6816 189.184 81.8678 189.078 82.1016C188.973 82.3354 188.919 82.5968 188.919 82.8865C188.919 83.2539 188.986 83.5545 189.12 83.7883C189.253 84.0163 189.426 84.1867 189.637 84.2977C189.85 84.4038 190.069 84.4564 190.297 84.4564ZM193.425 84.9657V80.824H194.06L194.11 81.4253C194.243 81.2023 194.421 81.0303 194.644 80.9076C194.866 80.7848 195.117 80.7238 195.396 80.7238C195.724 80.7238 196.005 80.7906 196.239 80.9242C196.478 81.0578 196.662 81.2608 196.79 81.5338C196.935 81.2833 197.133 81.0854 197.383 80.9409C197.639 80.7965 197.914 80.7238 198.21 80.7238C198.544 80.7238 198.83 80.7906 199.07 80.9242C199.314 81.052 199.504 81.2524 199.638 81.5255C199.771 81.7927 199.838 82.1325 199.838 82.5442V84.9657H199.145V82.6193C199.145 82.191 199.058 81.8678 198.886 81.6507C198.713 81.4336 198.465 81.3251 198.143 81.3251C197.809 81.3251 197.53 81.4561 197.308 81.7175C197.091 81.9738 196.982 82.3413 196.982 82.8197V84.9657H196.281V82.6193C196.281 82.191 196.194 81.8678 196.022 81.6507C195.849 81.4336 195.601 81.3251 195.279 81.3251C194.95 81.3251 194.674 81.4561 194.452 81.7175C194.235 81.9738 194.126 82.3413 194.126 82.8197V84.9657H193.425ZM203.104 84.9657V79.1206H203.805V84.9657H203.104ZM206.333 85.0659C206.049 85.0659 205.79 85.0183 205.556 84.924C205.333 84.8378 205.139 84.6901 204.997 84.4981C204.863 84.3036 204.796 84.0664 204.796 83.7883C204.796 83.4652 204.88 83.2097 205.047 83.0201C205.214 82.8256 205.433 82.6861 205.707 82.6026C205.996 82.5118 206.297 82.4667 206.6 82.469H207.719C207.719 82.1793 207.669 81.9513 207.569 81.7843C207.485 81.6276 207.353 81.5017 207.193 81.4253C207.03 81.3514 206.854 81.3143 206.675 81.3167C206.402 81.3167 206.166 81.3835 205.965 81.5171C205.771 81.6449 205.648 81.8453 205.598 82.1183H204.88C204.907 81.8177 205.008 81.5647 205.18 81.3584C205.353 81.1522 205.57 80.9969 205.832 80.8908C206.099 80.7798 206.38 80.7238 206.675 80.7238C207.093 80.7238 207.429 80.8015 207.685 80.9577C207.942 81.108 208.128 81.3108 208.245 81.5672C208.362 81.8235 208.42 82.1075 208.42 82.4189V83.6881C208.42 83.8944 208.445 84.0497 208.495 84.1558C208.546 84.2618 208.673 84.3253 208.88 84.3478V84.9657C208.696 84.9657 208.529 84.9432 208.379 84.8989C208.234 84.8523 208.102 84.7722 207.994 84.6651C207.887 84.5405 207.813 84.3913 207.777 84.2309C207.638 84.4647 207.446 84.6626 207.201 84.8238C206.962 84.9849 206.673 85.0659 206.333 85.0659ZM206.441 84.4731C206.719 84.4731 206.953 84.4038 207.143 84.2643C207.332 84.1199 207.474 83.9361 207.569 83.7132C207.669 83.4902 207.719 83.2598 207.719 83.0201V83.0118H206.658C206.464 83.0118 206.28 83.0343 206.107 83.0786C205.949 83.1102 205.803 83.1888 205.69 83.304C205.584 83.4101 205.531 83.5604 205.531 83.7549C205.531 84.0054 205.621 84.1892 205.798 84.3061C205.976 84.4171 206.191 84.4731 206.441 84.4731ZM211.312 85.0659C210.984 85.0659 210.688 85.01 210.427 84.8989C210.179 84.7924 209.961 84.626 209.792 84.4146C209.633 84.1957 209.533 83.94 209.5 83.6715H210.218C210.262 83.8886 210.377 84.0781 210.56 84.2393C210.75 84.3954 211.003 84.4731 211.32 84.4731C211.615 84.4731 211.832 84.4121 211.972 84.2894C212.037 84.2338 212.089 84.1647 212.126 84.0868C212.162 84.009 212.18 83.9242 212.18 83.8384C212.18 83.6714 212.139 83.5437 212.055 83.4543C211.96 83.3548 211.838 83.2852 211.704 83.2539C211.521 83.1952 211.334 83.1478 211.145 83.112C210.911 83.0619 210.683 82.9951 210.46 82.9116C210.253 82.8327 210.065 82.7102 209.909 82.5525C209.765 82.4022 209.692 82.2043 209.692 81.9597C209.692 81.715 209.753 81.5004 209.876 81.3167C209.998 81.133 210.171 80.9885 210.393 80.8825C210.621 80.7764 210.889 80.7238 211.195 80.7238C211.635 80.7238 211.994 80.8349 212.272 81.0579C212.556 81.275 212.721 81.5864 212.765 81.9931H212.072C212.063 81.8963 212.033 81.8026 211.986 81.7178C211.938 81.6329 211.874 81.5589 211.796 81.5004C211.646 81.3777 211.443 81.3167 211.187 81.3167C210.936 81.3167 210.742 81.3693 210.602 81.4754C210.538 81.524 210.486 81.5873 210.452 81.6599C210.417 81.7325 210.4 81.8124 210.402 81.8929C210.402 82.0039 210.441 82.0991 210.519 82.1768C210.596 82.2544 210.708 82.3212 210.853 82.3772C211.003 82.4331 211.178 82.4832 211.379 82.5275C211.657 82.5834 211.911 82.6527 212.139 82.7362C212.367 82.8197 212.55 82.9425 212.69 83.1036C212.829 83.2598 212.899 83.4852 212.899 83.78C212.904 84.0246 212.84 84.2451 212.706 84.4397C212.57 84.6419 212.379 84.8011 212.155 84.8989C211.922 85.01 211.64 85.0659 211.312 85.0659ZM215.349 84.9657C214.971 84.9657 214.673 84.8739 214.456 84.6902C214.239 84.5065 214.13 84.175 214.13 83.6965V81.4169H213.412V80.824H214.13V79.8304H214.832V80.824H215.992V81.4169H214.832V83.6965C214.832 83.9579 214.885 84.1365 214.99 84.2309C215.096 84.3203 215.282 84.3645 215.55 84.3645H215.992V84.9657H215.349ZM219.152 84.9657V80.824H219.787L219.837 81.4253C219.97 81.2023 220.148 81.0303 220.371 80.9076C220.594 80.7848 220.845 80.7238 221.123 80.7238C221.451 80.7238 221.732 80.7906 221.966 80.9242C222.206 81.0578 222.389 81.2608 222.517 81.5338C222.662 81.2833 222.859 81.0854 223.11 80.9409C223.366 80.7965 223.642 80.7238 223.937 80.7238C224.271 80.7238 224.557 80.7906 224.797 80.9242C225.041 81.052 225.231 81.2524 225.364 81.5255C225.498 81.7927 225.565 82.1325 225.565 82.5442V84.9657H224.872V82.6193C224.872 82.191 224.786 81.8678 224.613 81.6507C224.44 81.4336 224.193 81.3251 223.87 81.3251C223.536 81.3251 223.258 81.4561 223.035 81.7175C222.818 81.9738 222.709 82.3413 222.709 82.8197V84.9657H222.008V82.6193C222.008 82.191 221.922 81.8678 221.749 81.6507C221.576 81.4336 221.329 81.3251 221.006 81.3251C220.678 81.3251 220.402 81.4561 220.179 81.7175C219.962 81.9738 219.853 82.3413 219.853 82.8197V84.9657H219.152ZM228.533 85.0659C228.155 85.0659 227.807 84.9824 227.49 84.8154C227.172 84.6428 226.909 84.3855 226.73 84.0722C226.541 83.7441 226.446 83.3483 226.446 82.8865C226.446 82.4465 226.538 82.0657 226.721 81.7426C226.911 81.4194 227.164 81.1689 227.481 80.991C227.814 80.8105 228.188 80.7185 228.567 80.7238C228.951 80.7238 229.302 80.8073 229.619 80.9743C229.942 81.1413 230.201 81.386 230.395 81.7092C230.591 82.0323 230.688 82.4248 230.688 82.8865C230.688 83.3099 230.596 83.6856 230.412 84.0138C230.228 84.342 229.973 84.6008 229.644 84.7904C229.322 84.9741 228.951 85.0659 228.533 85.0659ZM228.533 84.4564C228.806 84.4564 229.051 84.3921 229.268 84.2643C229.485 84.1307 229.658 83.947 229.786 83.7132C229.914 83.4794 229.978 83.2038 229.978 82.8865C229.978 82.5859 229.923 82.3187 229.811 82.0849C229.7 81.8511 229.539 81.6674 229.327 81.5338C229.115 81.4002 228.859 81.3334 228.558 81.3334C228.253 81.3334 227.994 81.4027 227.782 81.5421C227.576 81.6816 227.42 81.8678 227.314 82.1016C227.209 82.3354 227.156 82.5968 227.156 82.8865C227.156 83.2539 227.222 83.5545 227.356 83.7883C227.49 84.0163 227.662 84.1867 227.874 84.2977C228.086 84.4038 228.305 84.4564 228.533 84.4564ZM231.661 84.9657V80.824H232.296L232.338 81.5672C232.471 81.3058 232.663 81.0996 232.914 80.9493C233.164 80.799 233.448 80.7238 233.766 80.7238C234.255 80.7238 234.645 80.8741 234.935 81.1747C235.229 81.4695 235.377 81.9263 235.377 82.5442V84.9657H234.676V82.6193C234.676 82.191 234.586 81.8678 234.409 81.6507C234.23 81.4336 233.963 81.3251 233.607 81.3251C233.438 81.3217 233.271 81.355 233.117 81.4228C232.963 81.4906 232.825 81.5911 232.713 81.7175C232.48 81.9738 232.363 82.3413 232.363 82.8197V84.9657H231.661ZM238.084 84.9657C237.706 84.9657 237.408 84.8739 237.191 84.6902C236.974 84.5065 236.865 84.175 236.865 83.6965V81.4169H236.147V80.824H236.865V79.8304H237.567V80.824H238.727V81.4169H237.567V83.6965C237.567 83.9579 237.619 84.1365 237.725 84.2309C237.831 84.3203 238.017 84.3645 238.285 84.3645H238.727V84.9657H238.084ZM239.677 84.9657V79.1206H240.378V81.5338C240.513 81.2822 240.719 81.076 240.971 80.9409C241.227 80.7965 241.505 80.7238 241.806 80.7238C242.285 80.7238 242.669 80.8741 242.958 81.1747C243.248 81.4695 243.392 81.9263 243.392 82.5442V84.9657H242.699V82.6193C242.699 82.191 242.611 81.8678 242.432 81.6507C242.26 81.4336 242.001 81.3251 241.656 81.3251C241.294 81.3251 240.991 81.4561 240.745 81.7175C240.501 81.9738 240.378 82.3413 240.378 82.8197V84.9657H239.677Z" fill="#F6F9FF"/>
<path d="M24.0202 92.481H244.465V97.4911H24.0202V92.481Z" fill="#2E281E"/>
<path d="M24.0202 92.481H112.532V97.4911H24.0202V92.481Z" fill="#FFA91E"/>
<path d="M33.5544 60.9308C32.863 60.9308 32.2418 60.8055 31.6907 60.555C31.1627 60.3233 30.7061 59.9549 30.368 59.4879C30.0373 59.0169 29.8369 58.4708 29.7668 57.8496H31.3299C31.4301 58.3506 31.6756 58.7614 32.0664 59.0821C32.4672 59.4027 32.9682 59.563 33.5695 59.563C34.0103 59.563 34.3911 59.4578 34.7118 59.2474C35.0346 59.0345 35.2942 58.7385 35.4633 58.3907C35.6436 58.0299 35.7338 57.6241 35.7338 57.1732C35.7338 56.4618 35.5334 55.8956 35.1326 55.4748C34.7318 55.0439 34.2208 54.8285 33.5995 54.8285C33.0885 54.8285 32.6476 54.9487 32.2768 55.1892C31.9205 55.4131 31.6381 55.7373 31.4652 56.1211H29.9471L30.849 50.2292H36.5154V51.612H32.0514L31.5103 54.4377C31.7408 54.1671 32.0564 53.9467 32.4572 53.7764C32.858 53.606 33.3139 53.5208 33.825 53.5208C34.5464 53.5208 35.1627 53.6862 35.6737 54.0168C36.1847 54.3375 36.5755 54.7734 36.8461 55.3245C37.132 55.8929 37.2763 56.522 37.2669 57.1582C37.2669 57.8796 37.1116 58.5259 36.801 59.0971C36.4976 59.6506 36.0512 60.1126 35.5084 60.4348C34.9572 60.7654 34.3059 60.9308 33.5544 60.9308ZM42.3446 60.9308C41.3827 60.9308 40.6111 60.6903 40.03 60.2093C39.4488 59.7283 39.028 59.077 38.7674 58.2554C38.5069 57.4337 38.3766 56.5119 38.3766 55.4898C38.3766 54.4678 38.5069 53.5459 38.7674 52.7242C39.028 51.9026 39.4488 51.2513 40.03 50.7703C40.6111 50.2893 41.3827 50.0488 42.3446 50.0488C43.3066 50.0488 44.0731 50.2843 44.6443 50.7553C45.2255 51.2262 45.6463 51.8725 45.9068 52.6942C46.1673 53.5158 46.2976 54.4477 46.2976 55.4898C46.2976 56.5319 46.1673 57.4638 45.9068 58.2854C45.6463 59.1071 45.2255 59.7534 44.6443 60.2243C44.0731 60.6953 43.3066 60.9308 42.3446 60.9308ZM42.3446 59.5029C43.1563 59.5029 43.7475 59.1472 44.1182 58.4357C44.489 57.7143 44.6743 56.7323 44.6743 55.4898C44.6743 54.2473 44.484 53.2653 44.1032 52.5439C43.7324 51.8224 43.1463 51.4617 42.3446 51.4617C41.543 51.4617 40.9518 51.8224 40.5711 52.5439C40.1903 53.2653 39.9999 54.2473 39.9999 55.4898C39.9999 56.7323 40.1903 57.7143 40.5711 58.4357C40.9518 59.1472 41.543 59.5029 42.3446 59.5029ZM49.1058 60.7504L55.1329 50.2292H56.7111L50.684 60.7504H49.1058ZM49.8573 55.2493C49.4163 55.2543 48.9815 55.1456 48.5947 54.9337C48.2179 54.7271 47.9058 54.4202 47.6929 54.0469C47.4725 53.6461 47.3623 53.1802 47.3623 52.6491C47.3623 52.118 47.4725 51.6621 47.6929 51.2813C47.9074 50.8965 48.2249 50.579 48.6098 50.3645C48.9905 50.1541 49.4114 50.0488 49.8723 50.0488C50.3433 50.0488 50.7641 50.1541 51.1349 50.3645C51.5056 50.5749 51.8012 50.8755 52.0217 51.2663C52.1343 51.4629 52.2154 51.6759 52.2621 51.8976C52.3223 52.128 52.3523 52.3785 52.3523 52.6491C52.3523 53.1902 52.2421 53.6561 52.0217 54.0469C51.8012 54.4277 51.5006 54.7233 51.1198 54.9337C50.734 55.1479 50.2986 55.2568 49.8573 55.2493ZM49.8573 54.092C50.1779 54.092 50.4585 53.9717 50.699 53.7313C50.9395 53.4908 51.0597 53.1351 51.0597 52.6641C51.0597 52.1731 50.9395 51.8074 50.699 51.5669C50.4685 51.3164 50.193 51.1911 49.8723 51.1911C49.5417 51.1911 49.2561 51.3164 49.0156 51.5669C48.7751 51.8074 48.6549 52.1731 48.6549 52.6641C48.6549 53.1351 48.7751 53.4908 49.0156 53.7313C49.2561 53.9717 49.5366 54.092 49.8573 54.092ZM56.0347 60.9308C55.5888 60.937 55.1489 60.8283 54.7572 60.6151C54.3883 60.3966 54.0827 60.0858 53.8704 59.7133C53.6499 59.3125 53.5397 58.8516 53.5397 58.3305C53.5397 57.7995 53.6499 57.3435 53.8704 56.9628C54.0878 56.5852 54.3983 56.2696 54.7722 56.0459C55.1639 55.8328 55.6039 55.7241 56.0498 55.7303C56.5107 55.7303 56.9265 55.8355 57.2973 56.0459C57.6781 56.2563 57.9787 56.552 58.1991 56.9327C58.3093 57.1331 58.3895 57.3485 58.4396 57.579C58.4997 57.8095 58.5298 58.06 58.5298 58.3305C58.5298 58.8716 58.4196 59.3376 58.1991 59.7284C57.9914 60.0966 57.6841 60.3988 57.3123 60.6001C56.9416 60.8206 56.5157 60.9308 56.0347 60.9308ZM56.0197 59.7734C56.3604 59.7734 56.646 59.6532 56.8764 59.4127C57.1169 59.1722 57.2372 58.8115 57.2372 58.3305C57.2372 57.8496 57.1169 57.4888 56.8764 57.2484C56.646 56.9978 56.3654 56.8726 56.0347 56.8726C55.7141 56.8726 55.4335 56.9978 55.193 57.2484C54.9526 57.4888 54.8323 57.8496 54.8323 58.3305C54.8323 58.8015 54.9476 59.1622 55.178 59.4127C55.4185 59.6532 55.6991 59.7734 56.0197 59.7734Z" fill="#F4F4F4"/>
<path d="M24.2707 36.5351L26.425 30.6899H27.1682L29.3142 36.5351H28.571L28.0366 35.032H25.5483L25.0055 36.5351H24.2707ZM25.757 34.4642H27.8279L26.7924 31.5751L25.757 34.4642ZM30.9116 36.5351L29.3417 32.3934H30.0766L31.3207 35.8587L32.5733 32.3934H33.2914L31.7215 36.5351H30.9116ZM34.0721 36.5351V32.3934H34.7067L34.7652 33.1866C34.8929 32.9136 35.0875 32.6965 35.3497 32.5353C35.6111 32.3742 35.9342 32.2932 36.3183 32.2932V33.028H36.1263C35.6695 33.028 35.3297 33.1507 35.1075 33.3954C34.8846 33.64 34.7735 33.9908 34.7735 34.4475V36.5351H34.0721ZM37.013 36.5768C36.8831 36.5805 36.7569 36.5324 36.6623 36.4432C36.5742 36.3513 36.5262 36.2282 36.5287 36.1009C36.5287 35.9673 36.573 35.8562 36.6623 35.7668C36.708 35.7205 36.7627 35.6841 36.823 35.6597C36.8833 35.6352 36.948 35.6234 37.013 35.6249C37.1467 35.6249 37.2577 35.6725 37.3471 35.7668C37.4414 35.8562 37.489 35.9673 37.489 36.1009C37.489 36.2345 37.4414 36.3489 37.3471 36.4432C37.3035 36.4872 37.2514 36.5217 37.1939 36.5447C37.1365 36.5677 37.0749 36.5786 37.013 36.5768ZM40.6537 36.5351V30.6899H42.3822C42.7939 30.6899 43.1446 30.7509 43.4343 30.8736C43.7232 30.9905 43.9462 31.1684 44.1023 31.408C44.2577 31.6477 44.3361 31.9508 44.3361 32.3182C44.3361 32.775 44.2159 33.1198 43.9771 33.3536C43.7433 33.5875 43.4226 33.7402 43.0168 33.8129L44.6952 36.5351H43.8268L42.3238 33.9465H41.3551V36.5351H40.6537ZM41.3551 33.3536H42.3655C42.677 33.3536 42.925 33.3177 43.1087 33.2451C43.2781 33.1803 43.4178 33.0555 43.5011 32.8944C43.5788 32.7383 43.618 32.5462 43.618 32.3182C43.618 32.0844 43.5788 31.8899 43.5011 31.7337C43.4187 31.5738 43.2783 31.4513 43.1087 31.3914C42.925 31.3137 42.677 31.2745 42.3655 31.2745H41.3551V33.3536ZM47.171 36.6353C46.7869 36.6353 46.4387 36.5459 46.1273 36.368C45.8203 36.1895 45.5689 35.9293 45.4008 35.6165C45.2221 35.2884 45.1336 34.9043 45.1336 34.4642C45.1336 34.03 45.2171 33.6517 45.3841 33.3286C45.5561 33.0004 45.7958 32.7466 46.1022 32.5687C46.4137 32.385 46.7752 32.2932 47.1877 32.2932C47.5768 32.2932 47.9167 32.3792 48.2064 32.552C48.4954 32.7249 48.7208 32.9587 48.8828 33.2534C49.0498 33.5432 49.1333 33.8688 49.1333 34.2304V34.4141C49.1324 34.4838 49.1296 34.5534 49.125 34.6229H45.8267C45.8434 34.8959 45.9068 35.1406 46.0187 35.3577C46.1356 35.5689 46.2909 35.736 46.4863 35.8587C46.6867 35.9814 46.9147 36.0424 47.171 36.0424C47.4599 36.0424 47.7021 35.9756 47.8975 35.842C48.0921 35.7084 48.234 35.5272 48.3234 35.2992H49.0164C48.9479 35.5534 48.8241 35.7893 48.6538 35.9899C48.4834 36.1906 48.2708 36.3511 48.0311 36.4599C47.7856 36.5768 47.4992 36.6353 47.171 36.6353ZM45.835 34.0801H48.4403C48.4236 33.7069 48.295 33.4146 48.0561 33.2034C47.8165 32.9921 47.5217 32.886 47.171 32.886C46.837 32.886 46.5389 32.9887 46.2776 33.195C46.0212 33.3954 45.8734 33.6902 45.835 34.0801ZM51.6492 36.6353C51.3459 36.6399 51.0448 36.5831 50.7641 36.4683C50.5158 36.3617 50.2978 36.1953 50.1295 35.9839C49.9706 35.765 49.8701 35.5093 49.8372 35.2408H50.5553C50.5996 35.4579 50.714 35.6474 50.8977 35.8086C51.0873 35.9647 51.3403 36.0424 51.6576 36.0424C51.9523 36.0424 52.1694 35.9814 52.3089 35.8587C52.3742 35.8031 52.4267 35.734 52.4628 35.6562C52.4988 35.5783 52.5175 35.4936 52.5176 35.4078C52.5176 35.2408 52.4759 35.113 52.3924 35.0237C52.2974 34.9242 52.1756 34.8546 52.0417 34.8233C51.8583 34.7645 51.6714 34.7171 51.4822 34.6813C51.2484 34.6312 51.0205 34.5644 50.7975 34.4809C50.5903 34.4018 50.4024 34.2794 50.2464 34.1218C50.1019 33.9715 50.0293 33.7737 50.0293 33.529C50.0293 33.2843 50.0902 33.0697 50.213 32.886C50.3357 32.7023 50.5078 32.5579 50.7307 32.4518C50.9587 32.3458 51.2259 32.2932 51.5323 32.2932C51.9724 32.2932 52.3314 32.4042 52.6095 32.6272C52.8934 32.8443 53.0579 33.1557 53.1022 33.5624H52.4091C52.3998 33.4657 52.3705 33.3719 52.3231 33.2871C52.2756 33.2023 52.2111 33.1283 52.1335 33.0697C51.9832 32.947 51.7803 32.886 51.524 32.886C51.2735 32.886 51.0789 32.9386 50.9395 33.0447C50.8753 33.0934 50.8236 33.1566 50.7888 33.2292C50.7539 33.3018 50.7369 33.3817 50.7391 33.4622C50.7391 33.5733 50.7783 33.6684 50.856 33.7461C50.9336 33.8238 51.0455 33.8906 51.19 33.9465C51.3403 34.0024 51.5156 34.0525 51.716 34.0968C51.9941 34.1527 52.2479 34.2221 52.4759 34.3056C52.7038 34.3891 52.8876 34.5118 53.027 34.673C53.1664 34.8291 53.2358 35.0546 53.2358 35.3493C53.2442 35.5841 53.1769 35.8154 53.0437 36.009C52.9071 36.2111 52.716 36.3704 52.4926 36.4683C52.2588 36.5793 51.9774 36.6353 51.6492 36.6353ZM54.2378 38.3721V32.3934H54.8724L54.9392 33.0781C55.0728 32.8777 55.2623 32.6965 55.507 32.5353C55.7575 32.3742 56.0748 32.2932 56.4589 32.2932C56.8764 32.2932 57.238 32.3875 57.5444 32.5771C57.8509 32.7666 58.0872 33.0255 58.2542 33.3536C58.4212 33.6818 58.5047 34.0551 58.5047 34.4726C58.5047 34.8842 58.4212 35.255 58.2542 35.5831C58.0872 35.9113 57.8476 36.1702 57.5361 36.3597C57.2296 36.5434 56.8681 36.6353 56.4506 36.6353C56.1347 36.6409 55.8222 36.5693 55.5404 36.4265C55.2868 36.2951 55.0777 36.0918 54.9392 35.842V38.3721H54.2378ZM56.3754 36.0257C56.6593 36.0257 56.9073 35.9614 57.1186 35.8336C57.3298 35.7 57.4943 35.5163 57.6112 35.2825C57.7371 35.0284 57.8001 34.7478 57.7949 34.4642C57.7949 34.1694 57.7365 33.9048 57.6196 33.671C57.5166 33.441 57.3481 33.2464 57.1353 33.1115C56.924 32.972 56.6702 32.9027 56.3754 32.9027C56.0974 32.9027 55.8494 32.9695 55.6323 33.1032C55.421 33.2309 55.254 33.4121 55.1312 33.6459C55.0143 33.8797 54.9559 34.1527 54.9559 34.4642C54.9559 34.754 55.0143 35.0178 55.1312 35.2575C55.2481 35.4913 55.4126 35.6775 55.6239 35.817C55.8352 35.9564 56.0857 36.0257 56.3754 36.0257ZM61.3939 36.6353C61.0148 36.6353 60.6674 36.5518 60.3501 36.3848C60.0328 36.2122 59.7698 35.9549 59.5902 35.6416C59.4007 35.3134 59.3063 34.9176 59.3063 34.4559C59.3063 34.0158 59.3982 33.6351 59.5819 33.3119C59.7706 32.9888 60.0244 32.7382 60.3417 32.5604C60.6748 32.3799 61.0485 32.2879 61.4273 32.2932C61.8114 32.2932 62.1621 32.3767 62.4794 32.5437C62.8017 32.7107 63.0606 32.9553 63.256 33.2785C63.4505 33.6017 63.5482 33.9941 63.5482 34.4559C63.5482 34.8792 63.4564 35.255 63.2727 35.5831C63.089 35.9113 62.8326 36.1702 62.5044 36.3597C62.1813 36.5434 61.8114 36.6353 61.3939 36.6353ZM61.3939 36.0257C61.6661 36.0257 61.9116 35.9614 62.1287 35.8336C62.3458 35.7 62.5178 35.5163 62.6464 35.2825C62.7742 35.0487 62.8384 34.7732 62.8384 34.4559C62.8384 34.1553 62.7825 33.888 62.6714 33.6542C62.5665 33.4277 62.3983 33.2363 62.1871 33.1032C61.975 32.9695 61.7195 32.9027 61.4189 32.9027C61.1125 32.9027 60.8536 32.972 60.6424 33.1115C60.4361 33.2509 60.28 33.4372 60.1747 33.671C60.0687 33.9048 60.0161 34.1661 60.0161 34.4559C60.0161 34.8233 60.0829 35.1239 60.2165 35.3577C60.3501 35.5856 60.5221 35.756 60.7342 35.8671C60.9455 35.9731 61.1651 36.0257 61.3939 36.0257ZM64.521 36.5351V32.3934H65.1556L65.1974 33.1365C65.331 32.8752 65.523 32.6689 65.7735 32.5186C66.024 32.3683 66.3079 32.2932 66.6253 32.2932C67.1146 32.2932 67.5045 32.4435 67.7943 32.7441C68.089 33.0388 68.2368 33.4956 68.2368 34.1135V36.5351H67.5354V34.1887C67.5354 33.7603 67.4461 33.4371 67.2682 33.22C67.0895 33.0029 66.8223 32.8944 66.4666 32.8944C66.11 32.8944 65.8119 33.0255 65.5731 33.2868C65.3393 33.5432 65.2224 33.9106 65.2224 34.3891V36.5351H64.521ZM70.8939 36.6353C70.5906 36.6399 70.2895 36.5831 70.0087 36.4683C69.7605 36.3617 69.5424 36.1953 69.3741 35.9839C69.2153 35.765 69.1147 35.5093 69.0819 35.2408H69.8C69.8442 35.4579 69.9586 35.6474 70.1423 35.8086C70.3319 35.9647 70.5849 36.0424 70.9022 36.0424C71.197 36.0424 71.4141 35.9814 71.5535 35.8587C71.6189 35.8031 71.6714 35.734 71.7074 35.6562C71.7435 35.5783 71.7622 35.4936 71.7623 35.4078C71.7623 35.2408 71.7205 35.113 71.637 35.0237C71.5421 34.9242 71.4202 34.8546 71.2863 34.8233C71.1029 34.7645 70.9161 34.7171 70.7268 34.6813C70.493 34.6312 70.2651 34.5644 70.0421 34.4809C69.835 34.4018 69.6471 34.2794 69.491 34.1218C69.3466 33.9715 69.2739 33.7737 69.2739 33.529C69.2739 33.2843 69.3349 33.0697 69.4576 32.886C69.5804 32.7023 69.7524 32.5579 69.9753 32.4518C70.2033 32.3458 70.4705 32.2932 70.777 32.2932C71.217 32.2932 71.5761 32.4042 71.8541 32.6272C72.138 32.8443 72.3025 33.1557 72.3468 33.5624H71.6537C71.6444 33.4657 71.6151 33.3719 71.5677 33.2871C71.5203 33.2023 71.4557 33.1283 71.3782 33.0697C71.2279 32.947 71.025 32.886 70.7686 32.886C70.5181 32.886 70.3235 32.9386 70.1841 33.0447C70.1199 33.0934 70.0683 33.1566 70.0334 33.2292C69.9986 33.3018 69.9815 33.3817 69.9837 33.4622C69.9837 33.5733 70.0229 33.6684 70.1006 33.7461C70.1782 33.8238 70.2901 33.8906 70.4346 33.9465C70.5849 34.0024 70.7602 34.0525 70.9607 34.0968C71.2387 34.1527 71.4926 34.2221 71.7205 34.3056C71.9485 34.3891 72.1322 34.5118 72.2716 34.673C72.4111 34.8291 72.4804 35.0546 72.4804 35.3493C72.4889 35.5841 72.4215 35.8154 72.2883 36.009C72.1517 36.2111 71.9606 36.3704 71.7372 36.4683C71.5034 36.5793 71.222 36.6353 70.8939 36.6353ZM75.3445 36.6353C74.9604 36.6353 74.6122 36.5459 74.3007 36.368C73.9938 36.1894 73.7424 35.9293 73.5743 35.6165C73.3964 35.2884 73.3071 34.9043 73.3071 34.4642C73.3071 34.03 73.3906 33.6517 73.5576 33.3286C73.7304 33.0004 73.9692 32.7466 74.2757 32.5687C74.5871 32.385 74.9495 32.2932 75.3612 32.2932C75.7511 32.2932 76.0902 32.3792 76.3799 32.552C76.6697 32.7249 76.8951 32.9587 77.0563 33.2534C77.2233 33.5432 77.3068 33.8688 77.3068 34.2304V34.4141C77.3059 34.4838 77.3031 34.5534 77.2984 34.6229H74.0001C74.0168 34.8959 74.0811 35.1406 74.1922 35.3577C74.3091 35.5689 74.4652 35.736 74.6598 35.8587C74.8602 35.9814 75.0881 36.0424 75.3445 36.0424C75.6342 36.0424 75.8764 35.9756 76.071 35.842C76.2655 35.7084 76.4075 35.5272 76.4968 35.2992H77.1899C77.1214 35.5534 76.9976 35.7893 76.8272 35.9899C76.6569 36.1906 76.4442 36.3511 76.2046 36.4599C75.9599 36.5768 75.6727 36.6353 75.3445 36.6353ZM74.0085 34.0801H76.6137C76.597 33.7069 76.4693 33.4146 76.2296 33.2034C75.99 32.9921 75.6952 32.886 75.3445 32.886C75.0105 32.886 74.7124 32.9887 74.451 33.195C74.1947 33.3954 74.0477 33.6902 74.0085 34.0801ZM80.4882 36.5351V30.6899H82.2167C82.6283 30.6899 82.979 30.7509 83.2688 30.8736C83.5577 30.9905 83.7807 31.1684 83.9368 31.408C84.0921 31.6477 84.1706 31.9508 84.1706 32.3182C84.1706 32.775 84.0504 33.1198 83.8116 33.3536C83.5778 33.5875 83.2571 33.7402 82.8513 33.8129L84.5297 36.5351H83.6613L82.1582 33.9465H81.1896V36.5351H80.4882ZM81.1896 33.3536H82.2C82.5114 33.3536 82.7594 33.3177 82.9431 33.2451C83.1125 33.1802 83.2521 33.0554 83.3356 32.8944C83.4185 32.7139 83.4586 32.5167 83.4525 32.3182C83.4525 32.0844 83.4133 31.8899 83.3356 31.7337C83.253 31.5739 83.1127 31.4515 82.9431 31.3914C82.7594 31.3137 82.5114 31.2745 82.2 31.2745H81.1896V33.3536ZM86.6598 36.6353C86.3759 36.6353 86.117 36.5877 85.8832 36.4933C85.6601 36.4073 85.4661 36.2596 85.3238 36.0675C85.1902 35.8729 85.1234 35.6357 85.1234 35.3577C85.1234 35.0345 85.2069 34.779 85.3739 34.5895C85.5409 34.3949 85.7605 34.2555 86.0335 34.172C86.3226 34.0811 86.624 34.0361 86.927 34.0384H88.0459C88.0459 33.7486 87.9958 33.5207 87.8956 33.3536C87.8115 33.1972 87.6799 33.0716 87.5199 32.9946C87.3574 32.9208 87.1806 32.8837 87.0022 32.886C86.7291 32.886 86.4928 32.9528 86.2924 33.0864C86.097 33.2142 85.9751 33.4146 85.925 33.6876H85.2069C85.2344 33.387 85.3346 33.134 85.5075 32.9278C85.6795 32.7215 85.8966 32.5662 86.1588 32.4602C86.426 32.3491 86.7066 32.2932 87.0022 32.2932C87.4197 32.2932 87.7562 32.3708 88.0125 32.527C88.268 32.6773 88.4551 32.8802 88.572 33.1365C88.6889 33.3929 88.7474 33.6768 88.7474 33.9883V35.2575C88.7474 35.4637 88.7724 35.619 88.8225 35.7251C88.8726 35.8311 89.0004 35.8946 89.2066 35.9172V36.5351C89.0229 36.5351 88.8559 36.5125 88.7056 36.4683C88.5608 36.4219 88.4292 36.3417 88.3215 36.2345C88.2144 36.1099 88.1398 35.9607 88.1044 35.8002C87.9649 36.034 87.7729 36.2319 87.5282 36.3931C87.2886 36.5543 86.9988 36.6353 86.6598 36.6353ZM86.7684 36.0424C87.0464 36.0424 87.2802 35.9731 87.4698 35.8336C87.6585 35.6892 87.8004 35.5055 87.8956 35.2825C87.9958 35.0596 88.0459 34.8291 88.0459 34.5895V34.5811H86.9855C86.7997 34.5801 86.6145 34.6025 86.4343 34.6479C86.2757 34.6794 86.1302 34.7579 86.0168 34.8734C85.9108 34.9794 85.8582 35.1297 85.8582 35.3243C85.8582 35.5748 85.9467 35.7585 86.1254 35.8754C86.3033 35.9864 86.5179 36.0424 86.7684 36.0424ZM91.5747 36.5351C91.1965 36.5351 90.8983 36.4432 90.6812 36.2595C90.4641 36.0758 90.3556 35.7443 90.3556 35.2658V32.9862H89.6375V32.3934H90.3556V31.3997H91.057V32.3934H92.2177V32.9862H91.057V35.2658C91.057 35.5272 91.1096 35.7059 91.2157 35.8002C91.3217 35.8896 91.5079 35.9338 91.7751 35.9338H92.2177V36.5351H91.5747ZM94.9148 36.6353C94.5494 36.6398 94.1893 36.5476 93.871 36.368C93.5644 36.1891 93.313 35.9291 93.1445 35.6165C92.9667 35.2884 92.8773 34.9043 92.8773 34.4642C92.8773 34.03 92.9608 33.6517 93.1279 33.3286C93.2897 33.0119 93.5389 32.7482 93.846 32.5687C94.1583 32.385 94.5198 32.2932 94.9315 32.2932C95.3214 32.2932 95.6613 32.3792 95.9502 32.552C96.24 32.7249 96.4654 32.9587 96.6266 33.2534C96.7936 33.5432 96.8771 33.8688 96.8771 34.2304V34.4141C96.8771 34.4584 96.8746 34.5285 96.8687 34.6229H93.5704C93.5871 34.8959 93.6514 35.1406 93.7625 35.3577C93.8794 35.5689 94.0355 35.736 94.2301 35.8587C94.4305 35.9814 94.6593 36.0424 94.9148 36.0424C95.2045 36.0424 95.4467 35.9756 95.6412 35.842C95.8366 35.7084 95.9786 35.5272 96.0671 35.2992H96.7602C96.6917 35.5534 96.5679 35.7893 96.3975 35.9899C96.2272 36.1906 96.0145 36.3511 95.7748 36.4599C95.5302 36.5768 95.2438 36.6353 94.9148 36.6353ZM93.5788 34.0801H96.184C96.1673 33.7069 96.0396 33.4146 95.7999 33.2034C95.5611 32.9921 95.2655 32.886 94.9148 32.886C94.5808 32.886 94.2835 32.9887 94.0213 33.195C93.7658 33.3954 93.618 33.6902 93.5788 34.0801Z" fill="#F6F9FF"/>
<path d="M268.302 215.805H266V208H268.404C269.127 208 269.747 208.154 270.262 208.467C270.777 208.777 271.171 209.224 271.446 209.805C271.72 210.385 271.857 211.078 271.857 211.887C271.857 212.7 271.719 213.4 271.442 213.987C271.165 214.572 270.762 215.02 270.232 215.335C269.703 215.648 269.06 215.805 268.302 215.805ZM266.903 214.965H268.243C268.859 214.965 269.371 214.842 269.777 214.592C270.179 214.347 270.497 213.975 270.684 213.529C270.882 213.068 270.982 212.521 270.982 211.887C270.982 211.255 270.883 210.714 270.688 210.26C270.507 209.821 270.198 209.452 269.806 209.207C269.415 208.961 268.928 208.837 268.345 208.837H266.903V214.965ZM275.602 215.927C275.063 215.927 274.599 215.801 274.208 215.552C273.818 215.299 273.505 214.934 273.307 214.501C273.09 214.007 272.983 213.468 272.995 212.924C272.995 212.324 273.098 211.796 273.307 211.338C273.519 210.877 273.812 210.519 274.188 210.263C274.568 210.003 275.01 209.874 275.515 209.874C275.806 209.874 276.094 209.924 276.379 210.026C276.663 210.129 276.921 210.294 277.155 210.521C277.388 210.748 277.574 211.047 277.714 211.421C277.852 211.796 277.921 212.255 277.921 212.802V213.182H273.605V212.404H277.044C277.044 212.074 276.98 211.78 276.855 211.52C276.734 211.259 276.543 211.041 276.304 210.892C276.066 210.743 275.791 210.67 275.514 210.683C275.199 210.674 274.889 210.767 274.626 210.949C274.377 211.125 274.187 211.354 274.052 211.636C273.919 211.917 273.851 212.228 273.853 212.542V213.06C273.853 213.502 273.925 213.877 274.072 214.185C274.22 214.489 274.423 214.721 274.687 214.881C274.95 215.039 275.254 215.119 275.601 215.119C275.828 215.119 276.032 215.086 276.214 215.019C276.392 214.954 276.555 214.85 276.691 214.714C276.829 214.57 276.934 214.395 277 214.204L277.83 214.448C277.744 214.74 277.593 215.006 277.39 215.225C277.184 215.445 276.929 215.619 276.625 215.743C276.297 215.87 275.952 215.932 275.602 215.927ZM283.635 209.95L281.564 215.805H280.69L278.621 209.95H279.554L281.099 214.615H281.157L282.702 209.95H283.635ZM286.915 215.927C286.425 215.94 285.942 215.81 285.519 215.552C285.129 215.299 284.817 214.934 284.619 214.501C284.402 214.007 284.296 213.468 284.307 212.924C284.307 212.324 284.411 211.796 284.619 211.338C284.832 210.877 285.124 210.519 285.501 210.263C285.879 210.003 286.323 209.874 286.828 209.874C287.119 209.874 287.406 209.924 287.691 210.026C287.975 210.129 288.234 210.294 288.467 210.521C288.701 210.748 288.886 211.047 289.026 211.421C289.163 211.796 289.232 212.255 289.232 212.802V213.182H284.919V212.404H288.359C288.359 212.074 288.294 211.78 288.168 211.52C288.047 211.259 287.855 211.041 287.617 210.892C287.379 210.743 287.105 210.671 286.828 210.683C286.513 210.674 286.203 210.767 285.94 210.949C285.694 211.121 285.496 211.358 285.366 211.636C285.233 211.917 285.165 212.228 285.167 212.542V213.06C285.167 213.502 285.239 213.877 285.384 214.185C285.52 214.475 285.734 214.717 286.001 214.881C286.264 215.039 286.568 215.119 286.915 215.119C287.142 215.119 287.346 215.086 287.527 215.019C287.704 214.954 287.867 214.85 288.003 214.714C288.141 214.57 288.248 214.396 288.314 214.204L289.144 214.448C289.058 214.74 288.907 215.006 288.704 215.225C288.498 215.445 288.243 215.619 287.939 215.743C287.612 215.87 287.264 215.932 286.915 215.927ZM291.4 208V215.805H290.54V208H291.4ZM295.248 215.927C294.743 215.927 294.301 215.801 293.919 215.549C293.534 215.29 293.226 214.924 293.03 214.492C292.809 213.997 292.701 213.455 292.712 212.908C292.712 212.298 292.818 211.766 293.03 211.31C293.244 210.856 293.54 210.502 293.918 210.251C294.301 210 294.743 209.874 295.25 209.874C295.754 209.874 296.197 210 296.575 210.251C296.956 210.502 297.252 210.856 297.463 211.31C297.676 211.766 297.785 212.298 297.785 212.908C297.785 213.512 297.678 214.042 297.464 214.492C297.27 214.925 296.962 215.292 296.576 215.549C296.197 215.801 295.753 215.927 295.248 215.927ZM295.248 215.119C295.633 215.119 295.948 215.015 296.197 214.809C296.443 214.604 296.627 214.332 296.746 213.997C296.866 213.662 296.925 213.299 296.925 212.908C296.925 212.516 296.866 212.152 296.746 211.814C296.639 211.493 296.449 211.209 296.197 210.994C295.925 210.778 295.59 210.668 295.25 210.683C294.908 210.668 294.573 210.778 294.301 210.994C294.049 211.209 293.859 211.493 293.752 211.814C293.63 212.165 293.569 212.535 293.572 212.908C293.572 213.299 293.632 213.662 293.752 213.997C293.87 214.332 294.054 214.604 294.301 214.809C294.549 215.015 294.863 215.119 295.248 215.119ZM299.097 218V209.95H299.927V210.88H300.029C300.094 210.779 300.181 210.648 300.292 210.492C300.425 210.315 300.591 210.17 300.781 210.065C300.995 209.938 301.284 209.874 301.647 209.874C302.119 209.874 302.535 209.996 302.894 210.244C303.254 210.49 303.535 210.839 303.736 211.292C303.938 211.744 304.038 212.277 304.038 212.893C304.038 213.512 303.936 214.05 303.736 214.505C303.555 214.93 303.265 215.295 302.897 215.557C302.53 215.806 302.1 215.935 301.662 215.927C301.302 215.927 301.014 215.863 300.799 215.739C300.606 215.633 300.436 215.487 300.299 215.309C300.204 215.179 300.114 215.044 300.029 214.905H299.957V218H299.097ZM299.942 212.877C299.942 213.319 300.005 213.71 300.128 214.047C300.251 214.382 300.432 214.646 300.671 214.836C300.924 215.029 301.232 215.129 301.545 215.119C301.869 215.13 302.187 215.025 302.445 214.821C302.688 214.62 302.871 214.351 302.992 214.013C303.116 213.672 303.178 213.294 303.178 212.877C303.183 212.498 303.122 212.121 302.996 211.765C302.891 211.452 302.703 211.178 302.453 210.975C302.191 210.772 301.871 210.669 301.545 210.683C301.23 210.671 300.921 210.768 300.664 210.96C300.417 211.156 300.229 211.424 300.125 211.73C300.003 212.059 299.942 212.441 299.942 212.877ZM307.697 215.927C307.157 215.927 306.692 215.801 306.299 215.552C305.909 215.299 305.597 214.934 305.4 214.501C305.183 214.007 305.076 213.468 305.087 212.924C305.087 212.324 305.192 211.796 305.4 211.338C305.592 210.9 305.898 210.528 306.282 210.263C306.661 210.003 307.105 209.874 307.608 209.874C307.9 209.874 308.188 209.924 308.473 210.026C308.755 210.129 309.015 210.294 309.249 210.521C309.481 210.748 309.666 211.047 309.806 211.421C309.944 211.796 310.013 212.255 310.013 212.802V213.182H305.699V212.404H309.139C309.139 212.074 309.076 211.78 308.949 211.52C308.828 211.259 308.637 211.04 308.398 210.892C308.16 210.743 307.885 210.67 307.608 210.683C307.293 210.674 306.983 210.767 306.72 210.949C306.472 211.125 306.281 211.354 306.148 211.636C306.014 211.917 305.945 212.228 305.947 212.542V213.06C305.947 213.502 306.019 213.877 306.166 214.185C306.314 214.489 306.519 214.721 306.781 214.881C307.044 215.039 307.348 215.119 307.697 215.119C307.922 215.119 308.126 215.086 308.308 215.019C308.486 214.954 308.649 214.85 308.785 214.714C308.923 214.57 309.028 214.395 309.094 214.204L309.926 214.448C309.84 214.74 309.689 215.006 309.485 215.225C309.278 215.445 309.023 215.619 308.719 215.743C308.392 215.87 308.045 215.932 307.697 215.927ZM313.435 215.927C312.968 215.927 312.557 215.803 312.199 215.557C311.831 215.295 311.54 214.93 311.36 214.505C311.149 213.997 311.046 213.447 311.059 212.893C311.059 212.277 311.159 211.744 311.362 211.292C311.562 210.839 311.843 210.49 312.203 210.244C312.562 209.996 312.976 209.874 313.448 209.874C313.813 209.874 314.101 209.938 314.313 210.065C314.503 210.169 314.67 210.314 314.801 210.492C314.915 210.648 315.004 210.779 315.066 210.88H315.14V208H316V215.805H315.168V214.905H315.066C315.004 215.012 314.913 215.146 314.796 215.309C314.66 215.487 314.49 215.633 314.298 215.739C314.081 215.863 313.793 215.927 313.435 215.927ZM313.55 215.119C313.863 215.129 314.171 215.029 314.425 214.836C314.673 214.631 314.86 214.358 314.967 214.047C315.092 213.71 315.155 213.319 315.155 212.877C315.155 212.441 315.094 212.059 314.972 211.73C314.868 211.424 314.68 211.156 314.433 210.96C314.176 210.768 313.867 210.671 313.552 210.683C313.225 210.67 312.904 210.773 312.641 210.975C312.392 211.179 312.204 211.453 312.098 211.765C311.974 212.121 311.913 212.498 311.917 212.877C311.917 213.294 311.98 213.672 312.101 214.013C312.225 214.351 312.407 214.62 312.647 214.821C312.891 215.019 313.188 215.119 313.55 215.119Z" fill="#666666"/>
<path d="M277.666 187C278.241 187.005 278.812 187.111 279.386 187.32C279.96 187.529 280.483 187.874 280.956 188.358C281.429 188.837 281.81 189.49 282.096 190.32C282.381 191.149 282.526 192.19 282.526 193.441C282.526 194.652 282.408 195.728 282.171 196.668C281.938 197.605 281.601 198.394 281.161 199.036C280.724 199.68 280.192 200.168 279.563 200.5C278.941 200.833 278.236 201 277.448 201C276.666 201 275.968 200.849 275.354 200.546C274.754 200.249 274.239 199.813 273.852 199.276C273.457 198.709 273.203 198.06 273.108 197.38H274.774C274.923 198.005 275.222 198.522 275.667 198.931C276.117 199.334 276.712 199.536 277.448 199.536C278.527 199.536 279.377 199.076 280 198.159C280.629 197.239 280.943 195.942 280.943 194.266H280.833C280.578 194.639 280.276 194.961 279.926 195.231C279.575 195.502 279.187 195.71 278.76 195.856C278.331 196.003 277.876 196.075 277.393 196.075C276.594 196.075 275.858 195.883 275.189 195.497C274.525 195.105 273.975 194.553 273.593 193.894C273.197 193.21 273 192.43 273 191.551C273 190.717 273.191 189.955 273.573 189.263C273.959 188.566 274.501 188.012 275.196 187.599C275.897 187.187 276.72 186.987 277.666 187ZM277.666 188.464C277.119 188.457 276.582 188.603 276.117 188.883C275.663 189.158 275.289 189.543 275.033 190.001C274.767 190.476 274.631 191.01 274.637 191.551C274.637 192.12 274.764 192.635 275.019 193.101C275.278 193.563 275.631 193.931 276.076 194.206C276.528 194.477 277.039 194.612 277.612 194.612C278.023 194.615 278.43 194.534 278.806 194.374C279.183 194.214 279.52 193.978 279.796 193.681C280.075 193.392 280.3 193.056 280.458 192.69C280.617 192.317 280.696 191.929 280.696 191.524C280.696 190.992 280.565 190.493 280.302 190.028C280.048 189.567 279.676 189.177 279.223 188.896C278.759 188.605 278.217 188.455 277.666 188.464ZM289.932 201C289.03 201 288.227 200.849 287.522 200.546C286.862 200.276 286.286 199.843 285.85 199.289C285.438 198.741 285.205 198.085 285.182 197.406H286.901C286.937 197.846 287.092 198.224 287.364 198.545C287.639 198.858 287.995 199.103 288.437 199.276C288.877 199.449 289.367 199.536 289.904 199.536C290.505 199.536 291.037 199.433 291.5 199.23C291.965 199.025 292.328 198.742 292.592 198.378C292.855 198.015 292.988 197.593 292.988 197.115C292.988 196.613 292.86 196.171 292.605 195.79C292.332 195.388 291.943 195.073 291.487 194.885C290.994 194.668 290.395 194.559 289.685 194.559H288.567V193.095H289.685C290.24 193.095 290.726 192.997 291.147 192.802C291.557 192.625 291.905 192.333 292.145 191.964C292.386 191.595 292.509 191.164 292.499 190.727C292.497 190.265 292.392 189.863 292.183 189.522C291.972 189.179 291.664 188.902 291.296 188.723C290.88 188.524 290.421 188.427 289.958 188.438C289.477 188.438 289.022 188.525 288.595 188.698C288.189 188.853 287.832 189.107 287.557 189.436C287.284 189.764 287.131 190.171 287.12 190.594H285.482C285.509 189.879 285.729 189.253 286.144 188.717C286.558 188.176 287.098 187.754 287.768 187.453C288.442 187.151 289.181 187 289.986 187C290.85 187 291.592 187.171 292.21 187.513C292.829 187.85 293.305 188.296 293.637 188.85C293.969 189.404 294.134 190.003 294.134 190.646C294.134 191.414 293.927 192.069 293.514 192.61C293.103 193.151 292.546 193.526 291.842 193.734V193.84C292.724 193.982 293.413 194.349 293.909 194.938C294.405 195.524 294.653 196.248 294.653 197.115C294.653 197.854 294.446 198.521 294.033 199.11C293.622 199.696 293.064 200.157 292.354 200.493C291.645 200.831 290.836 201 289.932 201ZM304.569 198.258V197.539C304.569 197.042 304.674 196.588 304.881 196.176C305.096 195.758 305.406 195.427 305.81 195.177C306.221 194.925 306.715 194.799 307.298 194.799C307.89 194.799 308.386 194.925 308.785 195.177C309.185 195.427 309.488 195.758 309.693 196.176C309.898 196.588 310 197.042 310 197.539V198.258C310 198.754 309.895 199.212 309.686 199.629C309.481 200.042 309.177 200.373 308.771 200.626C308.371 200.875 307.88 201 307.298 201C306.707 201 306.208 200.875 305.804 200.626C305.408 200.384 305.089 200.038 304.882 199.629C304.671 199.201 304.563 198.732 304.569 198.258ZM305.96 197.539V198.258C305.96 198.671 306.06 199.041 306.26 199.369C306.461 199.693 306.807 199.855 307.298 199.855C307.775 199.855 308.113 199.693 308.308 199.369C308.507 199.041 308.609 198.671 308.609 198.258V197.539C308.609 197.127 308.512 196.759 308.321 196.436C308.131 196.107 307.789 195.942 307.298 195.942C306.82 195.942 306.477 196.107 306.267 196.436C306.06 196.768 305.953 197.15 305.96 197.539ZM297.608 190.461V189.742C297.608 189.245 297.713 188.79 297.922 188.377C298.135 187.961 298.446 187.628 298.85 187.38C299.26 187.127 299.755 187 300.338 187C300.929 187 301.425 187.127 301.826 187.38C302.225 187.628 302.529 187.961 302.732 188.377C302.938 188.79 303.04 189.245 303.04 189.742V190.461C303.04 190.957 302.934 191.414 302.726 191.832C302.521 192.243 302.217 192.576 301.811 192.829C301.412 193.077 300.919 193.201 300.338 193.201C299.746 193.201 299.247 193.077 298.843 192.829C298.447 192.586 298.129 192.241 297.922 191.832C297.71 191.404 297.603 190.935 297.608 190.461ZM298.999 189.742V190.461C298.999 190.872 299.099 191.244 299.3 191.572C299.5 191.896 299.847 192.057 300.338 192.057C300.814 192.057 301.152 191.896 301.348 191.572C301.548 191.244 301.648 190.872 301.648 190.461V189.742C301.648 189.329 301.551 188.96 301.361 188.637C301.17 188.308 300.829 188.145 300.338 188.145C299.86 188.145 299.517 188.308 299.306 188.637C299.099 188.969 298.993 189.352 298.999 189.742ZM298.127 200.814L307.735 187.187H309.29L299.682 200.814H298.127Z" fill="white"/>
<path d="M293.35 137C302.167 137.161 310.856 139.154 318.867 142.853C326.878 146.552 334.037 151.876 339.894 158.49C345.751 165.104 350.178 172.864 352.895 181.28C355.612 189.697 356.561 198.586 355.682 207.389C354.204 222.154 347.658 235.945 337.163 246.404C326.667 256.862 312.876 263.336 298.148 264.72C283.419 266.104 268.669 262.312 256.42 253.991C244.172 245.67 235.186 233.338 231 219.105L242.799 215.613C245.492 224.771 250.663 233 257.737 239.389C264.81 245.777 273.51 250.074 282.871 251.803C292.232 253.532 301.887 252.624 310.765 249.182C319.643 245.739 327.396 239.896 333.164 232.3C338.932 224.705 342.488 215.655 343.439 206.155C344.39 196.654 342.698 187.076 338.551 178.482C334.404 169.888 327.963 162.615 319.945 157.47C311.927 152.325 302.644 149.511 293.127 149.338L293.35 137Z" fill="url(#paint0_linear_73_185)"/>
<path d="M230 217C226.421 202.932 227.671 188.055 233.547 174.797C239.423 161.539 249.578 150.682 262.355 144L268 154.994C257.687 160.388 249.49 169.152 244.746 179.854C240.003 190.556 238.994 202.564 241.883 213.92L230 217Z" fill="#883F1A"/>
<path d="M261 143.529C271.274 138.663 282.497 136.093 293.878 136L294 150.921C284.813 150.996 275.754 153.071 267.462 157L261 143.529Z" fill="#FFF2DD"/>
<path d="M57 198.146H51V250H57V198.146Z" fill="#DCC093"/>
<path d="M66 213.199H60V249.999H66V213.199Z" fill="url(#paint1_linear_73_185)"/>
<path d="M88 201.49H82V249.999H88V201.49Z" fill="#DCC093"/>
<path d="M97 186.437H91V250H97V186.437Z" fill="url(#paint2_linear_73_185)"/>
<path d="M119 158H113V250H119V158Z" fill="#DCC093"/>
<path d="M128 181.417H122V249.999H128V181.417Z" fill="url(#paint3_linear_73_185)"/>
<path d="M150 194.8H144V250H150V194.8Z" fill="#DCC093"/>
<path d="M159 168.035H153V249.999H159V168.035Z" fill="url(#paint4_linear_73_185)"/>
<path d="M26 186.437H20V250H26V186.437Z" fill="#DCC093"/>
<path d="M35 198.146H29V250H35V198.146Z" fill="url(#paint5_linear_73_185)"/>
<path d="M313.081 50.9995V38.9995H313.817V50.9995H313.081ZM315.387 42.7212C315.34 42.2777 315.141 41.9338 314.793 41.69C314.446 41.4432 314.008 41.3197 313.48 41.3197C313.103 41.3197 312.775 41.3822 312.501 41.5073C312.224 41.6291 312.01 41.798 311.857 42.0135C311.707 42.2261 311.632 42.4682 311.632 42.7401C311.632 42.9681 311.684 43.165 311.785 43.3307C311.89 43.4965 312.027 43.6358 312.194 43.7482C312.365 43.8574 312.548 43.9492 312.744 44.0251C312.938 44.0963 313.125 44.1549 313.305 44.2024L314.204 44.4461C314.499 44.5205 314.799 44.6233 315.109 44.7515C315.417 44.8797 315.703 45.0475 315.967 45.2579C316.231 45.4668 316.444 45.7264 316.606 46.035C316.77 46.3452 316.853 46.7155 316.853 47.146C316.853 47.6904 316.718 48.173 316.448 48.594C316.181 49.0166 315.794 49.3489 315.284 49.5926C314.777 49.8363 314.165 49.9582 313.445 49.9582C312.756 49.9582 312.159 49.8442 311.655 49.6164C311.151 49.3885 310.756 49.0656 310.472 48.6462C310.187 48.2237 310.03 47.7236 310 47.146H311.394C311.421 47.4925 311.529 47.7822 311.717 48.0132C311.91 48.2411 312.154 48.412 312.451 48.5244C312.751 48.6336 313.079 48.689 313.436 48.689C313.828 48.689 314.177 48.6241 314.483 48.4959C314.792 48.3645 315.035 48.1841 315.212 47.9531C315.388 47.7173 315.476 47.4451 315.476 47.1317C315.476 46.8484 315.399 46.6142 315.243 46.4338C315.091 46.2518 314.881 46.103 314.619 45.9843C314.357 45.8657 314.061 45.7596 313.732 45.6694L312.643 45.3608C311.907 45.1503 311.322 44.8433 310.89 44.4366C310.462 44.0299 310.247 43.4934 310.247 42.8244C310.247 42.2713 310.392 41.7885 310.679 41.3761C310.967 40.9635 311.356 40.6432 311.848 40.4151C312.34 40.1839 312.894 40.0682 313.512 40.0682C314.136 40.0682 314.685 40.1823 315.162 40.4104C315.642 40.6386 316.02 40.9526 316.295 41.3526C316.571 41.7494 316.715 42.2056 316.727 42.7212H315.387ZM318.387 49.7999V48.7491L321.504 45.383C321.836 45.0174 322.111 44.6977 322.327 44.4223C322.545 44.1454 322.709 43.8811 322.817 43.6311C322.925 43.3807 322.98 43.115 322.98 42.8338C322.98 42.515 322.907 42.2401 322.763 42.0088C322.62 41.7744 322.423 41.5948 322.174 41.4697C321.925 41.3417 321.645 41.2776 321.332 41.2776C321.003 41.2776 320.716 41.3479 320.47 41.4886C320.224 41.6291 320.036 41.8276 319.904 42.0838C319.772 42.34 319.705 42.6401 319.705 42.9838H318.379C318.379 42.3995 318.507 41.8885 318.765 41.4511C319.023 41.0135 319.377 40.6745 319.826 40.434C320.276 40.1901 320.787 40.0682 321.36 40.0682C321.938 40.0682 322.448 40.1885 322.889 40.4292C323.334 40.6667 323.68 40.9917 323.927 41.4042C324.176 41.8135 324.301 42.2761 324.301 42.7917C324.301 43.1479 324.237 43.4966 324.108 43.8368C323.982 44.1771 323.762 44.5569 323.447 44.9762C323.132 45.3909 322.694 45.8957 322.134 46.4892L320.303 48.4864V48.5576H324.449V49.7999H318.387ZM329.36 49.9582C328.649 49.955 328.043 49.7604 327.539 49.3726C327.035 48.9849 326.649 48.4215 326.384 47.6809C326.117 46.9402 325.983 46.0477 325.983 45.0047C325.983 43.9634 326.117 43.0745 326.384 42.337C326.652 41.5995 327.04 41.0369 327.544 40.6495C328.051 40.2621 328.655 40.0682 329.36 40.0682C330.064 40.0682 330.668 40.2635 331.172 40.6542C331.676 41.0417 332.062 41.6041 332.328 42.3416C332.598 43.0761 332.733 43.9634 332.733 45.0047C332.733 46.0508 332.6 46.945 332.332 47.6856C332.065 48.4231 331.681 48.9865 331.177 49.3774C330.673 49.7651 330.067 49.9582 329.36 49.9582ZM329.36 48.7064C329.984 48.7064 330.471 48.3899 330.822 47.7552C331.175 47.1206 331.353 46.2043 331.353 45.0047C331.353 44.2071 331.271 43.5345 331.11 42.9838C330.951 42.4307 330.721 42.0119 330.421 41.7275C330.125 41.4402 329.771 41.2963 329.36 41.2963C328.74 41.2963 328.253 41.615 327.899 42.2527C327.545 42.8901 327.366 43.8067 327.363 45.0047C327.363 45.8039 327.443 46.4813 327.601 47.0336C327.764 47.5843 327.993 48.0005 328.289 48.2854C328.587 48.5671 328.944 48.7064 329.36 48.7064ZM334.898 49.8886C334.652 49.8886 334.441 49.7984 334.264 49.6164C334.087 49.4328 333.999 49.2096 333.999 48.9501C333.999 48.6953 334.087 48.4753 334.264 48.2949C334.441 48.1097 334.652 48.018 334.898 48.018C335.144 48.018 335.355 48.1097 335.533 48.2949C335.709 48.4753 335.797 48.6953 335.797 48.9501C335.797 49.1226 335.756 49.2808 335.671 49.4249C335.59 49.5641 335.483 49.6781 335.348 49.7619C335.212 49.8458 335.064 49.8886 334.898 49.8886ZM340.454 49.9582C339.743 49.955 339.136 49.7604 338.632 49.3726C338.128 48.9849 337.743 48.4215 337.476 47.6809C337.209 46.9402 337.075 46.0477 337.075 45.0047C337.075 43.9634 337.209 43.0745 337.476 42.337C337.746 41.5995 338.132 41.0369 338.636 40.6495C339.143 40.2621 339.749 40.0682 340.454 40.0682C341.158 40.0682 341.761 40.2635 342.265 40.6542C342.769 41.0417 343.155 41.6041 343.42 42.3416C343.69 43.0761 343.826 43.9634 343.826 45.0047C343.826 46.0508 343.692 46.945 343.425 47.6856C343.159 48.4231 342.773 48.9865 342.269 49.3774C341.765 49.7651 341.161 49.9582 340.454 49.9582ZM340.454 48.7064C341.076 48.7064 341.563 48.3899 341.914 47.7552C342.268 47.1206 342.446 46.2043 342.446 45.0047C342.446 44.2071 342.364 43.5345 342.203 42.9838C342.043 42.4307 341.814 42.0119 341.515 41.7275C341.217 41.4402 340.863 41.2963 340.454 41.2963C339.833 41.2963 339.345 41.615 338.991 42.2527C338.638 42.8901 338.459 43.8067 338.457 45.0047C338.457 45.8039 338.536 46.4813 338.695 47.0336C338.856 47.5843 339.086 48.0005 339.383 48.2854C339.679 48.5671 340.036 48.7064 340.454 48.7064ZM348.628 49.9582C347.917 49.955 347.31 49.7604 346.806 49.3726C346.302 48.9849 345.916 48.4215 345.651 47.6809C345.383 46.9402 345.25 46.0477 345.25 45.0047C345.25 43.9634 345.383 43.0745 345.651 42.337C345.919 41.5995 346.306 41.0369 346.811 40.6495C347.318 40.2621 347.922 40.0682 348.628 40.0682C349.332 40.0682 349.935 40.2635 350.439 40.6542C350.943 41.0417 351.329 41.6041 351.595 42.3416C351.865 43.0761 352 43.9634 352 45.0047C352 46.0508 351.866 46.945 351.599 47.6856C351.334 48.4231 350.948 48.9865 350.444 49.3774C349.94 49.7651 349.335 49.9582 348.628 49.9582ZM348.628 48.7064C349.25 48.7064 349.738 48.3899 350.088 47.7552C350.442 47.1206 350.62 46.2043 350.62 45.0047C350.62 44.2071 350.538 43.5345 350.377 42.9838C350.218 42.4307 349.988 42.0119 349.689 41.7275C349.392 41.4402 349.038 41.2963 348.628 41.2963C348.007 41.2963 347.52 41.615 347.166 42.2527C346.812 42.8901 346.633 43.8067 346.63 45.0047C346.63 45.8039 346.71 46.4813 346.868 47.0336C347.031 47.5843 347.26 48.0005 347.558 48.2854C347.854 48.5671 348.21 48.7064 348.628 48.7064Z" fill="white"/>
<path d="M308.4 60.7165C308.351 60.3021 308.153 59.9795 307.805 59.7516C307.456 59.5208 307.017 59.4054 306.489 59.4054C306.11 59.4054 305.783 59.4646 305.506 59.5815C305.229 59.6954 305.014 59.8523 304.862 60.055C304.712 60.2533 304.636 60.4797 304.636 60.7343C304.636 60.9473 304.687 61.1308 304.789 61.2862C304.894 61.4416 305.031 61.5704 305.2 61.6769C305.37 61.779 305.555 61.8648 305.749 61.9344C305.944 62.0025 306.133 62.0572 306.312 62.1016L307.214 62.3295C307.508 62.3991 307.811 62.4938 308.12 62.6136C308.429 62.7335 308.716 62.8918 308.981 63.0872C309.244 63.284 309.459 63.5252 309.62 63.8153C309.786 64.1038 309.868 64.4501 309.868 64.8541C309.868 65.3617 309.732 65.8145 309.463 66.2082C309.195 66.6033 308.806 66.9141 308.296 67.1419C307.788 67.3698 307.173 67.4838 306.452 67.4838C305.761 67.4838 305.163 67.3772 304.658 67.1641C304.155 66.951 303.759 66.6477 303.473 66.257C303.189 65.8619 303.03 65.3943 303 64.8541H304.398C304.424 65.1782 304.532 65.449 304.722 65.6651C304.914 65.8782 305.159 66.038 305.457 66.1431C305.757 66.2452 306.086 66.2955 306.443 66.2955C306.837 66.2955 307.187 66.2363 307.493 66.1164C307.803 65.9936 308.047 65.8234 308.223 65.6074C308.401 65.3883 308.489 65.1323 308.489 64.8408C308.489 64.5744 308.412 64.3569 308.255 64.1882C308.101 64.018 307.893 63.8774 307.628 63.7664C307.367 63.6554 307.071 63.5578 306.741 63.4734L305.65 63.1834C304.911 62.988 304.325 62.701 303.893 62.3206C303.463 61.9403 303.248 61.4387 303.248 60.8127C303.248 60.2962 303.393 59.8434 303.682 59.4586C303.969 59.0724 304.36 58.7735 304.853 58.5604C305.345 58.3443 305.901 58.2348 306.521 58.2348C307.144 58.2348 307.697 58.3428 308.174 58.5559C308.654 58.769 309.033 59.062 309.309 59.4364C309.586 59.8079 309.729 60.2341 309.742 60.7165H308.4ZM311.424 69.8589V60.6025H312.74V61.6932H312.853C312.931 61.5541 313.043 61.3913 313.191 61.2078C313.338 61.0228 313.542 60.863 313.804 60.7254C314.064 60.5848 314.411 60.5152 314.84 60.5152C315.398 60.5152 315.897 60.6514 316.336 60.9266C316.775 61.2019 317.119 61.597 317.367 62.1149C317.62 62.6314 317.746 63.2544 317.746 63.981C317.746 64.7091 317.621 65.3336 317.372 65.853C317.124 66.3709 316.78 66.769 316.345 67.0502C315.909 67.3269 315.412 67.466 314.854 67.466C314.432 67.466 314.088 67.398 313.822 67.2603C313.557 67.1227 313.349 66.9629 313.2 66.7779C313.049 66.5944 312.934 66.4301 312.853 66.2866H312.771V69.8589H311.424ZM312.745 63.9692C312.745 64.4412 312.815 64.8571 312.956 65.2137C313.098 65.5704 313.302 65.8486 313.569 66.0498C313.836 66.2496 314.164 66.3488 314.551 66.3488C314.954 66.3488 315.29 66.2452 315.561 66.038C315.83 65.8264 316.036 65.5422 316.174 65.1826C316.314 64.823 316.386 64.419 316.386 63.9692C316.386 63.5237 316.316 63.1257 316.179 62.772C316.043 62.4183 315.838 62.1401 315.566 61.9344C315.295 61.7302 314.957 61.6281 314.551 61.6281C314.161 61.6281 313.83 61.7257 313.56 61.9211C313.293 62.1179 313.09 62.3902 312.952 62.7409C312.813 63.0916 312.745 63.5015 312.745 63.9692ZM322.239 67.4705C321.557 67.4705 320.97 67.3284 320.477 67.0458C319.987 66.7587 319.61 66.3576 319.342 65.8397C319.077 65.3203 318.945 64.7106 318.945 64.0121C318.945 63.3225 319.077 62.7158 319.342 62.1889C319.61 61.6636 319.981 61.2522 320.459 60.9577C320.939 60.6617 321.502 60.5152 322.144 60.5152C322.535 60.5152 322.914 60.5774 323.279 60.7032C323.646 60.829 323.976 61.0258 324.267 61.2951C324.559 61.5644 324.789 61.9122 324.956 62.3428C325.125 62.769 325.209 63.2884 325.209 63.8981V64.3628H319.707V63.3817H323.888C323.888 63.0369 323.816 62.7305 323.672 62.4657C323.527 62.1963 323.325 61.9847 323.063 61.8293C322.805 61.6754 322.502 61.597 322.154 61.597C321.775 61.597 321.445 61.6873 321.162 61.8693C320.883 62.0469 320.667 62.2807 320.513 62.5707C320.363 62.8563 320.288 63.1686 320.288 63.5045V64.2711C320.288 64.7209 320.369 65.1042 320.532 65.4194C320.696 65.7346 320.926 65.9758 321.221 66.1431C321.515 66.3058 321.858 66.3887 322.252 66.3887C322.508 66.3887 322.741 66.3532 322.951 66.2822C323.161 66.2096 323.343 66.1016 323.497 65.9581C323.649 65.816 323.766 65.6384 323.848 65.4283L325.123 65.6517C325.021 66.0173 324.837 66.3369 324.574 66.6122C324.312 66.883 323.982 67.0946 323.587 67.247C323.193 67.3965 322.744 67.4705 322.239 67.4705ZM328.051 63.3373V67.3343H326.704V60.6025H327.997V61.6976H328.083C328.242 61.341 328.492 61.0554 328.831 60.8393C329.173 60.6233 329.604 60.5152 330.124 60.5152C330.596 60.5152 331.008 60.6114 331.363 60.8038C331.717 60.9932 331.993 61.2774 332.187 61.6547C332.384 62.0306 332.481 62.4967 332.481 63.0532V67.3343H331.133V63.21C331.133 62.7217 331.002 62.3414 330.742 62.0661C330.48 61.7894 330.121 61.6503 329.665 61.6503C329.352 61.6503 329.075 61.7154 328.831 61.8471C328.591 61.9788 328.399 62.1712 328.259 62.4257C328.121 62.6773 328.051 62.9806 328.051 63.3373ZM336.88 67.466C336.32 67.466 335.822 67.3269 335.383 67.0502C334.947 66.769 334.605 66.3709 334.356 65.853C334.109 65.3336 333.986 64.7091 333.986 63.981C333.986 63.2544 334.111 62.6314 334.36 62.1149C334.613 61.597 334.958 61.2019 335.396 60.9266C335.834 60.6514 336.332 60.5152 336.889 60.5152C337.318 60.5152 337.663 60.5848 337.925 60.7254C338.19 60.863 338.393 61.0228 338.538 61.2078C338.684 61.3913 338.798 61.5541 338.88 61.6932H338.961V58.3576H340.309V67.3343H338.993V66.2866H338.88C338.798 66.4301 338.681 66.5944 338.529 66.7779C338.378 66.9629 338.171 67.1227 337.907 67.2603C337.642 67.398 337.3 67.466 336.88 67.466ZM337.176 66.3488C337.564 66.3488 337.891 66.2496 338.159 66.0498C338.428 65.8486 338.634 65.5704 338.772 65.2137C338.912 64.8571 338.984 64.4412 338.984 63.9692C338.984 63.5015 338.914 63.0916 338.777 62.7409C338.638 62.3902 338.435 62.1179 338.168 61.9211C337.901 61.7257 337.57 61.6281 337.176 61.6281C336.772 61.6281 336.432 61.7302 336.163 61.9344C335.892 62.1401 335.688 62.4183 335.55 62.772C335.415 63.1257 335.348 63.5237 335.348 63.9692C335.348 64.419 335.416 64.823 335.554 65.1826C335.693 65.5422 335.897 65.8264 336.168 66.038C336.44 66.2452 336.776 66.3488 337.176 66.3488ZM342.232 67.3343V60.6025H343.579V67.3343H342.232ZM342.912 59.5637C342.678 59.5637 342.476 59.4882 342.308 59.3358C342.142 59.1804 342.06 58.9969 342.06 58.7838C342.06 58.5678 342.142 58.3828 342.308 58.2318C342.476 58.0765 342.678 57.9995 342.912 57.9995C343.146 57.9995 343.346 58.0765 343.512 58.2318C343.679 58.3828 343.764 58.5678 343.764 58.7838C343.764 58.9969 343.679 59.1804 343.512 59.3358C343.346 59.4882 343.146 59.5637 342.912 59.5637ZM346.739 63.3373V67.3343H345.392V60.6025H346.685V61.6976H346.771C346.93 61.341 347.178 61.0554 347.519 60.8393C347.861 60.6233 348.292 60.5152 348.812 60.5152C349.284 60.5152 349.696 60.6114 350.051 60.8038C350.405 60.9932 350.681 61.2774 350.875 61.6547C351.07 62.0306 351.169 62.4967 351.169 63.0532V67.3343H349.821V63.21C349.821 62.7217 349.69 62.3414 349.429 62.0661C349.168 61.7894 348.809 61.6503 348.353 61.6503C348.039 61.6503 347.761 61.7154 347.519 61.8471C347.279 61.9788 347.087 62.1712 346.946 62.4257C346.809 62.6773 346.739 62.9806 346.739 63.3373ZM355.878 69.9995C355.327 69.9995 354.854 69.93 354.458 69.7894C354.064 69.6488 353.743 69.4638 353.494 69.2329C353.244 69.0021 353.059 68.7491 352.936 68.4738L354.093 68.0091C354.174 68.1379 354.282 68.274 354.417 68.4176C354.556 68.5641 354.741 68.6884 354.976 68.7905C355.213 68.8926 355.519 68.9429 355.892 68.9429C356.401 68.9429 356.824 68.8216 357.158 68.5789C357.491 68.3406 357.658 67.9573 357.658 67.4305V66.1075H357.571C357.491 66.2511 357.374 66.4094 357.22 66.5855C357.071 66.7601 356.862 66.9126 356.599 67.0413C356.334 67.1701 355.991 67.2337 355.566 67.2337C355.02 67.2337 354.527 67.1094 354.089 66.8608C353.654 66.6107 353.308 66.2407 353.053 65.7524C352.8 65.2611 352.674 64.6588 352.674 63.9425C352.674 63.2263 352.799 62.6122 353.048 62.1016C353.301 61.5896 353.646 61.1989 354.084 60.9266C354.522 60.6514 355.02 60.5152 355.575 60.5152C356.006 60.5152 356.353 60.5848 356.617 60.7254C356.881 60.863 357.088 61.0228 357.234 61.2078C357.384 61.3913 357.5 61.5541 357.58 61.6932H357.681V60.6025H359V67.4838C359 68.0624 358.863 68.5374 358.586 68.9089C358.309 69.2788 357.935 69.5541 357.463 69.7317C356.995 69.9107 356.467 69.9995 355.878 69.9995ZM355.864 66.1475C356.252 66.1475 356.579 66.0587 356.847 65.8841C357.116 65.705 357.322 65.452 357.459 65.122C357.6 64.7875 357.672 64.3894 357.672 63.9248C357.672 63.4719 357.602 63.0724 357.463 62.7276C357.326 62.3828 357.123 62.1149 356.856 61.9211C356.589 61.7257 356.258 61.6281 355.864 61.6281C355.458 61.6281 355.12 61.7302 354.851 61.9344C354.58 62.1371 354.376 62.4109 354.238 62.7587C354.102 63.1064 354.034 63.4956 354.034 63.9248C354.034 64.3658 354.104 64.7535 354.242 65.0865C354.379 65.4194 354.585 65.6799 354.854 65.8663C355.128 66.0528 355.464 66.1475 355.864 66.1475Z" fill="white" fill-opacity="0.7"/>
<defs>
<linearGradient id="paint0_linear_73_185" x1="293.5" y1="137" x2="293.5" y2="265" gradientUnits="userSpaceOnUse">
<stop stop-color="#FFA21F"/>
<stop offset="1" stop-color="#FF6115"/>
</linearGradient>
<linearGradient id="paint1_linear_73_185" x1="63" y1="213.199" x2="63" y2="249.999" gradientUnits="userSpaceOnUse">
<stop stop-color="#FFA21F"/>
<stop offset="1" stop-color="#FF6115"/>
</linearGradient>
<linearGradient id="paint2_linear_73_185" x1="94" y1="186.437" x2="94" y2="250" gradientUnits="userSpaceOnUse">
<stop stop-color="#FFA21F"/>
<stop offset="1" stop-color="#FF6115"/>
</linearGradient>
<linearGradient id="paint3_linear_73_185" x1="125" y1="181.417" x2="125" y2="249.999" gradientUnits="userSpaceOnUse">
<stop stop-color="#FFA21F"/>
<stop offset="1" stop-color="#FF6115"/>
</linearGradient>
<linearGradient id="paint4_linear_73_185" x1="156" y1="168.035" x2="156" y2="249.999" gradientUnits="userSpaceOnUse">
<stop stop-color="#FFA21F"/>
<stop offset="1" stop-color="#FF6115"/>
</linearGradient>
<linearGradient id="paint5_linear_73_185" x1="32" y1="198.146" x2="32" y2="250" gradientUnits="userSpaceOnUse">
<stop stop-color="#FFA21F"/>
<stop offset="1" stop-color="#FF6115"/>
</linearGradient>
</defs>
</svg>
