<svg width="219" height="41" viewBox="0 0 219 41" fill="none" xmlns="http://www.w3.org/2000/svg">
<g clip-path="url(#clip0_38_134)">
<path d="M122.855 30.0233H127.518V12.4347H122.855V30.0233ZM122.855 9.69189H127.518V5.50903H122.855V9.69189Z" fill="#F8F8F8"/>
<path d="M130.523 35.7832H135.186V28.0346H135.254C136.248 29.5432 137.86 30.5375 140.328 30.5375C144.854 30.5375 147.94 26.9375 147.94 21.2461C147.94 15.7603 144.957 11.9546 140.294 11.9546C137.894 11.9546 136.248 13.0861 135.117 14.6289H135.014V12.4346H130.523V35.7832ZM139.334 26.6632C136.557 26.6632 135.083 24.5718 135.083 21.3832C135.083 18.2289 136.248 15.7261 139.163 15.7261C142.043 15.7261 143.208 18.0575 143.208 21.3832C143.208 24.7089 141.7 26.6632 139.334 26.6632Z" fill="#F8F8F8"/>
<path d="M157.241 30.5375C161.63 30.5375 164.647 28.4118 164.647 24.8803C164.647 20.7661 161.39 19.9432 158.441 19.3261C155.938 18.8118 153.607 18.6746 153.607 17.1661C153.607 15.8975 154.807 15.2118 156.624 15.2118C158.613 15.2118 159.813 15.8975 160.018 17.7832H164.235C163.893 14.2518 161.321 11.9546 156.693 11.9546C152.681 11.9546 149.527 13.7718 149.527 17.5775C149.527 21.4175 152.613 22.2746 155.767 22.8918C158.167 23.3718 160.395 23.5432 160.395 25.2232C160.395 26.4575 159.23 27.2461 157.173 27.2461C155.081 27.2461 153.641 26.3546 153.333 24.3318H149.013C149.287 28.0689 152.133 30.5375 157.241 30.5375Z" fill="#F8F8F8"/>
<path d="M182.35 30.0234V12.4348H177.687V22.5834C177.687 24.9148 176.35 26.5605 174.156 26.5605C172.167 26.5605 171.242 25.4291 171.242 23.372V12.4348H166.613V24.1605C166.613 28.0005 168.807 30.5034 172.716 30.5034C175.185 30.5034 176.556 29.5777 177.756 27.9663H177.859V30.0234H182.35Z" fill="#F8F8F8"/>
<path d="M185.366 30.0232H190.029V19.8061C190.029 17.4746 191.298 15.9661 193.184 15.9661C194.898 15.9661 195.892 16.9946 195.892 18.9832V30.0232H200.555V19.8061C200.555 17.4746 201.755 15.9661 203.709 15.9661C205.424 15.9661 206.418 16.9946 206.418 18.9832V30.0232H211.081V18.1946C211.081 14.3546 208.989 11.9546 205.286 11.9546C203.058 11.9546 201.206 13.1203 200.006 15.0403H199.938C199.081 13.1889 197.298 11.9546 195.069 11.9546C192.635 11.9546 190.921 13.1889 189.961 14.8003H189.858V12.4346H185.366V30.0232Z" fill="#F8F8F8"/>
<path d="M1.32416 30.0233H5.98701V5.50903H1.32416V30.0233Z" fill="#F8F8F8"/>
<path d="M17.3884 30.5375C22.8398 30.5375 26.5769 26.4918 26.5769 21.2461C26.5769 16.0003 22.8398 11.9546 17.3884 11.9546C11.9369 11.9546 8.19977 16.0003 8.19977 21.2461C8.19977 26.4918 11.9369 30.5375 17.3884 30.5375ZM17.3884 26.9718C14.5084 26.9718 12.9312 24.6746 12.9312 21.2461C12.9312 17.8175 14.5084 15.4861 17.3884 15.4861C20.2341 15.4861 21.8455 17.8175 21.8455 21.2461C21.8455 24.6746 20.2341 26.9718 17.3884 26.9718Z" fill="#F8F8F8"/>
<path d="M36.493 36.0232C39.0987 36.0232 41.3616 35.4061 42.8358 34.0346C44.1387 32.8346 44.9273 31.1546 44.9273 28.6861V12.4346H40.4359V14.2861H40.3673C39.3044 12.8118 37.693 11.9546 35.4987 11.9546C31.0416 11.9546 27.8873 15.3146 27.8873 20.5603C27.8873 25.8746 31.7273 28.9603 35.6359 28.9603C37.8644 28.9603 39.2016 28.0689 40.2301 26.9032H40.333V28.8232C40.333 31.2232 39.0644 32.4918 36.4244 32.4918C34.2644 32.4918 33.2701 31.6346 32.893 30.5375H28.2644C28.7444 33.9661 31.693 36.0232 36.493 36.0232ZM36.4244 25.2232C34.0244 25.2232 32.4473 23.4746 32.4473 20.4918C32.4473 17.5432 34.0244 15.6918 36.3901 15.6918C39.2016 15.6918 40.573 17.8861 40.573 20.4575C40.573 23.0632 39.373 25.2232 36.4244 25.2232Z" fill="#F8F8F8"/>
<path d="M56.2611 30.5375C61.7125 30.5375 65.4497 26.4918 65.4497 21.2461C65.4497 16.0003 61.7125 11.9546 56.2611 11.9546C50.8097 11.9546 47.0725 16.0003 47.0725 21.2461C47.0725 26.4918 50.8097 30.5375 56.2611 30.5375ZM56.2611 26.9718C53.3811 26.9718 51.804 24.6746 51.804 21.2461C51.804 17.8175 53.3811 15.4861 56.2611 15.4861C59.1068 15.4861 60.7183 17.8175 60.7183 21.2461C60.7183 24.6746 59.1068 26.9718 56.2611 26.9718Z" fill="#F8F8F8"/>
<path d="M212.775 9.54722C212.775 8.75824 213.415 8.11865 214.204 8.11865H217.061C217.85 8.11865 218.49 8.75824 218.49 9.54722C218.49 10.3362 217.85 10.9758 217.061 10.9758H214.204C213.415 10.9758 212.775 10.3362 212.775 9.54722Z" fill="#F8F8F8"/>
<path fill-rule="evenodd" clip-rule="evenodd" d="M93.7277 0.499512C104.773 0.499512 113.728 9.45382 113.728 20.4995C113.728 31.5452 104.773 40.4995 93.7277 40.4995C82.682 40.4995 73.7277 31.5452 73.7277 20.4995C73.7277 9.45382 82.682 0.499512 93.7277 0.499512ZM93.0048 1.9961C90.7231 2.3172 88.5505 4.15059 86.864 7.21691C86.3748 8.10634 85.9334 9.08897 85.5488 10.15C87.842 9.57368 90.3611 9.23393 93.0048 9.18138V1.9961ZM83.8584 10.6303C84.3368 9.12909 84.9219 7.74791 85.5972 6.52016C86.4332 5.0001 87.4254 3.68746 88.5433 2.67928C82.4644 4.44474 77.6729 9.2363 75.9074 15.3152C76.9156 14.1973 78.2282 13.2051 79.7483 12.3691C80.9761 11.6938 82.3572 11.1086 83.8584 10.6303ZM83.3781 12.3206C82.8018 14.6138 82.4621 17.1329 82.4095 19.7766H75.2242C75.5453 17.4949 77.3787 15.3223 80.4451 13.6359C81.3345 13.1467 82.3171 12.7053 83.3781 12.3206ZM83.8556 19.7766C83.9153 16.8915 84.3307 14.1829 85.0179 11.7897C87.4111 11.1025 90.1197 10.6871 93.0048 10.6274V13.7503C91.9285 16.5057 89.7333 18.7007 86.9778 19.7766H83.8556ZM82.4095 21.2224H75.2242C75.5453 23.5041 77.3787 25.6766 80.4451 27.3631C81.3345 27.8523 82.3171 28.2937 83.3781 28.6784C82.8018 26.3852 82.4621 23.8661 82.4095 21.2224ZM85.0179 29.2093C84.3307 26.8161 83.9153 24.1075 83.8556 21.2224H86.9778C89.7333 22.2983 91.9285 24.4933 93.0048 27.2487V30.3716C90.1197 30.3119 87.4111 29.8965 85.0179 29.2093ZM83.8584 30.3687C82.3572 29.8904 80.9761 29.3052 79.7483 28.6299C78.2282 27.7939 76.9156 26.8017 75.9074 25.6838C77.6729 31.7627 82.4644 36.5543 88.5433 38.3197C87.4254 37.3115 86.4332 35.9989 85.5972 34.4788C84.9219 33.2511 84.3368 31.8699 83.8584 30.3687ZM93.0048 39.0029C90.7231 38.6818 88.5505 36.8484 86.864 33.7821C86.3748 32.8927 85.9334 31.91 85.5488 30.8491C87.842 31.4253 90.3611 31.7651 93.0048 31.8176V39.0029ZM98.912 38.3197C100.03 37.3115 101.022 35.9989 101.858 34.4788C102.533 33.2511 103.119 31.8699 103.597 30.3687C105.098 29.8904 106.479 29.3052 107.707 28.6299C109.227 27.7939 110.54 26.8017 111.548 25.6838C109.782 31.7627 104.991 36.5543 98.912 38.3197ZM101.907 30.8491C101.522 31.91 101.08 32.8927 100.591 33.7821C98.9048 36.8484 96.7322 38.6818 94.4505 39.0029V31.8176C97.0942 31.7651 99.6133 31.4253 101.907 30.8491ZM104.077 28.6784C105.138 28.2937 106.121 27.8523 107.01 27.3631C110.077 25.6767 111.91 23.5041 112.231 21.2224H105.046C104.993 23.8661 104.653 26.3852 104.077 28.6784ZM103.6 21.2224C103.54 24.1075 103.125 26.8161 102.437 29.2093C100.044 29.8965 97.3356 30.3119 94.4505 30.3716V27.251C95.5265 24.4946 97.7222 22.2986 100.478 21.2224H103.6ZM105.046 19.7766H112.231C111.91 17.4949 110.077 15.3223 107.01 13.6359C106.121 13.1467 105.138 12.7053 104.077 12.3206C104.653 14.6138 104.993 17.1329 105.046 19.7766ZM102.437 11.7897C103.125 14.1829 103.54 16.8915 103.6 19.7766H100.478C97.7222 18.7004 95.5265 16.5044 94.4505 13.748V10.6274C97.3356 10.6871 100.044 11.1025 102.437 11.7897ZM103.597 10.6303C105.098 11.1086 106.479 11.6938 107.707 12.3691C109.227 13.2051 110.54 14.1973 111.548 15.3152C109.782 9.2363 104.991 4.44474 98.912 2.67928C100.03 3.68746 101.022 5.0001 101.858 6.52016C102.533 7.74791 103.119 9.12909 103.597 10.6303ZM94.4505 1.9961C96.7322 2.3172 98.9048 4.15059 100.591 7.21691C101.08 8.10635 101.522 9.08897 101.907 10.15C99.6133 9.57368 97.0942 9.23393 94.4505 9.18138V1.9961Z" fill="#F8F8F8"/>
</g>
<defs>
<clipPath id="clip0_38_134">
<rect width="218" height="40" fill="white" transform="translate(0.5 0.499512)"/>
</clipPath>
</defs>
</svg>
