<svg width="1230" height="815" viewBox="0 0 1230 815" fill="none" xmlns="http://www.w3.org/2000/svg">
<path d="M1171.5 65.1377L1173.16 61.1274C1174.71 57.4007 1176.82 54.5247 1179.49 52.4992C1182.16 50.4738 1185.05 48.9664 1188.16 47.9771C1191.3 46.9068 1194.35 45.941 1197.32 45.0796C1200.36 44.2524 1203.08 43.1501 1205.48 41.7728C1207.92 40.3145 1209.71 38.208 1210.85 35.4535C1212.43 31.6458 1212.23 28.0513 1210.25 24.67C1208.39 21.2418 1205.53 18.7262 1201.66 17.123C1199.11 16.0656 1196.44 15.6265 1193.67 15.8056C1191.01 15.9378 1188.51 16.8482 1186.17 18.5368C1183.83 20.2254 1181.93 22.852 1180.45 26.4167L1164.52 19.8164C1167.31 13.0921 1171.09 8.15653 1175.86 5.00964C1180.75 1.81586 1186.02 0.154945 1191.67 0.0269146C1197.35 -0.182131 1202.82 0.804863 1208.09 2.9879C1213.61 5.27326 1218.22 8.46474 1221.92 12.5623C1225.74 16.613 1228.23 21.2031 1229.38 26.3326C1230.57 31.3811 1230.04 36.6193 1227.79 42.0474C1226.08 46.1792 1223.8 49.3622 1220.95 51.5966C1218.21 53.784 1215.23 55.4939 1212.02 56.7263C1208.84 57.8776 1205.69 58.8499 1202.57 59.643C1199.53 60.4703 1196.84 61.4915 1194.5 62.7068C1192.2 63.8411 1190.56 65.5829 1189.59 67.9324L1187.93 71.9426L1171.5 65.1377ZM1168.86 94.9363C1166.14 93.8107 1164.29 91.9986 1163.3 89.4999C1162.3 87.0013 1162.33 84.4962 1163.37 81.9847C1164.41 79.4732 1166.15 77.725 1168.58 76.74C1171.05 75.6739 1173.64 75.7037 1176.35 76.8293C1178.99 77.9209 1180.8 79.716 1181.79 82.2146C1182.9 84.6663 1182.93 87.148 1181.89 89.6594C1180.85 92.1709 1179.06 93.9426 1176.51 94.9745C1174.04 96.0406 1171.49 96.0278 1168.86 94.9363Z" fill="#131212"/>
<path d="M1138.33 536.868L1139.05 534.073C1139.72 531.476 1139.75 529.105 1139.14 526.962C1138.53 524.818 1137.59 522.862 1136.33 521.093C1135.09 519.268 1133.85 517.536 1132.62 515.895C1131.34 514.24 1130.33 512.566 1129.6 510.874C1128.89 509.125 1128.78 507.291 1129.27 505.371C1129.96 502.717 1131.5 500.887 1133.9 499.879C1136.25 498.8 1138.78 498.607 1141.48 499.301C1143.26 499.758 1144.85 500.589 1146.25 501.793C1147.61 502.925 1148.57 504.407 1149.14 506.239C1149.71 508.071 1149.68 510.229 1149.04 512.714L1160.14 515.57C1161.35 510.883 1161.31 506.75 1160.03 503.17C1158.7 499.518 1156.56 496.53 1153.61 494.206C1150.68 491.825 1147.37 490.163 1143.7 489.218C1139.86 488.229 1136.13 488.083 1132.53 488.781C1128.88 489.408 1125.73 490.854 1123.07 493.119C1120.42 495.327 1118.61 498.323 1117.63 502.106C1116.89 504.986 1116.84 507.59 1117.46 509.917C1118.04 512.174 1118.94 514.271 1120.16 516.209C1121.38 518.091 1122.67 519.866 1124.02 521.537C1125.3 523.192 1126.32 524.809 1127.08 526.388C1127.85 527.911 1128.03 529.491 1127.6 531.129L1126.89 533.924L1138.33 536.868ZM1127.84 553.764C1129.73 554.251 1131.44 554.028 1132.97 553.096C1134.49 552.164 1135.48 550.823 1135.93 549.072C1136.38 547.322 1136.15 545.699 1135.25 544.203C1134.37 542.651 1132.98 541.631 1131.09 541.144C1129.25 540.672 1127.57 540.902 1126.04 541.834C1124.48 542.695 1123.47 544.001 1123.02 545.751C1122.57 547.501 1122.82 549.16 1123.76 550.727C1124.64 552.279 1126 553.292 1127.84 553.764Z" fill="#131212"/>
<path d="M1080.51 277.721L1080.03 275.882C1079.59 274.173 1079.58 272.614 1079.98 271.203C1080.38 269.793 1080.99 268.506 1081.82 267.343C1082.64 266.142 1083.45 265.002 1084.26 263.923C1085.11 262.833 1085.77 261.732 1086.25 260.619C1086.72 259.469 1086.79 258.262 1086.47 256.999C1086.02 255.253 1085 254.049 1083.42 253.386C1081.87 252.676 1080.21 252.549 1078.44 253.005C1077.27 253.306 1076.22 253.853 1075.3 254.645C1074.4 255.39 1073.77 256.365 1073.39 257.57C1073.02 258.775 1073.04 260.195 1073.46 261.83L1066.16 263.709C1065.37 260.626 1065.39 257.906 1066.23 255.551C1067.1 253.148 1068.51 251.182 1070.45 249.653C1072.38 248.087 1074.56 246.993 1076.97 246.372C1079.5 245.721 1081.95 245.626 1084.32 246.085C1086.72 246.497 1088.8 247.448 1090.55 248.938C1092.29 250.391 1093.48 252.362 1094.12 254.851C1094.61 256.745 1094.65 258.458 1094.24 259.99C1093.85 261.475 1093.26 262.854 1092.46 264.129C1091.66 265.367 1090.81 266.535 1089.92 267.634C1089.08 268.723 1088.41 269.787 1087.91 270.826C1087.4 271.828 1087.29 272.867 1087.56 273.945L1088.04 275.784L1080.51 277.721ZM1087.41 288.836C1086.16 289.157 1085.04 289.01 1084.04 288.397C1083.03 287.784 1082.38 286.901 1082.09 285.75C1081.79 284.598 1081.94 283.53 1082.53 282.546C1083.11 281.525 1084.03 280.854 1085.27 280.534C1086.48 280.223 1087.59 280.374 1088.59 280.988C1089.62 281.554 1090.28 282.413 1090.58 283.565C1090.88 284.716 1090.71 285.808 1090.09 286.838C1089.51 287.86 1088.62 288.526 1087.41 288.836Z" fill="#131212"/>
<path d="M133.062 206.947L132.589 205.108C132.149 203.4 132.131 201.84 132.533 200.43C132.935 199.019 133.549 197.732 134.377 196.569C135.195 195.368 136.009 194.228 136.818 193.149C137.664 192.06 138.327 190.959 138.805 189.845C139.274 188.695 139.346 187.488 139.021 186.225C138.572 184.48 137.558 183.275 135.979 182.612C134.429 181.902 132.766 181.775 130.992 182.232C129.822 182.533 128.775 183.079 127.852 183.871C126.957 184.616 126.323 185.591 125.949 186.797C125.574 188.002 125.597 189.422 126.018 191.056L118.714 192.935C117.921 189.852 117.946 187.132 118.789 184.777C119.661 182.375 121.067 180.409 123.008 178.88C124.939 177.314 127.112 176.22 129.528 175.598C132.057 174.948 134.507 174.852 136.879 175.311C139.279 175.723 141.354 176.675 143.106 178.165C144.847 179.618 146.038 181.588 146.678 184.077C147.165 185.972 147.203 187.685 146.792 189.216C146.41 190.701 145.819 192.081 145.02 193.356C144.211 194.593 143.365 195.762 142.48 196.861C141.634 197.95 140.961 199.014 140.464 200.053C139.957 201.054 139.842 202.094 140.119 203.171L140.592 205.01L133.062 206.947ZM139.964 218.063C138.719 218.383 137.594 218.237 136.592 217.623C135.589 217.01 134.939 216.128 134.643 214.976C134.347 213.825 134.495 212.757 135.087 211.773C135.67 210.752 136.584 210.081 137.829 209.76C139.037 209.45 140.142 209.601 141.145 210.214C142.176 210.781 142.84 211.64 143.136 212.791C143.432 213.943 143.27 215.034 142.65 216.065C142.067 217.086 141.172 217.752 139.964 218.063Z" fill="#131212"/>
<path d="M46.6207 104.436L45.7584 99.4608C44.957 94.8376 45.239 90.6994 46.6044 87.0462C47.9699 83.3931 49.8732 80.1124 52.3145 77.2044C54.7384 74.1959 57.1374 71.347 59.5114 68.6576C61.9876 65.9506 63.978 63.1725 65.4828 60.3234C66.9702 57.3738 67.4177 54.1904 66.8254 50.7732C66.0066 46.0495 63.5749 42.6407 59.5302 40.547C55.5703 38.335 51.1904 37.6453 46.3907 38.4777C43.2249 39.0267 40.3342 40.2527 37.7187 42.1557C35.1879 43.9405 33.2983 46.3905 32.0501 49.5057C30.8018 52.621 30.5609 56.3897 31.3274 60.8119L11.5668 64.239C10.1208 55.8971 10.7657 48.6937 13.5013 42.6288C16.3217 36.4458 20.4669 31.534 25.937 27.8936C31.3898 24.1527 37.384 21.7155 43.9198 20.582C50.762 19.3954 57.2777 19.663 63.467 21.3848C69.7409 22.9884 75.0407 25.9514 79.3665 30.274C83.6749 34.496 86.4127 39.974 87.5799 46.7078C88.4684 51.8336 88.205 56.3827 86.7897 60.3551C85.4592 64.2092 83.5993 67.7411 81.2103 70.9507C78.8038 74.0597 76.3115 76.9766 73.7332 79.7013C71.257 82.4084 69.2491 85.0859 67.7095 87.7341C66.1525 90.2817 65.6265 93.0128 66.1318 95.9275L66.9941 100.902L46.6207 104.436ZM62.5546 135.37C59.1846 135.955 56.2357 135.327 53.7078 133.488C51.18 131.649 49.646 129.172 49.106 126.056C48.5659 122.94 49.1853 120.141 50.964 117.659C52.7253 115.076 55.2909 113.492 58.661 112.907C61.9289 112.341 64.8268 112.977 67.3546 114.816C69.9671 116.537 71.5434 118.955 72.0835 122.071C72.6235 125.187 71.9619 128.045 70.0984 130.646C68.3372 133.229 65.8225 134.803 62.5546 135.37Z" fill="#131212"/>
<path d="M57.3456 451.206L56.0514 448.111C54.8487 445.235 53.2124 443.018 51.1425 441.46C49.0727 439.902 46.8346 438.745 44.4283 437.989C41.9959 437.17 39.6345 436.432 37.344 435.774C34.99 435.143 32.8827 434.298 31.022 433.24C29.1352 432.12 27.7473 430.497 26.8583 428.371C25.6294 425.432 25.7737 422.654 27.2912 420.035C28.719 417.381 30.9258 415.429 33.9116 414.18C35.8809 413.356 37.938 413.009 40.0828 413.14C42.1379 413.235 44.0715 413.932 45.8836 415.231C47.6957 416.53 49.1769 418.555 50.3274 421.306L62.6199 416.162C60.4497 410.973 57.5152 407.168 53.8163 404.749C50.0277 402.294 45.9513 401.025 41.5869 400.941C37.1963 400.795 32.9682 401.572 28.9025 403.273C24.6462 405.054 21.0922 407.533 18.2407 410.71C15.2994 413.85 13.3894 417.404 12.5107 421.372C11.6058 425.276 12.0293 429.323 13.7811 433.512C15.1146 436.701 16.8872 439.155 19.099 440.874C21.2212 442.557 23.5246 443.87 26.0093 444.814C28.4679 445.695 30.9059 446.438 33.3234 447.043C35.6774 447.674 37.7586 448.456 39.567 449.389C41.3492 450.26 42.6195 451.601 43.3777 453.414L44.672 456.509L57.3456 451.206ZM59.4719 474.228C61.5683 473.351 62.9959 471.946 63.7547 470.012C64.5136 468.078 64.4877 466.142 63.6772 464.204C62.8666 462.266 61.5198 460.92 59.6367 460.165C57.7274 459.348 55.7245 459.378 53.6281 460.255C51.5953 461.105 50.1994 462.498 49.4406 464.431C48.592 466.329 48.573 468.247 49.3836 470.185C50.1941 472.123 51.5858 473.488 53.5586 474.278C55.4679 475.096 57.439 475.079 59.4719 474.228Z" fill="#131212"/>
<path d="M51.201 774.56L48.7378 770.293C46.4487 766.327 45.3152 762.441 45.3375 758.634C45.3598 754.828 46.0002 751.182 47.2588 747.696C48.4676 744.124 49.7072 740.707 50.9777 737.444C52.3358 734.131 53.2251 730.916 53.6455 727.799C54.0161 724.596 53.3554 721.529 51.6635 718.598C49.3246 714.546 45.9503 712.241 41.5406 711.684C37.1687 710.99 32.9241 711.832 28.8067 714.21C26.091 715.778 23.8551 717.874 22.0988 720.498C20.3805 722.984 19.4734 725.865 19.3775 729.139C19.2816 732.413 20.3284 735.947 22.518 739.74L5.56679 749.53C1.43644 742.374 -0.395488 735.558 0.0710124 729.081C0.575352 722.467 2.7211 716.572 6.50824 711.396C10.2456 706.134 14.9176 701.884 20.5242 698.646C26.3936 695.256 32.453 693.309 38.7024 692.804C44.9897 692.162 50.8418 693.093 56.2587 695.597C61.6258 698.015 65.9765 702.113 69.3106 707.889C71.8485 712.286 73.1372 716.543 73.1766 720.658C73.2539 724.637 72.7378 728.499 71.6286 732.243C70.4695 735.901 69.1671 739.412 67.7214 742.776C66.3633 746.089 65.4243 749.218 64.9044 752.162C64.3348 755.02 64.7715 757.7 66.2146 760.2L68.6779 764.468L51.201 774.56ZM76.2031 797.539C73.3122 799.209 70.3995 799.626 67.4651 798.792C64.5306 797.958 62.2921 796.204 60.7494 793.532C59.2067 790.859 58.8327 788.086 59.6274 785.213C60.3722 782.254 62.1901 779.94 65.081 778.27C67.8843 776.651 70.7532 776.259 73.6877 777.093C76.66 777.791 78.9175 779.476 80.4601 782.148C82.0028 784.821 82.3579 787.662 81.5254 790.672C80.7805 793.631 79.0064 795.92 76.2031 797.539Z" fill="#131212"/>
<path d="M1090.48 754.749L1092.59 758.396C1094.55 761.785 1096.94 764.285 1099.76 765.895C1102.59 767.505 1105.56 768.589 1108.68 769.147C1111.84 769.778 1114.9 770.321 1117.85 770.774C1120.88 771.185 1123.64 771.9 1126.13 772.921C1128.66 774.015 1130.64 775.815 1132.09 778.32C1134.09 781.783 1134.35 785.266 1132.88 788.768C1131.53 792.302 1129.09 795.084 1125.57 797.116C1123.25 798.457 1120.74 799.216 1118.05 799.396C1115.48 799.605 1112.96 799.046 1110.49 797.718C1108.03 796.39 1105.86 794.105 1103.99 790.863L1089.51 799.229C1093.04 805.344 1097.3 809.613 1102.29 812.036C1107.4 814.489 1112.68 815.419 1118.12 814.827C1123.61 814.309 1128.76 812.666 1133.55 809.899C1138.56 807.002 1142.59 803.348 1145.64 798.937C1148.8 794.557 1150.61 789.827 1151.07 784.746C1151.58 779.74 1150.4 774.768 1147.55 769.831C1145.39 766.073 1142.79 763.301 1139.76 761.513C1136.85 759.755 1133.77 758.487 1130.53 757.708C1127.32 757.003 1124.17 756.467 1121.06 756.1C1118.03 755.69 1115.31 755.048 1112.91 754.175C1110.55 753.375 1108.76 751.907 1107.53 749.77L1105.42 746.123L1090.48 754.749ZM1084.17 726.42C1081.69 727.847 1080.14 729.825 1079.5 732.354C1078.87 734.883 1079.21 737.289 1080.53 739.573C1081.85 741.857 1083.74 743.319 1086.2 743.958C1088.71 744.672 1091.2 744.315 1093.67 742.888C1096.07 741.504 1097.58 739.548 1098.22 737.019C1098.97 734.52 1098.69 732.129 1097.37 729.845C1096.05 727.561 1094.1 726.084 1091.52 725.414C1089.01 724.701 1086.56 725.036 1084.17 726.42Z" fill="#131212"/>
</svg>
