<svg width="196" height="32" viewBox="0 0 196 32" fill="none" xmlns="http://www.w3.org/2000/svg">
<path d="M27.3906 2.43359C29.8021 7.15156 34.8946 19.279 31.1216 31.2244C42.8115 19.7585 35.5736 8.28205 34.7371 7.08156C32.5181 5.19507 30.0471 3.63059 27.3906 2.43359" fill="#00AAFF"/>
<path d="M24.8463 1.51665H24.9268C11.8404 -2.93532 0 3.83014 0 3.84064C0.108499 4.61413 0.248498 5.36313 0.409497 6.10162C3.96547 5.88462 7.53545 6.18562 11.0039 6.99062C11.0039 6.99062 11.8929 7.34761 11.0039 7.53311C11.0039 7.53311 5.27796 8.50261 1.34399 9.5526C1.68699 10.5536 2.08949 11.5371 2.54448 12.4891C7.66845 11.9326 12.8554 12.4506 17.7694 14.0116C17.7694 14.0116 18.6584 14.4316 17.7694 14.5471C17.7694 14.5471 7.66495 15.4361 4.89647 16.5491C10.3634 24.473 18.8299 28.5855 24.2688 30.528C26.6278 31.2035 28.0978 31.5885 29.0043 31.7844V31.6514C33.4563 19.188 27.2228 6.09112 25.1753 2.37765L24.8463 1.51315V1.51665Z" fill="#0046B4"/>
<path d="M194.051 4.21384C193.988 4.25584 193.915 4.27684 193.838 4.27684H193.729V3.83934C193.729 3.70634 193.775 3.67834 193.89 3.67834C194.048 3.66434 194.184 3.77984 194.202 3.93384C194.202 3.94784 194.202 3.95834 194.202 3.97234C194.202 4.07384 194.142 4.16834 194.051 4.21384M194.709 4.95233C194.541 4.78083 194.401 4.58484 194.289 4.37484C194.485 4.31884 194.622 4.14034 194.629 3.93734C194.629 3.53834 194.289 3.46484 193.995 3.46484H193.106V3.67834C193.313 3.67834 193.337 3.67834 193.337 3.92684V4.81583C193.337 4.97683 193.251 5.05967 193.078 5.06433V5.27783H193.967V5.06433C193.743 5.06433 193.719 5.06433 193.719 4.81583V4.54984C193.789 4.54984 193.845 4.54984 193.88 4.63034C193.957 4.76684 194.044 4.89634 194.139 5.02233C194.293 5.22183 194.541 5.32333 194.79 5.28833L194.853 5.12733C194.783 5.08883 194.72 5.03633 194.667 4.97683" fill="#0046B4"/>
<path d="M193.906 5.76304C193.146 5.70354 192.579 5.03505 192.642 4.27555C192.698 3.60006 193.234 3.06456 193.906 3.01206C194.637 3.01556 195.229 3.61406 195.225 4.34555C195.225 4.36305 195.225 4.38055 195.225 4.40155C195.253 5.12254 194.693 5.73154 193.972 5.76304C193.951 5.76304 193.93 5.76304 193.909 5.76304M193.909 2.70056C192.978 2.69706 192.222 3.44606 192.219 4.37355C192.219 4.38405 192.219 4.39105 192.219 4.40155C192.208 5.31504 192.943 6.06404 193.857 6.07454C193.874 6.07454 193.892 6.07454 193.909 6.07454C194.84 6.14104 195.652 5.44104 195.719 4.51005C195.785 3.57906 195.085 2.76706 194.154 2.70056C194.074 2.69356 193.99 2.69356 193.909 2.70056" fill="#0046B4"/>
<path d="M143.405 11.2401C144.837 11.2366 145.992 10.0711 145.988 8.63963C145.985 7.20814 144.819 6.05315 143.388 6.05665C141.96 6.06015 140.805 7.21864 140.805 8.64663C140.805 10.0746 141.963 11.2366 143.395 11.2366C143.395 11.2366 143.402 11.2366 143.405 11.2366" fill="#0046B4"/>
<path d="M54.3298 28.5892C50.1823 28.5892 48.0963 22.9787 48.0963 16.4198C48.0963 10.2948 50.1438 5.73786 53.5003 5.73786H53.5458C57.2593 5.73786 59.4293 10.3928 59.4293 17.9808C59.4293 24.9702 57.3013 28.6102 54.2913 28.6102M54.1478 3.98438C46.1363 3.98438 42.2969 10.7778 42.2969 17.3368C42.2969 24.8512 46.8363 30.4512 53.7908 30.4512C60.3427 30.4512 65.3652 25.4042 65.3652 17.0988C65.3652 8.79334 60.5492 4.01937 54.1478 4.01937" fill="#0046B4"/>
<path d="M83.7073 25.706V17.8451C83.7073 14.2051 82.0063 11.8006 78.8563 11.8006C77.7644 11.8216 76.7074 12.1961 75.8464 12.8681C75.0169 13.4211 74.3519 13.9706 73.5924 14.4886V11.7656C71.3594 12.4761 69.0599 12.9661 66.7289 13.2251V14.4886C68.5104 14.8001 68.6609 14.9261 68.6609 17.2501V25.629C68.6609 28.0405 68.4544 28.121 66.2109 28.3905V29.8605H75.2549V28.3905C73.7954 28.1945 73.5889 28.044 73.5889 25.72V16.0706C74.3169 15.3531 75.2969 14.9436 76.3224 14.9296C77.6594 14.9296 78.7724 15.8186 78.7724 18.5626V25.6325C78.7724 28.044 78.5763 28.198 76.9909 28.394V29.864H85.7968V28.394C83.8998 28.163 83.7038 28.0475 83.7038 25.7235" fill="#0046B4"/>
<path d="M95.9039 18.3962L91.5149 18.5222C91.7214 15.6277 93.1354 13.4997 94.5249 13.4997C95.9494 13.4997 96.7334 15.5927 96.7334 17.4897C96.7334 18.2002 96.5479 18.3787 95.8444 18.3787M101.336 18.2632C101.367 14.7912 98.6374 11.9212 95.1654 11.7812C92.9289 11.8897 90.8359 12.9012 89.3624 14.5847C87.567 16.5482 86.5765 19.1172 86.594 21.7772C86.594 26.3516 89.443 30.3066 94.5004 30.3066C97.2724 30.1386 99.7819 28.6161 101.213 26.2397L100.384 25.0987C99.3094 26.1802 97.8394 26.7751 96.3169 26.7541C93.6464 26.7541 91.4554 24.4582 91.3399 20.4682C94.9624 20.3177 99.6734 19.9502 100.244 19.8452C101.231 19.6842 101.392 19.1697 101.392 18.2597" fill="#0046B4"/>
<path d="M119.49 22.543C119.49 18.707 116.82 16.4985 112.928 14.4405C109.848 12.82 108.431 11.5565 108.431 9.39356C108.312 7.46157 109.785 5.79558 111.717 5.67658C111.762 5.67658 111.811 5.67308 111.857 5.66958C114.856 5.66958 115.924 8.39256 116.718 10.8495L118.339 10.5731C117.982 8.08107 117.705 6.42558 117.59 4.92059C115.941 4.31859 114.205 3.98609 112.452 3.93359C106.88 3.93359 103.842 7.29007 103.842 11.4375C103.842 15.193 106.761 17.4365 110.394 19.449C113.197 20.989 114.702 22.5745 114.702 24.7445C114.702 27.1139 113.278 28.6539 111.143 28.6539C107.51 28.6539 105.613 24.587 104.91 22.2175L103.289 22.655C103.52 24.811 103.902 26.9459 104.43 29.0459C105.176 29.3749 105.946 29.6514 106.726 29.8824C107.934 30.2254 109.183 30.3969 110.44 30.3899C116.004 30.3899 119.564 26.9984 119.564 22.5745" fill="#0046B4"/>
<path d="M129.048 28.3929C127.589 28.1514 127.393 27.9939 127.393 25.7224V15.9295C128.065 15.205 129.02 14.806 130.011 14.8445C131.435 14.8445 132.583 15.8315 132.583 18.6735V25.7434C132.583 27.9589 132.422 28.1549 130.802 28.4139V29.8734H149.499V28.4139C147.325 28.1724 147.122 27.9344 147.122 25.4039V11.7995C144.812 12.4855 142.446 12.972 140.052 13.259V14.568C142.03 14.925 142.187 15.0055 142.187 17.445V25.3514C142.187 27.9589 141.848 28.1199 139.758 28.3614C137.854 28.0849 137.567 28.0044 137.567 25.6384V18.2325C137.567 14.127 135.786 11.831 132.422 11.831C130.455 11.831 128.674 13.0945 127.456 14.323V2.60156C125.128 3.20006 122.769 3.65855 120.386 3.98055V5.31754C122.398 5.55904 122.514 5.55904 122.514 7.84453V25.6489C122.514 28.0184 122.318 28.1689 120.109 28.3719V29.8314H129.111L129.048 28.3894V28.3929Z" fill="#0046B4"/>
<path d="M158.19 13.4997C159.614 13.4997 160.398 15.5927 160.398 17.4897C160.398 18.2002 160.202 18.3787 159.509 18.3787L155.12 18.5047C155.316 15.6102 156.741 13.4822 158.12 13.4822M158.12 30.3101C160.895 30.1456 163.408 28.6231 164.84 26.2432L164.003 25.1022C162.929 26.1837 161.459 26.7786 159.936 26.7576C157.266 26.7576 155.085 24.4617 154.959 20.4717C158.599 20.3212 163.3 19.9537 163.863 19.8487C164.85 19.6877 165.011 19.1732 165.011 18.2632C165.011 14.9872 162.393 11.7812 158.841 11.7812C156.604 11.8897 154.504 12.9012 153.027 14.5847C151.239 16.5517 150.252 19.1207 150.266 21.7772C150.266 26.3516 153.104 30.3066 158.162 30.3066" fill="#0046B4"/>
<path d="M175.14 28.3929C172.932 28.1514 172.729 27.9939 172.729 25.4984V2.60156C170.394 3.24206 168.011 3.70055 165.606 3.98055V5.24404C167.741 5.52054 167.822 5.59054 167.822 7.91452V25.4879C167.822 27.8644 167.661 28.1059 165.445 28.3824V29.8419H175.14V28.3894V28.3929Z" fill="#0046B4"/>
<path d="M184.855 27.2449C183.2 27.2449 180.669 25.2674 180.669 20.5669C180.669 14.5225 183.431 13.6125 184.229 13.6125C185.216 13.6125 186.115 14.288 186.668 15.6705V26.6919C186.143 27.1014 185.482 27.2974 184.817 27.2449M194.102 28.8304V27.4059L193 27.2799C191.806 27.1644 191.61 26.9334 191.61 24.9559V2.60156C189.223 3.27706 186.78 3.73905 184.309 3.98055V5.32454C186.563 5.52054 186.714 5.71654 186.714 7.89003V11.9955C181.548 10.907 176.476 14.211 175.384 19.3804C175.227 20.1224 175.16 20.8784 175.185 21.6379C175.185 27.5214 179.378 30.3284 182.608 30.3284C183.371 30.3354 184.113 30.0694 184.701 29.5794L186.714 28.2354V30.3284C189.153 29.6459 191.635 29.1489 194.148 28.8339" fill="#0046B4"/>
</svg>
