<?xml version="1.0" encoding="utf-8"?>
<!-- Generator: Adobe Illustrator 19.2.1, SVG Export Plug-In . SVG Version: 6.00 Build 0)  -->
<svg version="1.1" id="layer" xmlns="http://www.w3.org/2000/svg" xmlns:xlink="http://www.w3.org/1999/xlink" x="0px" y="0px"
	 viewBox="0 0 652 652" style="enable-background:new 0 0 652 652;" xml:space="preserve">
<style type="text/css">
	.st0{fill:#F38F1D;}
</style>
<rect x="135.1" y="289.8" class="st0" width="16.2" height="93.2"/>
<path class="st0" d="M574.1,287.6c-15.4,0-24.1,5.4-31.9,10.4v-8.3H526v93.2h16.2v-75.6c5.6-2.7,15.9-6.4,27.7-6.4
	c11.6,0,15.3,6.7,15.3,19.6v62.4h16.2v-26.3c0,0,0-27.4,0-40.6C601.3,302.8,595.1,287.6,574.1,287.6"/>
<path class="st0" d="M266.8,290.2l3.5-23.3h12.7v23.3h24.5v11.6h-24.5v50.4c0,17.1,1.6,21,11.5,21c7.4,0,10.3-1.2,15.6-2.3v11
	c-6.5,3.3-12.5,5-19.6,5c-17.1,0-23.7-11-23.7-27.9v-57.3h-13.9v-11.6H266.8"/>
<path class="st0" d="M232.7,303.7v-10.9c-6.8-2.9-13.9-4.6-24.9-4.6c-14.7,0-31.3,6.6-31.3,24.8c0,14,8.9,20,17.8,24.8l11.8,6.3
	c7.1,3.8,14.5,8.1,14.5,16.9c0,8.7-5.6,13-16.9,13c-12.2,0-17.7-1.4-27.3-3v10.8c8.1,3.3,17.4,5.3,28,5.3c13.5,0,32.3-4.9,32.3-27.9
	c0-13.2-9.7-21.8-18.7-26.7l-13.8-7.4c-9-5-11.3-7.6-11.3-12.8c0-7.9,8.7-11.3,17.5-11.3C218.8,300.9,224.7,301.5,232.7,303.7"/>
<path class="st0" d="M361.1,288.2c-15.3,0-40.8,11.3-40.8,52.8s30.1,45.9,45.7,45.9c12.4,0,19.4-1.6,29.4-5.3v-10.7
	c-15,2.8-16.4,3-27.5,3c-21.8,0-30.1-12.5-30.1-34l0-2.5h60.4V329C398.3,297.1,376.4,288.2,361.1,288.2 M338.2,327.3
	c0.3-19,11.7-26.9,21.9-26.9c17.7,0,22.4,10.6,22.5,27L338.2,327.3z"/>
<path class="st0" d="M504.9,337.6c0,30.3-17,49.3-43.5,49.3c-26.5,0-44-19.1-44-49.3c0-30.3,17.4-49.3,44-49.3
	C487.9,288.2,504.9,307.3,504.9,337.6 M435.1,337.6c0,30,12.5,38.2,26.3,38.2c13.6,0,25.6-8.1,25.6-38.2c0-30-12.1-38.2-25.6-38.2
	C444.8,299.4,435.1,307.3,435.1,337.6z"/>
<polyline class="st0" points="15.3,266.9 58.5,384.4 75.7,384.4 117.9,266.9 100.6,266.9 67.6,362.3 33.7,266.9 15.3,266.9 "/>
<path class="st0" d="M633.9,292c1.1,0.6,2,1.5,2.7,2.6c0.6,1.1,1,2.3,1,3.6c0,1.2-0.3,2.4-0.9,3.5c-0.6,1.1-1.5,2-2.6,2.6
	c-1.1,0.6-2.3,0.9-3.5,0.9c-1.2,0-2.4-0.3-3.5-0.9c-1.1-0.6-2-1.5-2.6-2.6c-0.6-1.1-0.9-2.3-0.9-3.5c0-1.2,0.3-2.4,1-3.6
	c0.6-1.1,1.5-2,2.7-2.6c1.1-0.6,2.3-0.9,3.5-0.9C631.6,291.1,632.8,291.4,633.9,292 M626.3,290.8c-1.4,0.7-2.4,1.8-3.2,3.1
	c-0.8,1.4-1.1,2.8-1.1,4.3c0,1.5,0.4,2.9,1.1,4.2c0.8,1.3,1.8,2.4,3.1,3.1c1.3,0.7,2.8,1.1,4.2,1.1c1.5,0,2.9-0.4,4.2-1.1
	c1.4-0.7,2.4-1.8,3.1-3.1c0.7-1.4,1.1-2.8,1.1-4.2c0-1.5-0.4-2.9-1.1-4.3c-0.8-1.4-1.8-2.4-3.2-3.1c-1.4-0.7-2.8-1.1-4.2-1.1
	C629,289.7,627.6,290,626.3,290.8z M628.2,302.9V299h0.9c0.5,0,0.9,0.1,1.2,0.3c0.4,0.3,0.9,1,1.6,2.1l0.8,1.5h1.8l-1.1-1.8
	c-0.5-0.9-1-1.5-1.4-1.8l-0.8-0.5c0.8-0.1,1.4-0.3,1.9-0.8c0.5-0.5,0.7-1.1,0.7-1.8c0-0.5-0.1-0.9-0.4-1.3c-0.3-0.4-0.7-0.7-1.2-0.9
	c-0.5-0.2-1.3-0.3-2.3-0.3h-3.2v9.2H628.2z M628.2,295h1.7c0.7,0,1.2,0.1,1.5,0.2l0.6,0.5l0.2,0.7c0,0.4-0.2,0.8-0.5,1
	c-0.3,0.3-0.9,0.4-1.8,0.4h-1.8V295z"/>
</svg>
